SplineFontDB: 2.0
FontName: Verachart-Oblique
FullName: Verachart Oblique
FamilyName: Verachart
Weight: Book
Copyright: Copyright (c) 2007 Widhaya Trisarnwadhana <widhaya3@gmail.com>. All rights reserved.\n\nModified under GNU General Public License by TLWG.
Version: 0.10.0: 2007-10-01
ItalicAngle: -10
UnderlinePosition: -170
UnderlineWidth: 20
Ascent: 1638
Descent: 410
Order2: 1
NeedsXUIDChange: 1
FSType: 0
OS2Version: 0
OS2_WeightWidthSlopeOnly: 0
OS2_UseTypoMetrics: 0
CreationTime: 1153662374
ModificationTime: 1191233274
PfmFamily: 33
TTFWeight: 400
TTFWidth: 5
LineGap: 0
VLineGap: 0
Panose: 2 11 5 4 2 2 2 2 2 4
OS2TypoAscent: 0
OS2TypoAOffset: 1
OS2TypoDescent: 0
OS2TypoDOffset: 1
OS2TypoLinegap: 0
OS2WinAscent: 0
OS2WinAOffset: 1
OS2WinDescent: 0
OS2WinDOffset: 1
HheadAscent: 0
HheadAOffset: 1
HheadDescent: 0
HheadDOffset: 1
OS2SubXSize: -12660
OS2SubYSize: -12824
OS2SubXOff: 24034
OS2SubYOff: -18656
OS2SupXSize: -12836
OS2SupYSize: -12856
OS2SupXOff: -28420
OS2SupYOff: -18656
OS2StrikeYSize: -12928
OS2StrikeYPos: -12660
OS2Vendor: 'PfEd'
Lookup: 6 0 0 "'ccmp' Glyph Composition/Decomposition in Thai lookup 0"  {"'ccmp' Glyph Composition/Decomposition in Thai lookup 0"  } ['ccmp' ('thai' <'KUY ' 'PAL ' 'THA ' 'dflt' > ) ]
Lookup: 6 0 0 "'ccmp' Glyph Composition/Decomposition in Thai lookup 1"  {"'ccmp' Glyph Composition/Decomposition in Thai lookup 1"  } ['ccmp' ('thai' <'KUY ' 'PAL ' 'THA ' 'dflt' > ) ]
Lookup: 5 0 0 "Required Feature in Thai lookup 2"  {"Required Feature in Thai lookup 2"  } [' RQD' ('thai' <'PAL ' > ) ]
Lookup: 1 0 0 "Single Substitution lookup 3"  {"Single Substitution lookup 3"  } []
Lookup: 2 0 0 "Multiple Substitution lookup 4"  {"Multiple Substitution lookup 4"  } []
Lookup: 1 0 0 "Single Substitution lookup 5"  {"Single Substitution lookup 5"  } []
Lookup: 2 0 0 "Multiple Substitution lookup 6"  {"Multiple Substitution lookup 6"  } []
Lookup: 1 0 0 "Single Substitution lookup 7"  {"Single Substitution lookup 7"  } []

StartChar: .notdef
Encoding: 65536 -1 0
Width: 1229
Flags: W
HStem: -362 114<173 968> 1329 115<451 1246>
Fore
38 -362 m 1,0,-1
 357 1444 l 1,1,-1
 1381 1444 l 1,2,-1
 1062 -362 l 1,3,-1
 38 -362 l 1,0,-1
173 -248 m 1,4,-1
 968 -248 l 1,5,-1
 1246 1329 l 1,6,-1
 451 1329 l 1,7,-1
 173 -248 l 1,4,-1
EndSplineSet
EndChar
StartChar: uni0E4D.high
Encoding: 63262 63262 2
Width: 0
VWidth: 2561
Flags: W
HStem: 1881 102<-62.3 17> 2139 103<-40.8 48.9>
AnchorPoint: "AboveMark" -38.1475 1848 mark 0
Fore
25 2242 m 24,0,1
 99 2242 99 2242 142 2188.5 c 128,-1,2
 185 2135 185 2135 172 2060 c 0,3,4
 159 1986 159 1986 97 1933.5 c 128,-1,5
 35 1881 35 1881 -39 1881 c 128,-1,6
 -113 1881 -113 1881 -157 1933.5 c 128,-1,7
 -201 1986 -201 1986 -188 2060 c 0,8,9
 -175 2135 -175 2135 -112.5 2188.5 c 128,-1,10
 -50 2242 -50 2242 25 2242 c 24,0,1
-22 1983 m 0,11,12
 8 1983 8 1983 37 2006.5 c 128,-1,13
 66 2030 66 2030 72 2060 c 0,14,15
 78 2094 78 2094 58.5 2116.5 c 128,-1,16
 39 2139 39 2139 6 2139 c 0,17,18
 -30 2139 -30 2139 -56.5 2116 c 128,-1,19
 -83 2093 -83 2093 -88 2060 c 0,20,21
 -94 2029 -94 2029 -73.5 2006 c 128,-1,22
 -53 1983 -53 1983 -22 1983 c 0,11,12
EndSplineSet
EndChar
StartChar: exclam
Encoding: 33 33 5
Width: 821
Flags: W
HStem: 0 254<354 512> 1473 20G<572 775>
VStem: 309 466<0 1493>
Fore
354 254 m 1,0,-1
 557 254 l 1,1,-1
 512 0 l 1,2,-1
 309 0 l 1,3,-1
 354 254 l 1,0,-1
572 1493 m 1,4,-1
 775 1493 l 1,5,-1
 660 838 l 1,6,-1
 577 481 l 1,7,-1
 415 481 l 1,8,-1
 457 838 l 1,9,-1
 572 1493 l 1,4,-1
EndSplineSet
EndChar
StartChar: quotedbl
Encoding: 34 34 6
Width: 942
Flags: W
HStem: 1473 20G<460 630 838 1008>
VStem: 362 646<938 1493>
Fore
630 1493 m 1,0,-1
 532 938 l 1,1,-1
 362 938 l 1,2,-1
 460 1493 l 1,3,-1
 630 1493 l 1,0,-1
1008 1493 m 1,4,-1
 910 938 l 1,5,-1
 740 938 l 1,6,-1
 838 1493 l 1,7,-1
 1008 1493 l 1,4,-1
EndSplineSet
EndChar
StartChar: numbersign
Encoding: 35 35 7
Width: 1716
Flags: W
HStem: 0 21G<369 530 823 983> 414 153<258 546 772 999 1226 1517> 901 154<458 753 979 1206 1433 1718>
Fore
1206 901 m 1,0,-1
 915 901 l 1,1,-1
 772 567 l 1,2,-1
 1065 567 l 1,3,-1
 1206 901 l 1,0,-1
1156 1470 m 1,4,-1
 979 1055 l 1,5,-1
 1271 1055 l 1,6,-1
 1449 1470 l 1,7,-1
 1609 1470 l 1,8,-1
 1433 1055 l 1,9,-1
 1745 1055 l 1,10,-1
 1718 901 l 1,11,-1
 1367 901 l 1,12,-1
 1226 567 l 1,13,-1
 1544 567 l 1,14,-1
 1517 414 l 1,15,-1
 1160 414 l 1,16,-1
 983 0 l 1,17,-1
 823 0 l 1,18,-1
 999 414 l 1,19,-1
 706 414 l 1,20,-1
 530 0 l 1,21,-1
 369 0 l 1,22,-1
 546 414 l 1,23,-1
 231 414 l 1,24,-1
 258 567 l 1,25,-1
 610 567 l 1,26,-1
 753 901 l 1,27,-1
 431 901 l 1,28,-1
 458 1055 l 1,29,-1
 819 1055 l 1,30,-1
 994 1470 l 1,31,-1
 1156 1470 l 1,4,-1
EndSplineSet
EndChar
StartChar: dollar
Encoding: 36 36 8
Width: 1303
Flags: W
HStem: 0 142<472.7 617> 1179 145<900 1018.3> 1536 20G<866 966>
Fore
639 -301 m 1,0,-1
 539 -301 l 1,1,-1
 591 0 l 1,2,3
 486 2 486 2 385 24.5 c 128,-1,4
 284 47 284 47 186 92 c 1,5,-1
 218 272 l 1,6,7
 309 208 309 208 407.5 175.5 c 128,-1,8
 506 143 506 143 617 142 c 1,9,-1
 697 598 l 1,10,11
 483 634 483 634 397.5 720 c 128,-1,12
 312 806 312 806 339 956 c 0,13,14
 367 1119 367 1119 492.5 1213 c 128,-1,15
 618 1307 618 1307 825 1321 c 1,16,-1
 866 1556 l 1,17,-1
 966 1556 l 1,18,-1
 925 1324 l 1,19,20
 1018 1320 1018 1320 1102 1304.5 c 128,-1,21
 1186 1289 1186 1289 1265 1262 c 1,22,-1
 1234 1087 l 1,23,24
 1158 1129 1158 1129 1074.5 1152 c 128,-1,25
 991 1175 991 1175 900 1179 c 1,26,-1
 825 752 l 1,27,28
 1045 717 1045 717 1136.5 627 c 128,-1,29
 1228 537 1228 537 1200 381 c 0,30,31
 1170 212 1170 212 1039.5 114.5 c 128,-1,32
 909 17 909 17 692 2 c 1,33,-1
 639 -301 l 1,0,-1
728 770 m 1,34,-1
 800 1180 l 1,35,36
 682 1167 682 1167 611.5 1114 c 128,-1,37
 541 1061 541 1061 526 973 c 0,38,39
 510 887 510 887 558 839 c 128,-1,40
 606 791 606 791 728 770 c 1,34,-1
794 578 m 1,41,-1
 718 145 l 1,42,43
 848 162 848 162 922 217 c 128,-1,44
 996 272 996 272 1012 362 c 0,45,46
 1027 450 1027 450 975 502 c 128,-1,47
 923 554 923 554 794 578 c 1,41,-1
EndSplineSet
EndChar
StartChar: percent
Encoding: 37 37 9
Width: 1946
Flags: W
HStem: -29 127<1392.9 1616.5> 657 127<1491.9 1715.5> 707 127<490.9 717.1> 1393 127<591.2 814.8>
Fore
1605 657 m 0,0,1
 1518 657 1518 657 1455.5 583 c 128,-1,2
 1393 509 1393 509 1369 377 c 0,3,4
 1347 247 1347 247 1383 172.5 c 128,-1,5
 1419 98 1419 98 1506 98 c 0,6,7
 1591 98 1591 98 1654 172.5 c 128,-1,8
 1717 247 1717 247 1739 377 c 0,9,10
 1763 508 1763 508 1726.5 582.5 c 128,-1,11
 1690 657 1690 657 1605 657 c 0,0,1
1627 784 m 0,12,13
 1785 784 1785 784 1858.5 674 c 128,-1,14
 1932 564 1932 564 1899 377 c 256,15,16
 1867 190 1867 190 1754 80.5 c 128,-1,17
 1641 -29 1641 -29 1484 -29 c 0,18,19
 1324 -29 1324 -29 1250.5 80.5 c 128,-1,20
 1177 190 1177 190 1209 377 c 0,21,22
 1243 565 1243 565 1355.5 674.5 c 128,-1,23
 1468 784 1468 784 1627 784 c 0,12,13
703 1393 m 256,24,25
 617 1393 617 1393 554 1318.5 c 128,-1,26
 491 1244 491 1244 468 1114 c 0,27,28
 445 982 445 982 481 908 c 128,-1,29
 517 834 517 834 604 834 c 256,30,31
 691 834 691 834 753.5 908 c 128,-1,32
 816 982 816 982 839 1114 c 0,33,34
 862 1243 862 1243 825.5 1318 c 128,-1,35
 789 1393 789 1393 703 1393 c 256,24,25
1628 1520 m 1,36,-1
 1788 1520 l 1,37,-1
 581 -29 l 1,38,-1
 421 -29 l 1,39,-1
 1628 1520 l 1,36,-1
725 1520 m 256,40,41
 883 1520 883 1520 957.5 1410.5 c 128,-1,42
 1032 1301 1032 1301 999 1114 c 0,43,44
 966 925 966 925 853.5 816 c 128,-1,45
 741 707 741 707 582 707 c 256,46,47
 423 707 423 707 349.5 816.5 c 128,-1,48
 276 926 276 926 309 1114 c 0,49,50
 342 1300 342 1300 454.5 1410 c 128,-1,51
 567 1520 567 1520 725 1520 c 256,40,41
EndSplineSet
EndChar
StartChar: ampersand
Encoding: 38 38 10
Width: 1597
Flags: W
HStem: -29 162<509 840.5> 1362 158<828.5 1055.68>
Fore
640 803 m 1,0,1
 534 722 534 722 477.5 641.5 c 128,-1,2
 421 561 421 561 405 473 c 0,3,4
 380 327 380 327 468.5 230 c 128,-1,5
 557 133 557 133 717 133 c 0,6,7
 812 133 812 133 901 164.5 c 128,-1,8
 990 196 990 196 1074 260 c 1,9,-1
 640 803 l 1,0,1
800 915 m 2,10,-1
 1217 395 l 1,11,12
 1291 484 1291 484 1342 585.5 c 128,-1,13
 1393 687 1393 687 1419 801 c 1,14,-1
 1605 801 l 1,15,16
 1570 669 1570 669 1495 540 c 128,-1,17
 1420 411 1420 411 1305 285 c 1,18,-1
 1534 0 l 1,19,-1
 1282 0 l 1,20,-1
 1165 147 l 1,21,22
 1045 58 1045 58 923.5 14.5 c 128,-1,23
 802 -29 802 -29 671 -29 c 0,24,25
 430 -29 430 -29 301 108.5 c 128,-1,26
 172 246 172 246 210 461 c 0,27,28
 233 589 233 589 320 701.5 c 128,-1,29
 407 814 407 814 558 913 c 1,30,31
 521 976 521 976 507 1038.5 c 128,-1,32
 493 1101 493 1101 504 1161 c 0,33,34
 532 1323 532 1323 660.5 1421.5 c 128,-1,35
 789 1520 789 1520 973 1520 c 0,36,37
 1056 1520 1056 1520 1135.5 1502 c 128,-1,38
 1215 1484 1215 1484 1293 1448 c 1,39,-1
 1261 1266 l 1,40,41
 1183 1313 1183 1313 1108 1337.5 c 128,-1,42
 1033 1362 1033 1362 965 1362 c 0,43,44
 860 1362 860 1362 785 1306.5 c 128,-1,45
 710 1251 710 1251 694 1163 c 0,46,47
 685 1112 685 1112 705.5 1060.5 c 128,-1,48
 726 1009 726 1009 800 915 c 2,10,-1
EndSplineSet
EndChar
StartChar: quotesingle
Encoding: 39 39 11
Width: 563
Flags: W
HStem: 1473 20G<460 630>
VStem: 362 268<938 1493>
Fore
630 1493 m 1,0,-1
 532 938 l 1,1,-1
 362 938 l 1,2,-1
 460 1493 l 1,3,-1
 630 1493 l 1,0,-1
EndSplineSet
EndChar
StartChar: parenleft
Encoding: 40 40 12
Width: 799
Flags: W
Fore
909 1554 m 1,0,1
 734 1324 734 1324 629.5 1099 c 128,-1,2
 525 874 525 874 484 643 c 256,3,4
 444 412 444 412 469.5 185.5 c 128,-1,5
 495 -41 495 -41 587 -270 c 1,6,-1
 427 -270 l 1,7,8
 319 -35 319 -35 284.5 192 c 128,-1,9
 250 419 250 419 289 643 c 0,10,11
 329 866 329 866 442.5 1092 c 128,-1,12
 556 1318 556 1318 749 1554 c 1,13,-1
 909 1554 l 1,0,1
EndSplineSet
EndChar
StartChar: parenright
Encoding: 41 41 13
Width: 799
Flags: W
Fore
438 1554 m 1,0,-1
 598 1554 l 1,1,2
 706 1318 706 1318 741 1092 c 128,-1,3
 776 866 776 866 736 643 c 0,4,5
 697 419 697 419 582.5 192 c 128,-1,6
 468 -35 468 -35 276 -270 c 1,7,-1
 116 -270 l 1,8,9
 290 -41 290 -41 395.5 185.5 c 128,-1,10
 501 412 501 412 541 643 c 256,11,12
 582 874 582 874 556 1099 c 128,-1,13
 530 1324 530 1324 438 1554 c 1,0,-1
EndSplineSet
EndChar
StartChar: asterisk
Encoding: 42 42 14
Width: 1024
Flags: W
HStem: 586 934<672 723>
VStem: 212 971<858 1247>
Fore
1183 1247 m 1,0,-1
 790 1053 l 1,1,-1
 1114 858 l 1,2,-1
 1039 760 l 1,3,-1
 739 963 l 1,4,-1
 672 586 l 1,5,-1
 558 586 l 1,6,-1
 625 963 l 1,7,-1
 253 760 l 1,8,-1
 212 858 l 1,9,-1
 606 1053 l 1,10,-1
 281 1247 l 1,11,-1
 356 1346 l 1,12,-1
 657 1143 l 1,13,-1
 723 1520 l 1,14,-1
 837 1520 l 1,15,-1
 771 1143 l 1,16,-1
 1142 1346 l 1,17,-1
 1183 1247 l 1,0,-1
EndSplineSet
EndChar
StartChar: plus
Encoding: 43 43 15
Width: 1716
Flags: W
HStem: 0 21G<774 942> 557 170<345 872 1070 1597>
Fore
1168 1284 m 1,0,-1
 1070 727 l 1,1,-1
 1627 727 l 1,2,-1
 1597 557 l 1,3,-1
 1040 557 l 1,4,-1
 942 0 l 1,5,-1
 774 0 l 1,6,-1
 872 557 l 1,7,-1
 315 557 l 1,8,-1
 345 727 l 1,9,-1
 902 727 l 1,10,-1
 1000 1284 l 1,11,-1
 1168 1284 l 1,0,-1
EndSplineSet
EndChar
StartChar: comma
Encoding: 44 44 16
Width: 651
Flags: W
HStem: -238 492<245 285>
VStem: 116 380<-238 254>
Fore
285 254 m 1,0,-1
 496 254 l 1,1,-1
 465 82 l 1,2,-1
 245 -238 l 1,3,-1
 116 -238 l 1,4,-1
 254 82 l 1,5,-1
 285 254 l 1,0,-1
EndSplineSet
EndChar
StartChar: hyphen
Encoding: 45 45 17
Width: 739
Flags: W
HStem: 479 164<213 723>
VStem: 184 568<479 643>
Fore
213 643 m 1,0,-1
 752 643 l 1,1,-1
 723 479 l 1,2,-1
 184 479 l 1,3,-1
 213 643 l 1,0,-1
EndSplineSet
EndChar
StartChar: period
Encoding: 46 46 18
Width: 651
Flags: W
HStem: 0 254<264 430>
VStem: 219 256<0 254>
Fore
264 254 m 1,0,-1
 475 254 l 1,1,-1
 430 0 l 1,2,-1
 219 0 l 1,3,-1
 264 254 l 1,0,-1
EndSplineSet
EndChar
StartChar: slash
Encoding: 47 47 19
Width: 690
Flags: W
HStem: 1473 20G<783 953>
VStem: -34 987<-190 1493>
Fore
783 1493 m 1,0,-1
 953 1493 l 1,1,-1
 136 -190 l 1,2,-1
 -34 -190 l 1,3,-1
 783 1493 l 1,0,-1
EndSplineSet
EndChar
StartChar: zero
Encoding: 48 48 20
Width: 1303
Flags: W
HStem: -29 160<471.2 878.1> 1360 160<688.2 1095.1>
Fore
891 1360 m 0,0,1
 735 1360 735 1360 629.5 1206.5 c 128,-1,2
 524 1053 524 1053 469 745 c 0,3,4
 415 438 415 438 466.5 284.5 c 128,-1,5
 518 131 518 131 674 131 c 0,6,7
 831 131 831 131 936.5 284.5 c 128,-1,8
 1042 438 1042 438 1096 745 c 0,9,10
 1151 1053 1151 1053 1099.5 1206.5 c 128,-1,11
 1048 1360 1048 1360 891 1360 c 0,0,1
919 1520 m 256,12,13
 1170 1520 1170 1520 1267.5 1321.5 c 128,-1,14
 1365 1123 1365 1123 1298 745 c 0,15,16
 1232 368 1232 368 1064.5 169.5 c 128,-1,17
 897 -29 897 -29 646 -29 c 256,18,19
 395 -29 395 -29 297.5 169.5 c 128,-1,20
 200 368 200 368 266 745 c 0,21,22
 333 1123 333 1123 500.5 1321.5 c 128,-1,23
 668 1520 668 1520 919 1520 c 256,12,13
EndSplineSet
EndChar
StartChar: one
Encoding: 49 49 21
Width: 1303
Flags: W
HStem: 0 170<284 614 814 1114> 1473 20G<845 1047>
VStem: 254 890<0 170>
Fore
284 170 m 1,0,-1
 614 170 l 1,1,-1
 815 1309 l 1,2,-1
 443 1237 l 1,3,-1
 476 1421 l 1,4,-1
 845 1493 l 1,5,-1
 1047 1493 l 1,6,-1
 814 170 l 1,7,-1
 1144 170 l 1,8,-1
 1114 0 l 1,9,-1
 254 0 l 1,10,-1
 284 170 l 1,0,-1
EndSplineSet
EndChar
StartChar: two
Encoding: 50 50 22
Width: 1303
Flags: W
HStem: 0 170<423 1098> 1350 170<732.312 998.2>
Fore
423 170 m 1,0,-1
 1128 170 l 1,1,-1
 1098 0 l 1,2,-1
 150 0 l 1,3,-1
 180 170 l 1,4,5
 316 289 316 289 550 489.5 c 128,-1,6
 784 690 784 690 845 748 c 0,7,8
 961 857 961 857 1013 932.5 c 128,-1,9
 1065 1008 1065 1008 1078 1081 c 0,10,11
 1099 1200 1099 1200 1028.5 1275 c 128,-1,12
 958 1350 958 1350 824 1350 c 0,13,14
 729 1350 729 1350 617.5 1317 c 128,-1,15
 506 1284 506 1284 375 1217 c 1,16,-1
 411 1421 l 1,17,18
 541 1470 541 1470 651.5 1495 c 128,-1,19
 762 1520 762 1520 850 1520 c 0,20,21
 1082 1520 1082 1520 1199.5 1404 c 128,-1,22
 1317 1288 1317 1288 1283 1094 c 0,23,24
 1267 1002 1267 1002 1218 919.5 c 128,-1,25
 1169 837 1169 837 1058 725 c 0,26,27
 1028 696 1028 696 869.5 557.5 c 128,-1,28
 711 419 711 419 423 170 c 1,0,-1
EndSplineSet
EndChar
StartChar: three
Encoding: 51 51 23
Width: 1303
Flags: W
HStem: -29 170<432.3 821> 715 166<569 928.5> 1350 170<725.991 1023.6>
Fore
973 805 m 1,0,1
 1112 774 1112 774 1176.5 676 c 128,-1,2
 1241 578 1241 578 1216 434 c 0,3,4
 1177 213 1177 213 1003.5 92 c 128,-1,5
 830 -29 830 -29 550 -29 c 0,6,7
 456 -29 456 -29 359.5 -10.5 c 128,-1,8
 263 8 263 8 164 45 c 1,9,-1
 198 240 l 1,10,11
 274 191 274 191 369.5 166 c 128,-1,12
 465 141 465 141 574 141 c 0,13,14
 764 141 764 141 876.5 216 c 128,-1,15
 989 291 989 291 1015 434 c 0,16,17
 1038 566 1038 566 958.5 640.5 c 128,-1,18
 879 715 879 715 714 715 c 2,19,-1
 540 715 l 1,20,-1
 569 881 l 1,21,-1
 751 881 l 2,22,23
 900 881 900 881 989.5 940.5 c 128,-1,24
 1079 1000 1079 1000 1099 1112 c 0,25,26
 1119 1227 1119 1227 1048.5 1288.5 c 128,-1,27
 978 1350 978 1350 826 1350 c 0,28,29
 743 1350 743 1350 645 1332 c 128,-1,30
 547 1314 547 1314 426 1276 c 1,31,-1
 458 1456 l 1,32,33
 578 1488 578 1488 681.5 1504 c 128,-1,34
 785 1520 785 1520 874 1520 c 0,35,36
 1104 1520 1104 1520 1219.5 1415.5 c 128,-1,37
 1335 1311 1335 1311 1304 1133 c 0,38,39
 1282 1009 1282 1009 1196 923.5 c 128,-1,40
 1110 838 1110 838 973 805 c 1,0,1
EndSplineSet
EndChar
StartChar: four
Encoding: 52 52 24
Width: 1303
Flags: W
HStem: 0 21G<774 975> 352 168<356 836 1067 1250> 1473 20G<984 1238>
Fore
1006 1317 m 1,0,-1
 356 520 l 1,1,-1
 866 520 l 1,2,-1
 1006 1317 l 1,0,-1
984 1493 m 1,3,-1
 1238 1493 l 1,4,-1
 1067 520 l 1,5,-1
 1280 520 l 1,6,-1
 1250 352 l 1,7,-1
 1037 352 l 1,8,-1
 975 0 l 1,9,-1
 774 0 l 1,10,-1
 836 352 l 1,11,-1
 162 352 l 1,12,-1
 196 547 l 1,13,-1
 984 1493 l 1,3,-1
EndSplineSet
EndChar
StartChar: five
Encoding: 53 53 25
Width: 1303
Flags: W
HStem: -29 170<432.9 796.9> 817 170<652.566 915.9> 1323 170<639 1247>
Fore
484 1493 m 1,0,-1
 1277 1493 l 1,1,-1
 1247 1323 l 1,2,-1
 639 1323 l 1,3,-1
 575 957 l 1,4,5
 621 972 621 972 666.5 979.5 c 128,-1,6
 712 987 712 987 756 987 c 0,7,8
 1006 987 1006 987 1128 850 c 128,-1,9
 1250 713 1250 713 1208 479 c 0,10,11
 1166 238 1166 238 992.5 104.5 c 128,-1,12
 819 -29 819 -29 546 -29 c 0,13,14
 452 -29 452 -29 357.5 -13 c 128,-1,15
 263 3 263 3 164 35 c 1,16,-1
 200 238 l 1,17,18
 281 189 281 189 373 165 c 128,-1,19
 465 141 465 141 572 141 c 0,20,21
 745 141 745 141 862 232 c 128,-1,22
 979 323 979 323 1006 479 c 256,23,24
 1034 635 1034 635 949 726 c 128,-1,25
 864 817 864 817 691 817 c 0,26,27
 610 817 610 817 526.5 799 c 128,-1,28
 443 781 443 781 352 743 c 1,29,-1
 484 1493 l 1,0,-1
EndSplineSet
EndChar
StartChar: six
Encoding: 54 54 26
Width: 1303
Flags: W
HStem: -29 160<522.2 875.8> 827 160<722.9 998.8> 1350 170<748 1118.33>
Fore
822 827 m 256,0,1
 686 827 686 827 590 734 c 128,-1,2
 494 641 494 641 465 479 c 0,3,4
 437 318 437 318 500 224.5 c 128,-1,5
 563 131 563 131 699 131 c 256,6,7
 835 131 835 131 931 224.5 c 128,-1,8
 1027 318 1027 318 1055 479 c 0,9,10
 1084 641 1084 641 1021 734 c 128,-1,11
 958 827 958 827 822 827 c 256,0,1
1334 1460 m 1,12,-1
 1302 1276 l 1,13,14
 1232 1312 1232 1312 1158 1331 c 128,-1,15
 1084 1350 1084 1350 1008 1350 c 0,16,17
 808 1350 808 1350 678.5 1215 c 128,-1,18
 549 1080 549 1080 486 807 c 1,19,20
 561 894 561 894 658 940.5 c 128,-1,21
 755 987 755 987 862 987 c 0,22,23
 1087 987 1087 987 1193.5 850.5 c 128,-1,24
 1300 714 1300 714 1258 479 c 0,25,26
 1218 249 1218 249 1057.5 110 c 128,-1,27
 897 -29 897 -29 671 -29 c 0,28,29
 412 -29 412 -29 310 169.5 c 128,-1,30
 208 368 208 368 274 745 c 0,31,32
 337 1099 337 1099 542 1309.5 c 128,-1,33
 747 1520 747 1520 1030 1520 c 0,34,35
 1106 1520 1106 1520 1181 1505 c 128,-1,36
 1256 1490 1256 1490 1334 1460 c 1,12,-1
EndSplineSet
EndChar
StartChar: seven
Encoding: 55 55 27
Width: 1303
Flags: W
HStem: 0 21G<375 586> 1323 170<431 1118>
VStem: 375 1016<0 1493>
Fore
431 1493 m 1,0,-1
 1391 1493 l 1,1,-1
 1376 1407 l 1,2,-1
 586 0 l 1,3,-1
 375 0 l 1,4,-1
 1118 1323 l 1,5,-1
 401 1323 l 1,6,-1
 431 1493 l 1,0,-1
EndSplineSet
EndChar
StartChar: eight
Encoding: 56 56 28
Width: 1303
Flags: W
HStem: -29 160<486.8 861.2> 709 159<633.7 964.5> 1360 160<720.7 1060>
Fore
776 709 m 0,0,1
 632 709 632 709 536 632 c 128,-1,2
 440 555 440 555 416 420 c 256,3,4
 392 285 392 285 461 208 c 128,-1,5
 530 131 530 131 674 131 c 256,6,7
 818 131 818 131 914.5 208.5 c 128,-1,8
 1011 286 1011 286 1035 420 c 0,9,10
 1059 555 1059 555 990 632 c 128,-1,11
 921 709 921 709 776 709 c 0,0,1
589 795 m 1,12,13
 465 827 465 827 408 916 c 128,-1,14
 351 1005 351 1005 374 1133 c 0,15,16
 405 1312 405 1312 551 1416 c 128,-1,17
 697 1520 697 1520 919 1520 c 0,18,19
 1142 1520 1142 1520 1250.5 1416 c 128,-1,20
 1359 1312 1359 1312 1328 1133 c 0,21,22
 1305 1005 1305 1005 1217 916 c 128,-1,23
 1129 827 1129 827 994 795 c 1,24,25
 1134 761 1134 761 1198 662 c 128,-1,26
 1262 563 1262 563 1237 420 c 0,27,28
 1199 203 1199 203 1046 87 c 128,-1,29
 893 -29 893 -29 646 -29 c 256,30,31
 399 -29 399 -29 287 87 c 128,-1,32
 175 203 175 203 213 420 c 0,33,34
 238 563 238 563 337.5 662 c 128,-1,35
 437 761 437 761 589 795 c 1,12,13
571 1114 m 256,36,37
 551 998 551 998 612 933 c 128,-1,38
 673 868 673 868 804 868 c 0,39,40
 934 868 934 868 1019 933 c 128,-1,41
 1104 998 1104 998 1124 1114 c 256,42,43
 1145 1230 1145 1230 1083 1295 c 128,-1,44
 1021 1360 1021 1360 891 1360 c 0,45,46
 760 1360 760 1360 676 1295 c 128,-1,47
 592 1230 592 1230 571 1114 c 256,36,37
EndSplineSet
EndChar
StartChar: nine
Encoding: 57 57 29
Width: 1303
Flags: W
HStem: -29 170<447.518 817> 506 158<567.2 843.4> 1360 160<690.2 1043.8>
Fore
230 31 m 1,0,-1
 263 215 l 1,1,2
 333 179 333 179 407.5 160 c 128,-1,3
 482 141 482 141 557 141 c 0,4,5
 757 141 757 141 886 275.5 c 128,-1,6
 1015 410 1015 410 1079 684 c 1,7,8
 1005 598 1005 598 908 552 c 128,-1,9
 811 506 811 506 703 506 c 0,10,11
 479 506 479 506 372.5 641.5 c 128,-1,12
 266 777 266 777 307 1012 c 0,13,14
 348 1242 348 1242 508.5 1381 c 128,-1,15
 669 1520 669 1520 895 1520 c 0,16,17
 1154 1520 1154 1520 1255.5 1321.5 c 128,-1,18
 1357 1123 1357 1123 1290 745 c 0,19,20
 1228 392 1228 392 1023.5 181.5 c 128,-1,21
 819 -29 819 -29 536 -29 c 0,22,23
 460 -29 460 -29 384.5 -14 c 128,-1,24
 309 1 309 1 230 31 c 1,0,-1
744 664 m 256,25,26
 880 664 880 664 976 757 c 128,-1,27
 1072 850 1072 850 1100 1012 c 0,28,29
 1129 1173 1129 1173 1066 1266.5 c 128,-1,30
 1003 1360 1003 1360 867 1360 c 256,31,32
 731 1360 731 1360 635 1266.5 c 128,-1,33
 539 1173 539 1173 510 1012 c 0,34,35
 482 850 482 850 545 757 c 128,-1,36
 608 664 608 664 744 664 c 256,25,26
EndSplineSet
EndChar
StartChar: colon
Encoding: 58 58 30
Width: 690
Flags: W
HStem: 0 254<285 451> 805 254<427 593>
VStem: 240 398<0 1059>
Fore
285 254 m 1,0,-1
 496 254 l 1,1,-1
 451 0 l 1,2,-1
 240 0 l 1,3,-1
 285 254 l 1,0,-1
427 1059 m 1,4,-1
 638 1059 l 1,5,-1
 593 805 l 1,6,-1
 382 805 l 1,7,-1
 427 1059 l 1,4,-1
EndSplineSet
EndChar
StartChar: semicolon
Encoding: 59 59 31
Width: 690
Flags: W
HStem: 805 254<427 593>
VStem: 116 522<-238 1059>
Fore
427 1059 m 1,0,-1
 638 1059 l 1,1,-1
 593 805 l 1,2,-1
 382 805 l 1,3,-1
 427 1059 l 1,0,-1
285 254 m 1,4,-1
 496 254 l 1,5,-1
 465 82 l 1,6,-1
 245 -238 l 1,7,-1
 116 -238 l 1,8,-1
 254 82 l 1,9,-1
 285 254 l 1,4,-1
EndSplineSet
EndChar
StartChar: less
Encoding: 60 60 32
Width: 1716
Flags: W
Fore
1677 1008 m 1,0,-1
 580 641 l 1,1,-1
 1548 276 l 1,2,-1
 1516 94 l 1,3,-1
 316 559 l 1,4,-1
 345 725 l 1,5,-1
 1709 1190 l 1,6,-1
 1677 1008 l 1,0,-1
EndSplineSet
EndChar
StartChar: equal
Encoding: 61 61 33
Width: 1716
Flags: W
HStem: 352 170<309 1561> 762 168<381 1633>
Fore
381 930 m 1,0,-1
 1663 930 l 1,1,-1
 1633 762 l 1,2,-1
 351 762 l 1,3,-1
 381 930 l 1,0,-1
309 522 m 1,4,-1
 1591 522 l 1,5,-1
 1561 352 l 1,6,-1
 279 352 l 1,7,-1
 309 522 l 1,4,-1
EndSplineSet
EndChar
StartChar: greater
Encoding: 62 62 34
Width: 1716
Flags: W
Fore
395 1008 m 1,0,-1
 427 1190 l 1,1,-1
 1627 725 l 1,2,-1
 1598 559 l 1,3,-1
 234 94 l 1,4,-1
 266 276 l 1,5,-1
 1360 641 l 1,6,-1
 395 1008 l 1,0,-1
EndSplineSet
EndChar
StartChar: question
Encoding: 63 63 35
Width: 1087
Flags: W
HStem: 0 254<436 594> 1356 164<671.1 881.4>
VStem: 362 788<1167 1219>
Fore
436 254 m 1,0,-1
 639 254 l 1,1,-1
 594 0 l 1,2,-1
 391 0 l 1,3,-1
 436 254 l 1,0,-1
659 401 m 1,4,-1
 468 401 l 1,5,-1
 495 555 l 2,6,7
 513 656 513 656 552.5 721 c 128,-1,8
 592 786 592 786 697 872 c 2,9,-1
 802 961 l 2,10,11
 869 1014 869 1014 902.5 1061 c 128,-1,12
 936 1108 936 1108 945 1157 c 0,13,14
 961 1246 961 1246 905 1301 c 128,-1,15
 849 1356 849 1356 741 1356 c 0,16,17
 662 1356 662 1356 566.5 1321 c 128,-1,18
 471 1286 471 1286 362 1219 c 1,19,-1
 395 1407 l 1,20,21
 499 1464 499 1464 600.5 1492 c 128,-1,22
 702 1520 702 1520 805 1520 c 0,23,24
 989 1520 989 1520 1083.5 1423 c 128,-1,25
 1178 1326 1178 1326 1150 1167 c 0,26,27
 1136 1091 1136 1091 1088 1022.5 c 128,-1,28
 1040 954 1040 954 935 868 c 2,29,-1
 832 782 l 2,30,31
 777 735 777 735 752.5 708.5 c 128,-1,32
 728 682 728 682 716 657 c 0,33,34
 706 636 706 636 698 606 c 128,-1,35
 690 576 690 576 680 524 c 2,36,-1
 659 401 l 1,4,-1
EndSplineSet
EndChar
StartChar: at
Encoding: 64 64 36
Width: 2048
Flags: W
HStem: -356 143<795.9 1167.7> 88 143<907.8 1138.9> 842 145<1016.7 1296.9> 1298 144<1124.1 1512.8>
Fore
857 537 m 0,0,1
 831 394 831 394 888 312.5 c 128,-1,2
 945 231 945 231 1069 231 c 0,3,4
 1192 231 1192 231 1277 313 c 128,-1,5
 1362 395 1362 395 1387 537 c 0,6,7
 1411 677 1411 677 1353.5 759.5 c 128,-1,8
 1296 842 1296 842 1174 842 c 0,9,10
 1053 842 1053 842 967.5 760 c 128,-1,11
 882 678 882 678 857 537 c 0,0,1
1349 238 m 1,12,13
 1275 161 1275 161 1191.5 124.5 c 128,-1,14
 1108 88 1108 88 1005 88 c 0,15,16
 833 88 833 88 747 212.5 c 128,-1,17
 661 337 661 337 697 537 c 256,18,19
 732 737 732 737 862 862 c 128,-1,20
 992 987 992 987 1163 987 c 0,21,22
 1266 987 1266 987 1337.5 949.5 c 128,-1,23
 1409 912 1409 912 1454 836 c 1,24,-1
 1478 967 l 1,25,-1
 1621 967 l 1,26,-1
 1491 231 l 1,27,28
 1641 253 1641 253 1743 364.5 c 128,-1,29
 1845 476 1845 476 1876 653 c 0,30,31
 1895 760 1895 760 1880 854 c 128,-1,32
 1865 948 1865 948 1815 1028 c 0,33,34
 1734 1159 1734 1159 1597 1228.5 c 128,-1,35
 1460 1298 1460 1298 1284 1298 c 0,36,37
 1161 1298 1161 1298 1042 1265.5 c 128,-1,38
 923 1233 923 1233 816 1169 c 0,39,40
 641 1067 641 1067 523.5 901.5 c 128,-1,41
 406 736 406 736 372 543 c 0,42,43
 344 384 344 384 377 245 c 128,-1,44
 410 106 410 106 500 0 c 0,45,46
 587 -104 587 -104 715 -158.5 c 128,-1,47
 843 -213 843 -213 1000 -213 c 0,48,49
 1129 -213 1129 -213 1261.5 -169.5 c 128,-1,50
 1394 -126 1394 -126 1512 -45 c 1,51,-1
 1582 -156 l 1,52,53
 1440 -253 1440 -253 1283.5 -304.5 c 128,-1,54
 1127 -356 1127 -356 975 -356 c 0,55,56
 790 -356 790 -356 637.5 -290.5 c 128,-1,57
 485 -225 485 -225 379 -100 c 256,58,59
 273 25 273 25 235 189.5 c 128,-1,60
 197 354 197 354 231 543 c 0,61,62
 263 725 263 725 360 890 c 128,-1,63
 457 1055 457 1055 605 1180 c 0,64,65
 756 1307 756 1307 937 1374.5 c 128,-1,66
 1118 1442 1118 1442 1307 1442 c 0,67,68
 1519 1442 1519 1442 1685.5 1355 c 128,-1,69
 1852 1268 1852 1268 1946 1108 c 0,70,71
 2004 1010 2004 1010 2023.5 895 c 128,-1,72
 2043 780 2043 780 2021 657 c 0,73,74
 1974 394 1974 394 1788.5 242 c 128,-1,75
 1603 90 1603 90 1322 84 c 1,76,-1
 1349 238 l 1,12,13
EndSplineSet
EndChar
StartChar: A
Encoding: 65 65 37
Width: 1401
Flags: W
HStem: 0 21G<16 229 1174 1384> 383 168<523 1072> 1473 20G<849 1078>
Fore
928 1294 m 1,0,-1
 523 551 l 1,1,-1
 1072 551 l 1,2,-1
 928 1294 l 1,0,-1
849 1493 m 1,3,-1
 1078 1493 l 1,4,-1
 1384 0 l 1,5,-1
 1174 0 l 1,6,-1
 1106 383 l 1,7,-1
 433 383 l 1,8,-1
 229 0 l 1,9,-1
 16 0 l 1,10,-1
 849 1493 l 1,3,-1
EndSplineSet
EndChar
StartChar: B
Encoding: 66 66 38
Width: 1405
Flags: W
HStem: 0 166<432 919> 713 164<558 1049.4> 1327 166<637 980>
Fore
529 713 m 1,0,-1
 432 166 l 1,1,-1
 756 166 l 2,2,3
 919 166 919 166 1009.5 233.5 c 128,-1,4
 1100 301 1100 301 1125 440 c 0,5,6
 1149 580 1149 580 1082.5 646.5 c 128,-1,7
 1016 713 1016 713 853 713 c 2,8,-1
 529 713 l 1,0,-1
637 1327 m 1,9,-1
 558 877 l 1,10,-1
 857 877 l 2,11,12
 1005 877 1005 877 1087 932.5 c 128,-1,13
 1169 988 1169 988 1189 1102 c 0,14,15
 1209 1215 1209 1215 1146.5 1271 c 128,-1,16
 1084 1327 1084 1327 936 1327 c 2,17,-1
 637 1327 l 1,9,-1
464 1493 m 1,18,-1
 980 1493 l 2,19,20
 1211 1493 1211 1493 1319 1397 c 128,-1,21
 1427 1301 1427 1301 1396 1124 c 0,22,23
 1372 987 1372 987 1293.5 906 c 128,-1,24
 1215 825 1215 825 1088 805 c 1,25,26
 1231 773 1231 773 1296 671.5 c 128,-1,27
 1361 570 1361 570 1334 418 c 0,28,29
 1298 218 1298 218 1143 109 c 128,-1,30
 988 0 988 0 737 0 c 2,31,-1
 201 0 l 1,32,-1
 464 1493 l 1,18,-1
EndSplineSet
EndChar
StartChar: C
Encoding: 67 67 39
Width: 1430
Flags: W
HStem: -29 166<547.2 1010.6> 1354 166<762.2 1264>
Fore
1562 1378 m 1,0,-1
 1524 1165 l 1,1,2
 1439 1260 1439 1260 1332 1307 c 128,-1,3
 1225 1354 1225 1354 1095 1354 c 0,4,5
 839 1354 839 1354 675.5 1197.5 c 128,-1,6
 512 1041 512 1041 459 745 c 0,7,8
 407 450 407 450 515.5 293.5 c 128,-1,9
 624 137 624 137 880 137 c 0,10,11
 1010 137 1010 137 1134 184 c 128,-1,12
 1258 231 1258 231 1376 326 c 1,13,-1
 1339 115 l 1,14,15
 1221 43 1221 43 1096 7 c 128,-1,16
 971 -29 971 -29 839 -29 c 0,17,18
 500 -29 500 -29 341.5 178.5 c 128,-1,19
 183 386 183 386 246 745 c 0,20,21
 310 1105 310 1105 541.5 1312.5 c 128,-1,22
 773 1520 773 1520 1112 1520 c 0,23,24
 1246 1520 1246 1520 1358 1484.5 c 128,-1,25
 1470 1449 1470 1449 1562 1378 c 1,0,-1
EndSplineSet
EndChar
StartChar: D
Encoding: 68 68 40
Width: 1577
Flags: W
HStem: 0 166<432 985> 1327 166<637 881>
Fore
637 1327 m 1,0,-1
 432 166 l 1,1,-1
 676 166 l 2,2,3
 985 166 985 166 1153.5 306 c 128,-1,4
 1322 446 1322 446 1375 748 c 0,5,6
 1428 1048 1428 1048 1309 1187.5 c 128,-1,7
 1190 1327 1190 1327 881 1327 c 2,8,-1
 637 1327 l 1,0,-1
464 1493 m 1,9,-1
 879 1493 l 2,10,11
 1313 1493 1313 1493 1484.5 1312.5 c 128,-1,12
 1656 1132 1656 1132 1588 748 c 0,13,14
 1520 362 1520 362 1284 181 c 128,-1,15
 1048 0 1048 0 616 0 c 2,16,-1
 201 0 l 1,17,-1
 464 1493 l 1,9,-1
EndSplineSet
EndChar
StartChar: E
Encoding: 69 69 41
Width: 1294
Flags: W
HStem: 0 170<433 1163> 711 170<558 1239> 1323 170<636 1378>
Fore
464 1493 m 1,0,-1
 1408 1493 l 1,1,-1
 1378 1323 l 1,2,-1
 636 1323 l 1,3,-1
 558 881 l 1,4,-1
 1269 881 l 1,5,-1
 1239 711 l 1,6,-1
 528 711 l 1,7,-1
 433 170 l 1,8,-1
 1193 170 l 1,9,-1
 1163 0 l 1,10,-1
 201 0 l 1,11,-1
 464 1493 l 1,0,-1
EndSplineSet
EndChar
StartChar: F
Encoding: 70 70 42
Width: 1178
Flags: W
HStem: 0 21G<201 403> 713 170<559 1121> 1323 170<636 1292>
Fore
464 1493 m 1,0,-1
 1322 1493 l 1,1,-1
 1292 1323 l 1,2,-1
 636 1323 l 1,3,-1
 559 883 l 1,4,-1
 1151 883 l 1,5,-1
 1121 713 l 1,6,-1
 529 713 l 1,7,-1
 403 0 l 1,8,-1
 201 0 l 1,9,-1
 464 1493 l 1,0,-1
EndSplineSet
EndChar
StartChar: G
Encoding: 71 71 43
Width: 1587
Flags: W
HStem: -29 166<544.8 1049.47> 614 166<1027 1327> 1354 166<759.8 1296.7>
Fore
1257 213 m 1,0,-1
 1327 614 l 1,1,-1
 997 614 l 1,2,-1
 1027 780 l 1,3,-1
 1557 780 l 1,4,-1
 1444 139 l 1,5,6
 1312 56 1312 56 1163.5 13.5 c 128,-1,7
 1015 -29 1015 -29 855 -29 c 0,8,9
 505 -29 505 -29 343.5 175.5 c 128,-1,10
 182 380 182 380 246 745 c 0,11,12
 311 1111 311 1111 544.5 1315.5 c 128,-1,13
 778 1520 778 1520 1128 1520 c 0,14,15
 1274 1520 1274 1520 1399 1484 c 128,-1,16
 1524 1448 1524 1448 1623 1378 c 1,17,-1
 1585 1163 l 1,18,19
 1490 1258 1490 1258 1372.5 1306 c 128,-1,20
 1255 1354 1255 1354 1116 1354 c 0,21,22
 842 1354 842 1354 677.5 1201 c 128,-1,23
 513 1048 513 1048 459 745 c 0,24,25
 406 443 406 443 516.5 290 c 128,-1,26
 627 137 627 137 901 137 c 0,27,28
 1008 137 1008 137 1095.5 155.5 c 128,-1,29
 1183 174 1183 174 1257 213 c 1,0,-1
EndSplineSet
EndChar
StartChar: H
Encoding: 72 72 44
Width: 1540
Flags: W
HStem: 0 21G<201 403 1137 1339> 711 170<558 1262> 1473 20G<464 666 1400 1602>
Fore
464 1493 m 1,0,-1
 666 1493 l 1,1,-1
 558 881 l 1,2,-1
 1292 881 l 1,3,-1
 1400 1493 l 1,4,-1
 1602 1493 l 1,5,-1
 1339 0 l 1,6,-1
 1137 0 l 1,7,-1
 1262 711 l 1,8,-1
 528 711 l 1,9,-1
 403 0 l 1,10,-1
 201 0 l 1,11,-1
 464 1493 l 1,0,-1
EndSplineSet
EndChar
StartChar: I
Encoding: 73 73 45
Width: 604
Flags: W
HStem: 0 21G<201 403> 1473 20G<464 666>
VStem: 201 465<0 1493>
Fore
464 1493 m 1,0,-1
 666 1493 l 1,1,-1
 403 0 l 1,2,-1
 201 0 l 1,3,-1
 464 1493 l 1,0,-1
EndSplineSet
EndChar
StartChar: J
Encoding: 74 74 46
Width: 604
Flags: W
HStem: -410 170<-148 89.2> 1473 20G<464 666>
VStem: -178 844<-410 1493>
Fore
464 1493 m 1,0,-1
 666 1493 l 1,1,-1
 421 104 l 2,2,3
 374 -166 374 -166 250 -288 c 128,-1,4
 126 -410 126 -410 -101 -410 c 2,5,-1
 -178 -410 l 1,6,-1
 -148 -240 l 1,7,-1
 -85 -240 l 2,8,9
 49 -240 49 -240 117 -165 c 128,-1,10
 185 -90 185 -90 219 104 c 2,11,-1
 464 1493 l 1,0,-1
EndSplineSet
EndChar
StartChar: K
Encoding: 75 75 47
Width: 1343
Flags: W
HStem: 0 21G<201 403 1120 1386> 1473 20G<464 666 1336 1596>
Fore
464 1493 m 1,0,-1
 666 1493 l 1,1,-1
 555 862 l 1,2,-1
 1336 1493 l 1,3,-1
 1596 1493 l 1,4,-1
 733 797 l 1,5,-1
 1386 0 l 1,6,-1
 1120 0 l 1,7,-1
 530 719 l 1,8,-1
 403 0 l 1,9,-1
 201 0 l 1,10,-1
 464 1493 l 1,0,-1
EndSplineSet
EndChar
StartChar: L
Encoding: 76 76 48
Width: 1141
Flags: W
HStem: 0 170<433 1130> 1473 20G<464 666>
VStem: 201 959<0 170>
Fore
464 1493 m 1,0,-1
 666 1493 l 1,1,-1
 433 170 l 1,2,-1
 1160 170 l 1,3,-1
 1130 0 l 1,4,-1
 201 0 l 1,5,-1
 464 1493 l 1,0,-1
EndSplineSet
EndChar
StartChar: M
Encoding: 77 77 49
Width: 1767
Flags: W
HStem: 0 21G<201 397 1370 1567> 1473 20G<464 765 1529 1830>
Fore
464 1493 m 1,0,-1
 765 1493 l 1,1,-1
 967 477 l 1,2,-1
 1529 1493 l 1,3,-1
 1830 1493 l 1,4,-1
 1567 0 l 1,5,-1
 1370 0 l 1,6,-1
 1601 1311 l 1,7,-1
 1036 287 l 1,8,-1
 833 287 l 1,9,-1
 628 1311 l 1,10,-1
 397 0 l 1,11,-1
 201 0 l 1,12,-1
 464 1493 l 1,0,-1
EndSplineSet
EndChar
StartChar: N
Encoding: 78 78 50
Width: 1532
Flags: W
HStem: 0 21G<201 397 1059 1331> 1473 20G<464 736 1398 1594>
Fore
464 1493 m 1,0,-1
 736 1493 l 1,1,-1
 1178 244 l 1,2,-1
 1398 1493 l 1,3,-1
 1594 1493 l 1,4,-1
 1331 0 l 1,5,-1
 1059 0 l 1,6,-1
 617 1249 l 1,7,-1
 397 0 l 1,8,-1
 201 0 l 1,9,-1
 464 1493 l 1,0,-1
EndSplineSet
EndChar
StartChar: O
Encoding: 79 79 51
Width: 1612
Flags: W
HStem: -29 164<545 1117> 1356 164<760 1332>
Fore
1046 1356 m 256,0,1
 826 1356 826 1356 667.5 1192 c 128,-1,2
 509 1028 509 1028 459 745 c 0,3,4
 410 463 410 463 510.5 299 c 128,-1,5
 611 135 611 135 831 135 c 256,6,7
 1051 135 1051 135 1208.5 299 c 128,-1,8
 1366 463 1366 463 1415 745 c 0,9,10
 1465 1028 1465 1028 1365.5 1192 c 128,-1,11
 1266 1356 1266 1356 1046 1356 c 256,0,1
1075 1520 m 0,12,13
 1389 1520 1389 1520 1540 1309.5 c 128,-1,14
 1691 1099 1691 1099 1628 745 c 0,15,16
 1566 392 1566 392 1341 181.5 c 128,-1,17
 1116 -29 1116 -29 802 -29 c 0,18,19
 487 -29 487 -29 335.5 181 c 128,-1,20
 184 391 184 391 246 745 c 256,21,22
 309 1099 309 1099 534.5 1309.5 c 128,-1,23
 760 1520 760 1520 1075 1520 c 0,12,13
EndSplineSet
EndChar
StartChar: P
Encoding: 80 80 52
Width: 1235
Flags: W
HStem: 0 21G<201 403> 600 166<538 933> 1327 166<637 920>
Fore
637 1327 m 1,0,-1
 538 766 l 1,1,-1
 792 766 l 2,2,3
 933 766 933 766 1023 839 c 128,-1,4
 1113 912 1113 912 1137 1047 c 0,5,6
 1160 1181 1160 1181 1096 1254 c 128,-1,7
 1032 1327 1032 1327 891 1327 c 2,8,-1
 637 1327 l 1,0,-1
464 1493 m 1,9,-1
 920 1493 l 2,10,11
 1171 1493 1171 1493 1279.5 1379.5 c 128,-1,12
 1388 1266 1388 1266 1350 1047 c 0,13,14
 1311 826 1311 826 1162.5 713 c 128,-1,15
 1014 600 1014 600 763 600 c 2,16,-1
 509 600 l 1,17,-1
 403 0 l 1,18,-1
 201 0 l 1,19,-1
 464 1493 l 1,9,-1
EndSplineSet
EndChar
StartChar: Q
Encoding: 81 81 53
Width: 1612
Flags: W
HStem: -29 164<545 887> 1356 164<760 1332>
Fore
1046 1356 m 256,0,1
 826 1356 826 1356 667.5 1192 c 128,-1,2
 509 1028 509 1028 459 745 c 0,3,4
 410 463 410 463 510.5 299 c 128,-1,5
 611 135 611 135 831 135 c 256,6,7
 1051 135 1051 135 1208.5 299 c 128,-1,8
 1366 463 1366 463 1415 745 c 0,9,10
 1465 1028 1465 1028 1365.5 1192 c 128,-1,11
 1266 1356 1266 1356 1046 1356 c 256,0,1
1095 27 m 1,12,-1
 1309 -264 l 1,13,-1
 1065 -264 l 1,14,-1
 887 -25 l 1,15,16
 853 -27 853 -27 835.5 -28 c 128,-1,17
 818 -29 818 -29 802 -29 c 0,18,19
 487 -29 487 -29 335.5 181.5 c 128,-1,20
 184 392 184 392 246 745 c 0,21,22
 309 1099 309 1099 534.5 1309.5 c 128,-1,23
 760 1520 760 1520 1075 1520 c 0,24,25
 1389 1520 1389 1520 1540 1309.5 c 128,-1,26
 1691 1099 1691 1099 1628 745 c 0,27,28
 1583 485 1583 485 1445.5 300 c 128,-1,29
 1308 115 1308 115 1095 27 c 1,12,-1
EndSplineSet
EndChar
StartChar: R
Encoding: 82 82 54
Width: 1423
Flags: W
HStem: 0 21G<201 403 1147 1364> 631 166<544 890> 1327 166<637 1080.8>
Fore
1032 700 m 1,0,1
 1094 678 1094 678 1142.5 606 c 128,-1,2
 1191 534 1191 534 1231 408 c 2,3,-1
 1364 0 l 1,4,-1
 1147 0 l 1,5,-1
 1024 383 l 2,6,7
 976 533 976 533 915 582 c 128,-1,8
 854 631 854 631 734 631 c 2,9,-1
 514 631 l 1,10,-1
 403 0 l 1,11,-1
 201 0 l 1,12,-1
 464 1493 l 1,13,-1
 920 1493 l 2,14,15
 1176 1493 1176 1493 1283.5 1386 c 128,-1,16
 1391 1279 1391 1279 1352 1063 c 0,17,18
 1328 922 1328 922 1246 829 c 128,-1,19
 1164 736 1164 736 1032 700 c 1,0,1
637 1327 m 1,20,-1
 544 797 l 1,21,-1
 798 797 l 2,22,23
 944 797 944 797 1030 864.5 c 128,-1,24
 1116 932 1116 932 1139 1063 c 256,25,26
 1163 1194 1163 1194 1100 1260.5 c 128,-1,27
 1037 1327 1037 1327 891 1327 c 2,28,-1
 637 1327 l 1,20,-1
EndSplineSet
EndChar
StartChar: S
Encoding: 83 83 55
Width: 1300
Flags: W
HStem: -29 164<489.8 862.9> 1356 164<706.5 1044.5>
Fore
1351 1444 m 1,0,-1
 1316 1247 l 1,1,2
 1211 1302 1211 1302 1113.5 1329 c 128,-1,3
 1016 1356 1016 1356 921 1356 c 0,4,5
 756 1356 756 1356 655.5 1292 c 128,-1,6
 555 1228 555 1228 534 1110 c 0,7,8
 516 1011 516 1011 566.5 960.5 c 128,-1,9
 617 910 617 910 778 879 c 2,10,-1
 896 854 l 2,11,12
 1114 811 1114 811 1202.5 702.5 c 128,-1,13
 1291 594 1291 594 1259 412 c 0,14,15
 1220 195 1220 195 1055 83 c 128,-1,16
 890 -29 890 -29 609 -29 c 0,17,18
 503 -29 503 -29 387.5 -5 c 128,-1,19
 272 19 272 19 153 66 c 1,20,-1
 189 274 l 1,21,22
 300 205 300 205 412 170 c 128,-1,23
 524 135 524 135 638 135 c 0,24,25
 811 135 811 135 917 203 c 128,-1,26
 1023 271 1023 271 1045 397 c 0,27,28
 1064 507 1064 507 1007.5 569 c 128,-1,29
 951 631 951 631 803 662 c 2,30,-1
 684 686 l 2,31,32
 466 731 466 731 382 827 c 128,-1,33
 298 923 298 923 328 1094 c 0,34,35
 363 1292 363 1292 522.5 1406 c 128,-1,36
 682 1520 682 1520 927 1520 c 0,37,38
 1032 1520 1032 1520 1137.5 1501 c 128,-1,39
 1243 1482 1243 1482 1351 1444 c 1,0,-1
EndSplineSet
EndChar
StartChar: T
Encoding: 84 84 56
Width: 1251
Flags: W
HStem: 0 21G<524 727> 1323 170<257 757 960 1490>
Fore
257 1493 m 1,0,-1
 1520 1493 l 1,1,-1
 1490 1323 l 1,2,-1
 960 1323 l 1,3,-1
 727 0 l 1,4,-1
 524 0 l 1,5,-1
 757 1323 l 1,6,-1
 227 1323 l 1,7,-1
 257 1493 l 1,0,-1
EndSplineSet
EndChar
StartChar: U
Encoding: 85 85 57
Width: 1499
Flags: W
HStem: -29 164<520.5 1026.2> 1473 20G<441 644 1381 1584>
Fore
441 1493 m 1,0,-1
 644 1493 l 1,1,-1
 484 586 l 2,2,3
 442 346 442 346 510.5 240.5 c 128,-1,4
 579 135 579 135 774 135 c 0,5,6
 968 135 968 135 1073.5 240.5 c 128,-1,7
 1179 346 1179 346 1221 586 c 2,8,-1
 1381 1493 l 1,9,-1
 1584 1493 l 1,10,-1
 1420 561 l 2,11,12
 1368 269 1368 269 1197.5 120 c 128,-1,13
 1027 -29 1027 -29 745 -29 c 0,14,15
 462 -29 462 -29 343.5 120 c 128,-1,16
 225 269 225 269 277 561 c 2,17,-1
 441 1493 l 1,0,-1
EndSplineSet
EndChar
StartChar: V
Encoding: 86 86 58
Width: 1401
Flags: W
HStem: 0 21G<586 815> 1473 20G<279 490 1437 1647>
Fore
586 0 m 1,0,-1
 279 1493 l 1,1,-1
 490 1493 l 1,2,-1
 742 236 l 1,3,-1
 1437 1493 l 1,4,-1
 1647 1493 l 1,5,-1
 815 0 l 1,6,-1
 586 0 l 1,0,-1
EndSplineSet
EndChar
StartChar: W
Encoding: 87 87 59
Width: 2025
Flags: W
HStem: 0 21G<442 696 1329 1583> 1473 20G<331 535 1162 1389 2016 2221>
Fore
331 1493 m 1,0,-1
 535 1493 l 1,1,-1
 627 231 l 1,2,-1
 1162 1493 l 1,3,-1
 1389 1493 l 1,4,-1
 1481 231 l 1,5,-1
 2016 1493 l 1,6,-1
 2221 1493 l 1,7,-1
 1583 0 l 1,8,-1
 1329 0 l 1,9,-1
 1243 1296 l 1,10,-1
 696 0 l 1,11,-1
 442 0 l 1,12,-1
 331 1493 l 1,0,-1
EndSplineSet
EndChar
StartChar: X
Encoding: 88 88 60
Width: 1403
Flags: W
HStem: 0 21G<61 279 1122 1339> 1473 20G<392 609 1353 1570>
Fore
392 1493 m 1,0,-1
 609 1493 l 1,1,-1
 882 938 l 1,2,-1
 1353 1493 l 1,3,-1
 1570 1493 l 1,4,-1
 964 776 l 1,5,-1
 1339 0 l 1,6,-1
 1122 0 l 1,7,-1
 814 635 l 1,8,-1
 279 0 l 1,9,-1
 61 0 l 1,10,-1
 735 797 l 1,11,-1
 392 1493 l 1,0,-1
EndSplineSet
EndChar
StartChar: Y
Encoding: 89 89 61
Width: 1251
Flags: W
HStem: 0 21G<524 727> 1473 20G<259 476 1301 1518>
Fore
259 1493 m 1,0,-1
 476 1493 l 1,1,-1
 782 879 l 1,2,-1
 1301 1493 l 1,3,-1
 1518 1493 l 1,4,-1
 852 711 l 1,5,-1
 727 0 l 1,6,-1
 524 0 l 1,7,-1
 649 711 l 1,8,-1
 259 1493 l 1,0,-1
EndSplineSet
EndChar
StartChar: Z
Encoding: 90 90 62
Width: 1403
Flags: W
HStem: 0 170<374 1311> 1323 170<378 1269>
Fore
378 1493 m 1,0,-1
 1551 1493 l 1,1,-1
 1524 1339 l 1,2,-1
 374 170 l 1,3,-1
 1341 170 l 1,4,-1
 1311 0 l 1,5,-1
 92 0 l 1,6,-1
 119 154 l 1,7,-1
 1269 1323 l 1,8,-1
 348 1323 l 1,9,-1
 378 1493 l 1,0,-1
EndSplineSet
EndChar
StartChar: bracketleft
Encoding: 91 91 63
Width: 799
Flags: W
HStem: -270 143<338 552> 1413 143<609 849>
VStem: 128 746<-270 1556>
Fore
450 1556 m 1,0,-1
 874 1556 l 1,1,-1
 849 1413 l 1,2,-1
 609 1413 l 1,3,-1
 338 -127 l 1,4,-1
 578 -127 l 1,5,-1
 552 -270 l 1,6,-1
 128 -270 l 1,7,-1
 450 1556 l 1,0,-1
EndSplineSet
EndChar
StartChar: backslash
Encoding: 92 92 64
Width: 690
Flags: W
HStem: 1473 20G<263 433>
Fore
433 1493 m 1,0,-1
 656 -190 l 1,1,-1
 486 -190 l 1,2,-1
 263 1493 l 1,3,-1
 433 1493 l 1,0,-1
EndSplineSet
EndChar
StartChar: bracketright
Encoding: 93 93 65
Width: 799
Flags: W
HStem: -270 143<177 416> 1413 143<473 687>
VStem: 151 746<-270 1556>
Fore
897 1556 m 1,0,-1
 575 -270 l 1,1,-1
 151 -270 l 1,2,-1
 177 -127 l 1,3,-1
 416 -127 l 1,4,-1
 687 1413 l 1,5,-1
 448 1413 l 1,6,-1
 473 1556 l 1,7,-1
 897 1556 l 1,0,-1
EndSplineSet
EndChar
StartChar: asciicircum
Encoding: 94 94 66
Width: 1716
Flags: W
HStem: 936 557<1219 1664>
Fore
1219 1493 m 1,0,-1
 1664 936 l 1,1,-1
 1463 936 l 1,2,-1
 1093 1331 l 1,3,-1
 583 936 l 1,4,-1
 382 936 l 1,5,-1
 1023 1493 l 1,6,-1
 1219 1493 l 1,0,-1
EndSplineSet
EndChar
StartChar: underscore
Encoding: 95 95 67
Width: 1024
Flags: W
HStem: -483 143<-80 959>
Fore
984 -340 m 1,0,-1
 959 -483 l 1,1,-1
 -105 -483 l 1,2,-1
 -80 -340 l 1,3,-1
 984 -340 l 1,0,-1
EndSplineSet
EndChar
StartChar: grave
Encoding: 96 96 68
Width: 1024
Flags: W
HStem: 1264 374<656 872>
VStem: 459 413<1264 1638>
Fore
656 1638 m 1,0,-1
 872 1264 l 1,1,-1
 719 1264 l 1,2,-1
 459 1638 l 1,3,-1
 656 1638 l 1,0,-1
EndSplineSet
EndChar
StartChar: a
Encoding: 97 97 69
Width: 1255
Flags: W
HStem: -29 154<424.7 669.8> 563 144<511.1 984> 991 156<656.727 938.3>
VStem: 180 1002<326 639>
Back
205 899 m 9,0,0
 205 1069 l 17,0,0
 360 1146 360 1146 586 1147 c 0,0,0
 827.031 1149.12 827.031 1149.12 949.5 1020.5 c 128,-1,37
 1069 895 1069 895 1069 639 c 2,11,-1
 1069 0 l 1,12,-1
 885 0 l 1,13,-1
 885 170 l 1,14,15
 822 68 822 68 728 19.5 c 128,-1,16
 634 -29 634 -29 498 -29 c 0,17,18
 326 -29 326 -29 224.5 67.5 c 128,-1,19
 123 164 123 164 123 326 c 0,20,21
 123 515 123 515 249.5 611 c 128,-1,22
 376 707 376 707 627 707 c 2,23,-1
 885 707 l 1,24,-1
 885 725 l 2,25,26
 885 852 885 852 801.5 921.5 c 128,-1,27
 718.987 990.178 718.987 990.178 567 991 c 8,0,0
 392 992 392 992 205 899 c 9,0,0
702 563 m 2,0,1
 479 563 479 563 393 512 c 128,-1,2
 307 461 307 461 307 338 c 0,3,4
 307 240 307 240 371.5 182.5 c 128,-1,5
 436 125 436 125 547 125 c 0,6,7
 700 125 700 125 792.5 233.5 c 128,-1,8
 885 342 885 342 885 522 c 2,9,-1
 885 563 l 1,10,-1
 702 563 l 2,0,1
EndSplineSet
Fore
801 563 m 2,0,1
 578 563 578 563 483 512 c 128,-1,2
 388 461 388 461 367 338 c 0,3,4
 349 240 349 240 403.5 182.5 c 128,-1,5
 458 125 458 125 569 125 c 0,6,7
 722 125 722 125 833.5 233.5 c 128,-1,8
 945 342 945 342 977 522 c 2,9,-1
 984 563 l 1,10,-1
 801 563 l 2,0,1
1182 639 m 6,11,-1
 1069 0 l 1,12,-1
 885 0 l 1,13,-1
 915 170 l 1,14,15
 834 68 834 68 731.5 19.5 c 128,-1,16
 629 -29 629 -29 493 -29 c 0,17,18
 321 -29 321 -29 236.5 67.5 c 128,-1,19
 152 164 152 164 180 326 c 0,20,21
 214 515 214 515 357.5 611 c 128,-1,22
 501 707 501 707 752 707 c 2,23,-1
 1010 707 l 1,24,-1
 1013 725 l 6,25,26
 1035 852 1035 852 964 921.5 c 132,-1,27
 893 991 893 991 742 991 c 4,28,29
 646 991 646 991 551 968 c 132,-1,30
 456 945 456 945 364 899 c 5,31,-1
 393 1069 l 5,32,33
 501 1108 501 1108 599.5 1127.5 c 132,-1,34
 698 1147 698 1147 788 1147 c 4,35,36
 1031 1147 1031 1147 1129 1021 c 132,-1,37
 1227 895 1227 895 1182 639 c 6,11,-1
EndSplineSet
EndChar
StartChar: b
Encoding: 98 98 70
Width: 1300
Flags: W
HStem: -29 154<564.1 895.8> 993 154<771.1 1048.8> 1536 20G<460 645>
Fore
1096 559 m 256,0,1
 1131 762 1131 762 1068 877.5 c 128,-1,2
 1005 993 1005 993 859 993 c 256,3,4
 713 993 713 993 609 877.5 c 128,-1,5
 505 762 505 762 470 559 c 256,6,7
 434 356 434 356 497 240.5 c 128,-1,8
 560 125 560 125 706 125 c 256,9,10
 852 125 852 125 956 240.5 c 128,-1,11
 1060 356 1060 356 1096 559 c 256,0,1
539 950 m 1,12,13
 614 1050 614 1050 711 1098.5 c 128,-1,14
 808 1147 808 1147 931 1147 c 0,15,16
 1135 1147 1135 1147 1234 985 c 128,-1,17
 1333 823 1333 823 1287 559 c 256,18,19
 1240 295 1240 295 1084 133 c 128,-1,20
 928 -29 928 -29 724 -29 c 0,21,22
 601 -29 601 -29 521 19.5 c 128,-1,23
 441 68 441 68 401 168 c 1,24,-1
 371 0 l 1,25,-1
 186 0 l 1,26,-1
 460 1556 l 1,27,-1
 645 1556 l 1,28,-1
 539 950 l 1,12,13
EndSplineSet
EndChar
StartChar: c
Encoding: 99 99 71
Width: 1126
Flags: W
HStem: -29 156<473.3 795.532> 991 156<626.3 967.482>
VStem: 212 977<559 1077>
Fore
1189 1077 m 1,0,-1
 1159 905 l 1,1,2
 1088 948 1088 948 1013.5 969.5 c 128,-1,3
 939 991 939 991 859 991 c 0,4,5
 680 991 680 991 561 877.5 c 128,-1,6
 442 764 442 764 406 559 c 256,7,8
 369 354 369 354 448 240.5 c 128,-1,9
 527 127 527 127 706 127 c 0,10,11
 786 127 786 127 868.5 148.5 c 128,-1,12
 951 170 951 170 1037 213 c 1,13,-1
 1007 43 l 1,14,15
 923 7 923 7 837.5 -11 c 128,-1,16
 752 -29 752 -29 659 -29 c 0,17,18
 406 -29 406 -29 285 130 c 128,-1,19
 164 289 164 289 212 559 c 0,20,21
 260 833 260 833 438 990 c 128,-1,22
 616 1147 616 1147 878 1147 c 0,23,24
 963 1147 963 1147 1041 1129.5 c 128,-1,25
 1119 1112 1119 1112 1189 1077 c 1,0,-1
EndSplineSet
EndChar
StartChar: d
Encoding: 100 100 72
Width: 1300
Flags: W
HStem: -29 154<448.2 727.2> 993 154<601.2 934.2> 1536 20G<1204 1388>
Fore
1098 950 m 1,0,-1
 1204 1556 l 1,1,-1
 1388 1556 l 1,2,-1
 1114 0 l 1,3,-1
 930 0 l 1,4,-1
 960 168 l 1,5,6
 884 68 884 68 787 19.5 c 128,-1,7
 690 -29 690 -29 566 -29 c 0,8,9
 363 -29 363 -29 264 133 c 128,-1,10
 165 295 165 295 212 559 c 256,11,12
 258 823 258 823 414 985 c 128,-1,13
 570 1147 570 1147 773 1147 c 0,14,15
 897 1147 897 1147 977 1098.5 c 128,-1,16
 1057 1050 1057 1050 1098 950 c 1,0,-1
402 559 m 256,17,18
 366 356 366 356 429 240.5 c 128,-1,19
 492 125 492 125 638 125 c 256,20,21
 784 125 784 125 888.5 240.5 c 128,-1,22
 993 356 993 356 1029 559 c 256,23,24
 1064 762 1064 762 1000.5 877.5 c 128,-1,25
 937 993 937 993 791 993 c 256,26,27
 645 993 645 993 541 877.5 c 128,-1,28
 437 762 437 762 402 559 c 256,17,18
EndSplineSet
EndChar
StartChar: e
Encoding: 101 101 73
Width: 1260
Flags: W
HStem: -29 156<489.1 832.792> 516 144<427 1083> 991 156<638.8 1015.8>
Fore
1258 606 m 2,0,-1
 1242 516 l 1,1,-1
 396 516 l 1,2,3
 374 326 374 326 459 226.5 c 128,-1,4
 544 127 544 127 727 127 c 0,5,6
 833 127 833 127 937.5 153 c 128,-1,7
 1042 179 1042 179 1149 231 c 1,8,-1
 1118 57 l 1,9,10
 1012 15 1012 15 904 -7 c 128,-1,11
 796 -29 796 -29 689 -29 c 0,12,13
 421 -29 421 -29 292 127 c 128,-1,14
 163 283 163 283 210 549 c 0,15,16
 258 824 258 824 435 985.5 c 128,-1,17
 612 1147 612 1147 864 1147 c 0,18,19
 1090 1147 1090 1147 1196 1001.5 c 128,-1,20
 1302 856 1302 856 1258 606 c 2,0,-1
1083 660 m 1,21,22
 1108 811 1108 811 1041.5 901 c 128,-1,23
 975 991 975 991 839 991 c 0,24,25
 685 991 685 991 577 904 c 128,-1,26
 469 817 469 817 427 659 c 1,27,-1
 1083 660 l 1,21,22
EndSplineSet
EndChar
StartChar: f
Encoding: 102 102 74
Width: 721
Flags: W
HStem: 0 21G<223 408> 977 143<244 395 605 883> 1403 153<732 1007>
VStem: 219 815<977 1556>
Fore
1034 1556 m 1,0,-1
 1007 1403 l 1,1,-1
 831 1403 l 2,2,3
 732 1403 732 1403 686.5 1363 c 128,-1,4
 641 1323 641 1323 623 1219 c 2,5,-1
 605 1120 l 1,6,-1
 908 1120 l 1,7,-1
 883 977 l 1,8,-1
 580 977 l 1,9,-1
 408 0 l 1,10,-1
 223 0 l 1,11,-1
 395 977 l 1,12,-1
 219 977 l 1,13,-1
 244 1120 l 1,14,-1
 420 1120 l 1,15,-1
 434 1198 l 2,16,17
 467 1385 467 1385 569 1470.5 c 128,-1,18
 671 1556 671 1556 860 1556 c 2,19,-1
 1034 1556 l 1,0,-1
EndSplineSet
EndChar
StartChar: g
Encoding: 103 103 75
Width: 1300
Flags: W
HStem: -426 152<410.122 756.3> 0 154<450.6 732.2> 993 154<598.6 934.2>
Fore
1031 573 m 0,0,1
 1066 773 1066 773 1003 883 c 128,-1,2
 940 993 940 993 791 993 c 0,3,4
 643 993 643 993 541 883 c 128,-1,5
 439 773 439 773 404 573 c 0,6,7
 369 374 369 374 432 264 c 128,-1,8
 495 154 495 154 643 154 c 0,9,10
 792 154 792 154 894 264 c 128,-1,11
 996 374 996 374 1031 573 c 0,0,1
1139 139 m 2,12,13
 1088 -147 1088 -147 936.5 -286.5 c 128,-1,14
 785 -426 785 -426 523 -426 c 0,15,16
 426 -426 426 -426 342.5 -411.5 c 128,-1,17
 259 -397 259 -397 183 -367 c 1,18,-1
 215 -188 l 1,19,20
 288 -232 288 -232 363.5 -253 c 128,-1,21
 439 -274 439 -274 521 -274 c 0,22,23
 702 -274 702 -274 808.5 -179.5 c 128,-1,24
 915 -85 915 -85 949 106 c 2,25,-1
 965 197 l 1,26,27
 890 98 890 98 792.5 49 c 128,-1,28
 695 0 695 0 571 0 c 0,29,30
 365 0 365 0 266.5 157 c 128,-1,31
 168 314 168 314 214 573 c 0,32,33
 260 833 260 833 413.5 990 c 128,-1,34
 567 1147 567 1147 773 1147 c 0,35,36
 897 1147 897 1147 977.5 1098 c 128,-1,37
 1058 1049 1058 1049 1098 950 c 1,38,-1
 1127 1120 l 1,39,-1
 1311 1120 l 1,40,-1
 1139 139 l 2,12,13
EndSplineSet
EndChar
StartChar: h
Encoding: 104 104 76
Width: 1298
Flags: W
HStem: 0 21G<186 371 940 1124> 987 160<782.9 1027.2> 1536 20G<460 645>
Fore
1243 676 m 2,0,-1
 1124 0 l 1,1,-1
 940 0 l 1,2,-1
 1058 670 l 2,3,4
 1086 829 1086 829 1038 908 c 128,-1,5
 990 987 990 987 866 987 c 0,6,7
 717 987 717 987 614.5 892 c 128,-1,8
 512 797 512 797 483 633 c 2,9,-1
 371 0 l 1,10,-1
 186 0 l 1,11,-1
 460 1556 l 1,12,-1
 645 1556 l 1,13,-1
 538 946 l 1,14,15
 622 1047 622 1047 720 1097 c 128,-1,16
 818 1147 818 1147 935 1147 c 0,17,18
 1128 1147 1128 1147 1206 1027.5 c 128,-1,19
 1284 908 1284 908 1243 676 c 2,0,-1
EndSplineSet
EndChar
StartChar: i
Encoding: 105 105 77
Width: 569
Flags: W
HStem: 0 21G<193 377> 1100 20G<390 574> 1323 233<467 610>
VStem: 193 458<0 1556>
Fore
390 1120 m 1,0,-1
 574 1120 l 1,1,-1
 377 0 l 1,2,-1
 193 0 l 1,3,-1
 390 1120 l 1,0,-1
467 1556 m 1,4,-1
 651 1556 l 1,5,-1
 610 1323 l 1,6,-1
 426 1323 l 1,7,-1
 467 1556 l 1,4,-1
EndSplineSet
EndChar
StartChar: j
Encoding: 106 106 78
Width: 569
Flags: W
HStem: -426 156<-85 100.5> 1100 20G<390 574> 1323 233<467 610>
VStem: -112 763<-426 1556>
Fore
390 1120 m 1,0,-1
 574 1120 l 1,1,-1
 373 -20 l 2,2,3
 336 -234 336 -234 237.5 -330 c 128,-1,4
 139 -426 139 -426 -42 -426 c 2,5,-1
 -112 -426 l 1,6,-1
 -85 -270 l 1,7,-1
 -36 -270 l 2,8,9
 69 -270 69 -270 115.5 -221.5 c 128,-1,10
 162 -173 162 -173 189 -20 c 2,11,-1
 390 1120 l 1,0,-1
467 1556 m 1,12,-1
 651 1556 l 1,13,-1
 610 1323 l 1,14,-1
 426 1323 l 1,15,-1
 467 1556 l 1,12,-1
EndSplineSet
EndChar
StartChar: k
Encoding: 107 107 79
Width: 1186
Flags: W
HStem: 0 21G<186 371 940 1180> 1100 20G<1117 1352> 1536 20G<460 645>
Fore
460 1556 m 1,0,-1
 645 1556 l 1,1,-1
 483 637 l 1,2,-1
 1117 1120 l 1,3,-1
 1352 1120 l 1,4,-1
 666 596 l 1,5,-1
 1180 0 l 1,6,-1
 940 0 l 1,7,-1
 467 547 l 1,8,-1
 371 0 l 1,9,-1
 186 0 l 1,10,-1
 460 1556 l 1,0,-1
EndSplineSet
EndChar
StartChar: l
Encoding: 108 108 80
Width: 569
Flags: W
HStem: 0 21G<193 377> 1536 20G<467 651>
VStem: 193 458<0 1556>
Fore
467 1556 m 1,0,-1
 651 1556 l 1,1,-1
 377 0 l 1,2,-1
 193 0 l 1,3,-1
 467 1556 l 1,0,-1
EndSplineSet
EndChar
StartChar: m
Encoding: 109 109 81
Width: 1995
Flags: W
HStem: 0 21G<186 371 911 1096 1636 1821> 987 160<775.7 1006.7 1489 1731.1>
Fore
1225 905 m 1,0,1
 1315 1029 1315 1029 1421.5 1088 c 128,-1,2
 1528 1147 1528 1147 1658 1147 c 0,3,4
 1833 1147 1833 1147 1906.5 1024.5 c 128,-1,5
 1980 902 1980 902 1940 676 c 2,6,-1
 1821 0 l 1,7,-1
 1636 0 l 1,8,-1
 1754 670 l 2,9,10
 1783 831 1783 831 1739.5 909 c 128,-1,11
 1696 987 1696 987 1579 987 c 0,12,13
 1436 987 1436 987 1336.5 892 c 128,-1,14
 1237 797 1237 797 1208 633 c 2,15,-1
 1096 0 l 1,16,-1
 911 0 l 1,17,-1
 1029 670 l 2,18,19
 1058 832 1058 832 1014.5 909.5 c 128,-1,20
 971 987 971 987 852 987 c 0,21,22
 711 987 711 987 611 891.5 c 128,-1,23
 511 796 511 796 483 633 c 2,24,-1
 371 0 l 1,25,-1
 186 0 l 1,26,-1
 383 1120 l 1,27,-1
 568 1120 l 1,28,-1
 538 946 l 1,29,30
 619 1049 619 1049 715.5 1098 c 128,-1,31
 812 1147 812 1147 933 1147 c 0,32,33
 1055 1147 1055 1147 1129.5 1085 c 128,-1,34
 1204 1023 1204 1023 1225 905 c 1,0,1
EndSplineSet
EndChar
StartChar: n
Encoding: 110 110 82
Width: 1298
Flags: W
HStem: 0 21G<186 371 940 1124> 987 160<782.9 1027.2>
Fore
1243 676 m 2,0,-1
 1124 0 l 1,1,-1
 940 0 l 1,2,-1
 1058 670 l 2,3,4
 1086 829 1086 829 1038 908 c 128,-1,5
 990 987 990 987 866 987 c 0,6,7
 717 987 717 987 614.5 892 c 128,-1,8
 512 797 512 797 483 633 c 2,9,-1
 371 0 l 1,10,-1
 186 0 l 1,11,-1
 383 1120 l 1,12,-1
 568 1120 l 1,13,-1
 538 946 l 1,14,15
 622 1047 622 1047 720 1097 c 128,-1,16
 818 1147 818 1147 935 1147 c 0,17,18
 1128 1147 1128 1147 1206 1027.5 c 128,-1,19
 1284 908 1284 908 1243 676 c 2,0,-1
EndSplineSet
EndChar
StartChar: o
Encoding: 111 111 83
Width: 1253
Flags: W
HStem: -29 156<455.3 840.1> 991 156<609.6 993.1>
Fore
802 991 m 0,0,1
 654 991 654 991 547.5 875.5 c 128,-1,2
 441 760 441 760 406 559 c 256,3,4
 370 358 370 358 435 242.5 c 128,-1,5
 500 127 500 127 649 127 c 0,6,7
 796 127 796 127 902.5 243 c 128,-1,8
 1009 359 1009 359 1045 559 c 0,9,10
 1080 758 1080 758 1014.5 874.5 c 128,-1,11
 949 991 949 991 802 991 c 0,0,1
829 1147 m 0,12,13
 1069 1147 1069 1147 1178.5 991 c 128,-1,14
 1288 835 1288 835 1240 559 c 0,15,16
 1191 284 1191 284 1026.5 127.5 c 128,-1,17
 862 -29 862 -29 622 -29 c 0,18,19
 381 -29 381 -29 272 127.5 c 128,-1,20
 163 284 163 284 212 559 c 0,21,22
 260 835 260 835 424 991 c 128,-1,23
 588 1147 588 1147 829 1147 c 0,12,13
EndSplineSet
EndChar
StartChar: p
Encoding: 112 112 84
Width: 1300
Flags: W
HStem: -426 21G<111 296> -29 154<564.1 895.8> 993 154<771.1 1048.8>
Fore
401 168 m 1,0,-1
 296 -426 l 1,1,-1
 111 -426 l 1,2,-1
 383 1120 l 1,3,-1
 568 1120 l 1,4,-1
 539 950 l 1,5,6
 614 1050 614 1050 711 1098.5 c 128,-1,7
 808 1147 808 1147 931 1147 c 0,8,9
 1135 1147 1135 1147 1234 985 c 128,-1,10
 1333 823 1333 823 1287 559 c 256,11,12
 1240 295 1240 295 1084 133 c 128,-1,13
 928 -29 928 -29 724 -29 c 0,14,15
 601 -29 601 -29 521 19.5 c 128,-1,16
 441 68 441 68 401 168 c 1,0,-1
1096 559 m 256,17,18
 1131 762 1131 762 1068 877.5 c 128,-1,19
 1005 993 1005 993 859 993 c 256,20,21
 713 993 713 993 609 877.5 c 128,-1,22
 505 762 505 762 470 559 c 256,23,24
 434 356 434 356 497 240.5 c 128,-1,25
 560 125 560 125 706 125 c 256,26,27
 852 125 852 125 956 240.5 c 128,-1,28
 1060 356 1060 356 1096 559 c 256,17,18
EndSplineSet
EndChar
StartChar: q
Encoding: 113 113 85
Width: 1300
Flags: W
HStem: -426 21G<855 1039> -29 154<448.2 727.2> 993 154<601.2 934.2>
Fore
402 559 m 256,0,1
 366 356 366 356 429 240.5 c 128,-1,2
 492 125 492 125 638 125 c 256,3,4
 784 125 784 125 888.5 240.5 c 128,-1,5
 993 356 993 356 1029 559 c 256,6,7
 1064 762 1064 762 1000.5 877.5 c 128,-1,8
 937 993 937 993 791 993 c 256,9,10
 645 993 645 993 541 877.5 c 128,-1,11
 437 762 437 762 402 559 c 256,0,1
960 168 m 1,12,13
 884 68 884 68 787 19.5 c 128,-1,14
 690 -29 690 -29 566 -29 c 0,15,16
 363 -29 363 -29 264 133 c 128,-1,17
 165 295 165 295 212 559 c 256,18,19
 258 823 258 823 414 985 c 128,-1,20
 570 1147 570 1147 773 1147 c 0,21,22
 897 1147 897 1147 977 1098.5 c 128,-1,23
 1057 1050 1057 1050 1098 950 c 1,24,-1
 1127 1120 l 1,25,-1
 1311 1120 l 1,26,-1
 1039 -426 l 1,27,-1
 855 -426 l 1,28,-1
 960 168 l 1,12,13
EndSplineSet
EndChar
StartChar: r
Encoding: 114 114 86
Width: 842
Flags: W
HStem: 0 21G<186 371> 1100 20G<383 568> 1127 20G<883.5 959.5>
VStem: 186 855<0 1137>
Fore
1009 948 m 1,0,1
 981 966 981 966 946 974.5 c 128,-1,2
 911 983 911 983 867 983 c 0,3,4
 711 983 711 983 610 881.5 c 128,-1,5
 509 780 509 780 475 590 c 2,6,-1
 371 0 l 1,7,-1
 186 0 l 1,8,-1
 383 1120 l 1,9,-1
 568 1120 l 1,10,-1
 538 946 l 1,11,12
 614 1048 614 1048 715.5 1097.5 c 128,-1,13
 817 1147 817 1147 950 1147 c 0,14,15
 969 1147 969 1147 991.5 1144.5 c 128,-1,16
 1014 1142 1014 1142 1041 1137 c 1,17,-1
 1009 948 l 1,0,1
EndSplineSet
EndChar
StartChar: s
Encoding: 115 115 87
Width: 1067
Flags: W
HStem: -29 154<403.9 699> 993 154<567.9 870.275>
VStem: 118 981<41 1087>
Fore
1099 1087 m 1,0,-1
 1068 913 l 1,1,2
 997 953 997 953 916.5 973 c 128,-1,3
 836 993 836 993 746 993 c 0,4,5
 609 993 609 993 533 951 c 128,-1,6
 457 909 457 909 442 825 c 0,7,8
 431 761 431 761 473.5 724.5 c 128,-1,9
 516 688 516 688 658 655 c 2,10,-1
 719 641 l 2,11,12
 908 599 908 599 977 522.5 c 128,-1,13
 1046 446 1046 446 1021 309 c 0,14,15
 994 153 994 153 854.5 62 c 128,-1,16
 715 -29 715 -29 499 -29 c 0,17,18
 409 -29 409 -29 314.5 -11.5 c 128,-1,19
 220 6 220 6 118 41 c 1,20,-1
 152 231 l 1,21,22
 244 178 244 178 338.5 151.5 c 128,-1,23
 433 125 433 125 530 125 c 0,24,25
 660 125 660 125 738 169.5 c 128,-1,26
 816 214 816 214 830 295 c 0,27,28
 843 370 843 370 799.5 410 c 128,-1,29
 756 450 756 450 592 487 c 2,30,-1
 531 502 l 2,31,32
 366 538 366 538 303 612.5 c 128,-1,33
 240 687 240 687 263 817 c 0,34,35
 291 975 291 975 418 1061 c 128,-1,36
 545 1147 545 1147 751 1147 c 0,37,38
 853 1147 853 1147 940.5 1132 c 128,-1,39
 1028 1117 1028 1117 1099 1087 c 1,0,-1
EndSplineSet
EndChar
StartChar: t
Encoding: 116 116 88
Width: 803
Flags: W
HStem: 0 154<442.5 754> 977 143<252 362 572 926>
VStem: 227 724<977 1120>
Fore
629 1438 m 1,0,-1
 572 1120 l 1,1,-1
 951 1120 l 1,2,-1
 926 977 l 1,3,-1
 547 977 l 1,4,-1
 440 369 l 2,5,6
 416 232 416 232 446.5 193 c 128,-1,7
 477 154 477 154 592 154 c 2,8,-1
 781 154 l 1,9,-1
 754 0 l 1,10,-1
 565 0 l 2,11,12
 352 0 352 0 285 79.5 c 128,-1,13
 218 159 218 159 255 369 c 2,14,-1
 362 977 l 1,15,-1
 227 977 l 1,16,-1
 252 1120 l 1,17,-1
 387 1120 l 1,18,-1
 444 1438 l 1,19,-1
 629 1438 l 1,0,-1
EndSplineSet
EndChar
StartChar: u
Encoding: 117 117 89
Width: 1298
Flags: W
HStem: -29 160<467.8 714.1> 1100 20G<371 555 1125 1309>
Fore
252 442 m 2,0,-1
 371 1120 l 1,1,-1
 555 1120 l 1,2,-1
 437 449 l 2,3,4
 409 290 409 290 457 210.5 c 128,-1,5
 505 131 505 131 629 131 c 0,6,7
 778 131 778 131 881.5 226 c 128,-1,8
 985 321 985 321 1014 485 c 2,9,-1
 1125 1120 l 1,10,-1
 1309 1120 l 1,11,-1
 1112 0 l 1,12,-1
 928 0 l 1,13,-1
 958 172 l 1,14,15
 873 70 873 70 776 20.5 c 128,-1,16
 679 -29 679 -29 562 -29 c 0,17,18
 369 -29 369 -29 290 91 c 128,-1,19
 211 211 211 211 252 442 c 2,0,-1
EndSplineSet
EndChar
StartChar: v
Encoding: 118 118 90
Width: 1212
Flags: W
HStem: 0 21G<481 731> 1100 20G<258 453 1153 1348>
Fore
258 1120 m 1,0,-1
 453 1120 l 1,1,-1
 638 180 l 1,2,-1
 1153 1120 l 1,3,-1
 1348 1120 l 1,4,-1
 731 0 l 1,5,-1
 481 0 l 1,6,-1
 258 1120 l 1,0,-1
EndSplineSet
EndChar
StartChar: w
Encoding: 119 119 91
Width: 1675
Flags: W
HStem: 0 21G<379 596 1079 1296> 1100 20G<283 467 926 1143 1602 1786>
Fore
283 1120 m 1,0,-1
 467 1120 l 1,1,-1
 543 246 l 1,2,-1
 926 1120 l 1,3,-1
 1143 1120 l 1,4,-1
 1219 246 l 1,5,-1
 1602 1120 l 1,6,-1
 1786 1120 l 1,7,-1
 1296 0 l 1,8,-1
 1079 0 l 1,9,-1
 1000 918 l 1,10,-1
 596 0 l 1,11,-1
 379 0 l 1,12,-1
 283 1120 l 1,0,-1
EndSplineSet
EndChar
StartChar: x
Encoding: 120 120 92
Width: 1212
Flags: W
HStem: 0 21G<59 276 928 1145> 1100 20G<293 510 1104 1321>
Fore
1321 1120 m 1,0,-1
 820 575 l 1,1,-1
 1145 0 l 1,2,-1
 928 0 l 1,3,-1
 680 440 l 1,4,-1
 276 0 l 1,5,-1
 59 0 l 1,6,-1
 597 586 l 1,7,-1
 293 1120 l 1,8,-1
 510 1120 l 1,9,-1
 737 721 l 1,10,-1
 1104 1120 l 1,11,-1
 1321 1120 l 1,0,-1
EndSplineSet
EndChar
StartChar: y
Encoding: 121 121 93
Width: 1212
Flags: W
HStem: -426 154<114 298> 1100 20G<258 453 1153 1348>
Fore
641 -104 m 2,0,1
 527 -304 527 -304 442.5 -365 c 128,-1,2
 358 -426 358 -426 234 -426 c 2,3,-1
 87 -426 l 1,4,-1
 114 -272 l 1,5,-1
 222 -272 l 2,6,7
 298 -272 298 -272 346.5 -236 c 128,-1,8
 395 -200 395 -200 469 -66 c 2,9,-1
 517 18 l 1,10,-1
 258 1120 l 1,11,-1
 453 1120 l 1,12,-1
 649 244 l 1,13,-1
 1153 1120 l 1,14,-1
 1348 1120 l 1,15,-1
 641 -104 l 2,0,1
EndSplineSet
EndChar
StartChar: z
Encoding: 122 122 94
Width: 1075
Flags: W
HStem: 0 147<321 987> 973 147<310 952>
Fore
310 1120 m 1,0,-1
 1184 1120 l 1,1,-1
 1155 952 l 1,2,-1
 321 147 l 1,3,-1
 1013 147 l 1,4,-1
 987 0 l 1,5,-1
 88 0 l 1,6,-1
 118 168 l 1,7,-1
 952 973 l 1,8,-1
 285 973 l 1,9,-1
 310 1120 l 1,0,-1
EndSplineSet
EndChar
StartChar: braceleft
Encoding: 123 123 95
Width: 1303
Flags: W
HStem: -334 144<804 988> 541 143<377 596.6> 1413 143<1044.7 1296>
VStem: 351 970<541 1556>
Fore
1013 -190 m 1,0,-1
 988 -334 l 1,1,-1
 926 -334 l 2,2,3
 677 -334 677 -334 605.5 -260 c 128,-1,4
 534 -186 534 -186 573 35 c 2,5,-1
 615 274 l 2,6,7
 642 425 642 425 598 483 c 128,-1,8
 554 541 554 541 412 541 c 2,9,-1
 351 541 l 1,10,-1
 377 684 l 1,11,-1
 438 684 l 2,12,13
 581 684 581 684 644.5 741.5 c 128,-1,14
 708 799 708 799 734 948 c 2,15,-1
 776 1188 l 2,16,17
 815 1409 815 1409 912.5 1482.5 c 128,-1,18
 1010 1556 1010 1556 1259 1556 c 2,19,-1
 1321 1556 l 1,20,-1
 1296 1413 l 1,21,-1
 1228 1413 l 2,22,23
 1087 1413 1087 1413 1036.5 1369 c 128,-1,24
 986 1325 986 1325 961 1184 c 2,25,-1
 917 936 l 2,26,27
 889 779 889 779 831 708 c 128,-1,28
 773 637 773 637 659 612 c 1,29,30
 765 585 765 585 797.5 514 c 128,-1,31
 830 443 830 443 803 287 c 2,32,-1
 759 39 l 2,33,34
 734 -102 734 -102 769 -146 c 128,-1,35
 804 -190 804 -190 945 -190 c 2,36,-1
 1013 -190 l 1,0,-1
EndSplineSet
EndChar
StartChar: bar
Encoding: 124 124 96
Width: 690
Flags: W
VStem: 175 531<-483 1565>
Fore
706 1565 m 1,0,-1
 345 -483 l 1,1,-1
 175 -483 l 1,2,-1
 536 1565 l 1,3,-1
 706 1565 l 1,0,-1
EndSplineSet
EndChar
StartChar: braceright
Encoding: 125 125 97
Width: 1303
Flags: W
HStem: -334 144<222 432> 541 143<921.4 1142> 1413 143<530 757>
VStem: 197 971<-334 684>
Fore
222 -190 m 1,0,-1
 292 -190 l 2,1,2
 432 -190 432 -190 482.5 -147 c 128,-1,3
 533 -104 533 -104 558 39 c 2,4,-1
 602 287 l 2,5,6
 629 443 629 443 686.5 514 c 128,-1,7
 744 585 744 585 860 612 c 1,8,9
 753 637 753 637 720.5 708 c 128,-1,10
 688 779 688 779 716 936 c 2,11,-1
 760 1184 l 2,12,13
 785 1326 785 1326 750 1369.5 c 128,-1,14
 715 1413 715 1413 575 1413 c 2,15,-1
 505 1413 l 1,16,-1
 530 1556 l 1,17,-1
 593 1556 l 2,18,19
 842 1556 842 1556 912.5 1482.5 c 128,-1,20
 983 1409 983 1409 944 1188 c 2,21,-1
 902 948 l 2,22,23
 876 799 876 799 920 741.5 c 128,-1,24
 964 684 964 684 1106 684 c 2,25,-1
 1168 684 l 1,26,-1
 1142 541 l 1,27,-1
 1080 541 l 2,28,29
 938 541 938 541 874 483 c 128,-1,30
 810 425 810 425 783 274 c 2,31,-1
 741 35 l 2,32,33
 702 -186 702 -186 605.5 -260 c 128,-1,34
 509 -334 509 -334 260 -334 c 2,35,-1
 197 -334 l 1,36,-1
 222 -190 l 1,0,-1
EndSplineSet
EndChar
StartChar: asciitilde
Encoding: 126 126 98
Width: 1716
Flags: W
HStem: 492 165<1134.8 1331.1> 627 166<611.9 808.2>
Fore
1643 817 m 1,0,-1
 1612 639 l 1,1,2
 1493 560 1493 560 1397.5 526 c 128,-1,3
 1302 492 1302 492 1205 492 c 0,4,5
 1095 492 1095 492 959 551 c 0,6,7
 949 555 949 555 944 557 c 0,8,9
 938 560 938 560 924 565 c 0,10,11
 780 627 780 627 686 627 c 0,12,13
 598 627 598 627 505 588.5 c 128,-1,14
 412 550 412 550 299 467 c 1,15,-1
 331 645 l 1,16,17
 450 724 450 724 545.5 758.5 c 128,-1,18
 641 793 641 793 738 793 c 0,19,20
 848 793 848 793 984 733 c 0,21,22
 994 729 994 729 998 727 c 0,23,24
 1006 724 1006 724 1019 719 c 0,25,26
 1163 657 1163 657 1257 657 c 0,27,28
 1343 657 1343 657 1434 695 c 128,-1,29
 1525 733 1525 733 1643 817 c 1,0,-1
EndSplineSet
EndChar
StartChar: exclamdown
Encoding: 161 161 100
Width: 821
Flags: W
HStem: 0 21G<309 512> 1239 254<572 730>
VStem: 309 466<0 1493>
Fore
730 1239 m 1,0,-1
 527 1239 l 1,1,-1
 572 1493 l 1,2,-1
 775 1493 l 1,3,-1
 730 1239 l 1,0,-1
512 0 m 1,4,-1
 309 0 l 1,5,-1
 424 655 l 1,6,-1
 508 1012 l 1,7,-1
 670 1012 l 1,8,-1
 627 655 l 1,9,-1
 512 0 l 1,4,-1
EndSplineSet
EndChar
StartChar: cent
Encoding: 162 162 101
Width: 1303
Flags: W
VStem: 271 978<559 1077>
Fore
701 131 m 1,0,-1
 852 987 l 1,1,2
 702 969 702 969 600 856 c 128,-1,3
 498 743 498 743 466 559 c 0,4,5
 433 374 433 374 495 261 c 128,-1,6
 557 148 557 148 701 131 c 1,0,-1
1249 1077 m 1,7,-1
 1219 905 l 1,8,9
 1152 946 1152 946 1087.5 967 c 128,-1,10
 1023 988 1023 988 956 991 c 1,11,-1
 802 127 l 1,12,13
 873 132 873 132 945.5 153 c 128,-1,14
 1018 174 1018 174 1097 213 c 1,15,-1
 1067 43 l 1,16,17
 996 13 996 13 924.5 -4.5 c 128,-1,18
 853 -22 853 -22 775 -29 c 1,19,-1
 725 -313 l 1,20,-1
 623 -313 l 1,21,-1
 674 -25 l 1,22,23
 436 -5 436 -5 330.5 148.5 c 128,-1,24
 225 302 225 302 271 559 c 0,25,26
 316 817 316 817 475.5 970 c 128,-1,27
 635 1123 635 1123 880 1145 c 1,28,-1
 930 1432 l 1,29,-1
 1032 1432 l 1,30,-1
 983 1145 l 1,31,32
 1055 1141 1055 1141 1120.5 1124.5 c 128,-1,33
 1186 1108 1186 1108 1249 1077 c 1,7,-1
EndSplineSet
EndChar
StartChar: sterling
Encoding: 163 163 102
Width: 1303
Flags: W
HStem: 0 170<159 395 595 1122> 635 143<303 477 702 1068> 1360 160<876.6 1157.1>
Fore
1359 1460 m 1,0,-1
 1327 1278 l 1,1,2
 1259 1319 1259 1319 1194.5 1339.5 c 128,-1,3
 1130 1360 1130 1360 1069 1360 c 0,4,5
 921 1360 921 1360 849 1282.5 c 128,-1,6
 777 1205 777 1205 740 993 c 2,7,-1
 702 778 l 1,8,-1
 1093 778 l 1,9,-1
 1068 635 l 1,10,-1
 677 635 l 1,11,-1
 595 170 l 1,12,-1
 1152 170 l 1,13,-1
 1122 0 l 1,14,-1
 129 0 l 1,15,-1
 159 170 l 1,16,-1
 395 170 l 1,17,-1
 477 635 l 1,18,-1
 278 635 l 1,19,-1
 303 778 l 1,20,-1
 502 778 l 1,21,-1
 544 1016 l 2,22,23
 590 1277 590 1277 718.5 1398.5 c 128,-1,24
 847 1520 847 1520 1079 1520 c 0,25,26
 1140 1520 1140 1520 1213 1504.5 c 128,-1,27
 1286 1489 1286 1489 1359 1460 c 1,0,-1
EndSplineSet
EndChar
StartChar: currency
Encoding: 164 164 103
Width: 1303
Flags: W
HStem: 215 158<615.6 780.418> 909 158<748.634 919>
Fore
1066 993 m 1,0,-1
 1310 1202 l 1,1,-1
 1404 1087 l 1,2,-1
 1161 881 l 1,3,4
 1188 822 1188 822 1195.5 762.5 c 128,-1,5
 1203 703 1203 703 1192 641 c 0,6,7
 1181 578 1181 578 1152 520.5 c 128,-1,8
 1123 463 1123 463 1073 406 c 1,9,-1
 1245 199 l 1,10,-1
 1111 86 l 1,11,-1
 941 293 l 1,12,13
 875 253 875 253 813.5 234 c 128,-1,14
 752 215 752 215 691 215 c 0,15,16
 633 215 633 215 576 233.5 c 128,-1,17
 519 252 519 252 465 289 c 1,18,-1
 221 82 l 1,19,-1
 129 197 l 1,20,-1
 372 403 l 1,21,22
 346 465 346 465 338 524 c 128,-1,23
 330 583 330 583 340 641 c 0,24,25
 351 705 351 705 380.5 763 c 128,-1,26
 410 821 410 821 458 877 c 1,27,-1
 287 1083 l 1,28,-1
 422 1198 l 1,29,-1
 593 991 l 1,30,31
 655 1030 655 1030 716 1048.5 c 128,-1,32
 777 1067 777 1067 841 1067 c 0,33,34
 901 1067 901 1067 956.5 1049 c 128,-1,35
 1012 1031 1012 1031 1066 993 c 1,0,-1
1035 643 m 0,36,37
 1055 755 1055 755 991 832 c 128,-1,38
 927 909 927 909 813 909 c 0,39,40
 701 909 701 909 608.5 832 c 128,-1,41
 516 755 516 755 496 643 c 0,42,43
 476 529 476 529 541 451 c 128,-1,44
 606 373 606 373 719 373 c 256,45,46
 832 373 832 373 923.5 451.5 c 128,-1,47
 1015 530 1015 530 1035 643 c 0,36,37
EndSplineSet
EndChar
StartChar: yen
Encoding: 165 165 104
Width: 1303
Flags: W
HStem: 0 21G<551 752> 455 123<237 631 852 1245> 784 123<295 559 1061 1303> 1473 20G<345 535 1291 1482>
Fore
1245 455 m 1,0,-1
 832 455 l 1,1,-1
 752 0 l 1,2,-1
 551 0 l 1,3,-1
 631 455 l 1,4,-1
 215 455 l 1,5,-1
 237 578 l 1,6,-1
 653 578 l 1,7,-1
 662 629 l 1,8,-1
 605 784 l 1,9,-1
 273 784 l 1,10,-1
 295 907 l 1,11,-1
 559 907 l 1,12,-1
 345 1493 l 1,13,-1
 535 1493 l 1,14,-1
 791 793 l 1,15,-1
 1291 1493 l 1,16,-1
 1482 1493 l 1,17,-1
 1061 907 l 1,18,-1
 1325 907 l 1,19,-1
 1303 784 l 1,20,-1
 972 784 l 1,21,-1
 861 629 l 1,22,-1
 852 578 l 1,23,-1
 1267 578 l 1,24,-1
 1245 455 l 1,0,-1
EndSplineSet
EndChar
StartChar: brokenbar
Encoding: 166 166 105
Width: 690
Flags: W
VStem: 198 484<-350 1432>
Fore
502 408 m 1,0,-1
 368 -350 l 1,1,-1
 198 -350 l 1,2,-1
 332 408 l 1,3,-1
 502 408 l 1,0,-1
682 1432 m 1,4,-1
 549 674 l 1,5,-1
 379 674 l 1,6,-1
 512 1432 l 1,7,-1
 682 1432 l 1,4,-1
EndSplineSet
EndChar
StartChar: section
Encoding: 167 167 106
Width: 1024
Flags: W
HStem: -195 144<368.671 588.6> 1376 144<663.9 874.291>
VStem: 148 939<-137 1462>
Fore
544 936 m 1,0,1
 473 890 473 890 434 845 c 128,-1,2
 395 800 395 800 387 754 c 0,3,4
 374 678 374 678 431.5 611.5 c 128,-1,5
 489 545 489 545 715 410 c 1,6,7
 786 455 786 455 825 500.5 c 128,-1,8
 864 546 864 546 872 592 c 0,9,10
 886 667 886 667 826.5 735 c 128,-1,11
 767 803 767 803 544 936 c 1,0,1
1087 1462 m 1,12,-1
 1058 1298 l 1,13,14
 982 1337 982 1337 914 1356.5 c 128,-1,15
 846 1376 846 1376 790 1376 c 0,16,17
 693 1376 693 1376 632 1336 c 128,-1,18
 571 1296 571 1296 558 1225 c 0,19,20
 542 1135 542 1135 728 1020 c 0,21,22
 751 1005 751 1005 764 997 c 0,23,24
 954 878 954 878 1006 801 c 128,-1,25
 1058 724 1058 724 1040 623 c 0,26,27
 1024 533 1024 533 965.5 463 c 128,-1,28
 907 393 907 393 805 340 c 1,29,30
 858 288 858 288 877 233.5 c 128,-1,31
 896 179 896 179 884 115 c 0,32,33
 859 -27 859 -27 742.5 -111 c 128,-1,34
 626 -195 626 -195 453 -195 c 0,35,36
 380 -195 380 -195 305.5 -180.5 c 128,-1,37
 231 -166 231 -166 148 -137 c 1,38,-1
 177 27 l 1,39,40
 257 -12 257 -12 327.5 -31.5 c 128,-1,41
 398 -51 398 -51 456 -51 c 0,42,43
 558 -51 558 -51 622 -9 c 128,-1,44
 686 33 686 33 699 109 c 0,45,46
 717 211 717 211 518 334 c 2,47,-1
 495 348 l 2,48,49
 303 468 303 468 252 544.5 c 128,-1,50
 201 621 201 621 219 723 c 0,51,52
 236 814 236 814 295 885.5 c 128,-1,53
 354 957 354 957 453 1006 c 1,54,55
 402 1050 402 1050 382.5 1106 c 128,-1,56
 363 1162 363 1162 375 1231 c 0,57,58
 398 1361 398 1361 512 1440.5 c 128,-1,59
 626 1520 626 1520 792 1520 c 0,60,61
 865 1520 865 1520 939 1505.5 c 128,-1,62
 1013 1491 1013 1491 1087 1462 c 1,12,-1
EndSplineSet
EndChar
StartChar: dieresis
Encoding: 168 168 107
Width: 1024
Flags: W
HStem: 1350 202<489 656 880 1047>
VStem: 453 630<1350 1552>
Fore
880 1552 m 1,0,-1
 1083 1552 l 1,1,-1
 1047 1350 l 1,2,-1
 844 1350 l 1,3,-1
 880 1552 l 1,0,-1
489 1552 m 1,4,-1
 692 1552 l 1,5,-1
 656 1350 l 1,6,-1
 453 1350 l 1,7,-1
 489 1552 l 1,4,-1
EndSplineSet
EndChar
StartChar: copyright
Encoding: 169 169 108
Width: 2048
Flags: W
HStem: 0 102<871.7 1213.6> 289 119<941.5 1220> 1073 119<1056.3 1352.88> 1382 103<1097.7 1439.6>
Fore
1286 1485 m 256,0,1
 1438 1485 1438 1485 1559.5 1430 c 128,-1,2
 1681 1375 1681 1375 1771 1266 c 256,3,4
 1861 1157 1861 1157 1892 1026 c 128,-1,5
 1923 895 1923 895 1896 741 c 0,6,7
 1869 589 1869 589 1792 458.5 c 128,-1,8
 1715 328 1715 328 1587 219 c 256,9,10
 1458 110 1458 110 1317 55 c 128,-1,11
 1176 0 1176 0 1024 0 c 256,12,13
 872 0 872 0 750 55 c 128,-1,14
 628 110 628 110 539 219 c 256,15,16
 449 328 449 328 418 458.5 c 128,-1,17
 387 589 387 589 414 741 c 0,18,19
 441 895 441 895 518 1026 c 128,-1,20
 595 1157 595 1157 723 1266 c 256,21,22
 851 1375 851 1375 992.5 1430 c 128,-1,23
 1134 1485 1134 1485 1286 1485 c 256,0,1
1268 1382 m 0,24,25
 1137 1382 1137 1382 1015.5 1335 c 128,-1,26
 894 1288 894 1288 784 1194 c 256,27,28
 673 1100 673 1100 605 985.5 c 128,-1,29
 537 871 537 871 514 741 c 0,30,31
 491 612 491 612 519 498.5 c 128,-1,32
 547 385 547 385 624 291 c 256,33,34
 702 197 702 197 806.5 149.5 c 128,-1,35
 911 102 911 102 1042 102 c 0,36,37
 1174 102 1174 102 1296 149.5 c 128,-1,38
 1418 197 1418 197 1528 291 c 0,39,40
 1638 384 1638 384 1704.5 497 c 128,-1,41
 1771 610 1771 610 1794 741 c 0,42,43
 1817 874 1817 874 1790 987.5 c 128,-1,44
 1763 1101 1763 1101 1688 1194 c 0,45,46
 1610 1288 1610 1288 1505 1335 c 128,-1,47
 1400 1382 1400 1382 1268 1382 c 0,24,25
1523 1137 m 1,48,-1
 1501 1008 l 1,49,50
 1441 1041 1441 1041 1378.5 1057 c 128,-1,51
 1316 1073 1316 1073 1250 1073 c 0,52,53
 1101 1073 1101 1073 1002 985.5 c 128,-1,54
 903 898 903 898 876 741 c 0,55,56
 848 582 848 582 918 495 c 128,-1,57
 988 408 988 408 1143 408 c 0,58,59
 1207 408 1207 408 1270.5 423.5 c 128,-1,60
 1334 439 1334 439 1406 473 c 1,61,-1
 1384 346 l 1,62,63
 1312 317 1312 317 1241 303 c 128,-1,64
 1170 289 1170 289 1100 289 c 0,65,66
 884 289 884 289 780 411 c 128,-1,67
 676 533 676 533 713 741 c 0,68,69
 750 950 750 950 896.5 1071 c 128,-1,70
 1043 1192 1043 1192 1259 1192 c 0,71,72
 1332 1192 1332 1192 1397.5 1178 c 128,-1,73
 1463 1164 1463 1164 1523 1137 c 1,48,-1
EndSplineSet
EndChar
StartChar: ordfeminine
Encoding: 170 170 109
Width: 965
Flags: W
HStem: 469 123<243 910> 698 119<479.4 638.9> 1104 115<534.7 871> 1405 115<609.91 842.1>
VStem: 222 808<469 1165>
Fore
243 592 m 1,0,-1
 931 592 l 1,1,-1
 910 469 l 1,2,-1
 222 469 l 1,3,-1
 243 592 l 1,0,-1
1030 1165 m 2,4,-1
 951 717 l 1,5,-1
 802 717 l 1,6,-1
 822 829 l 1,7,8
 767 766 767 766 689 732 c 128,-1,9
 611 698 611 698 518 698 c 0,10,11
 390 698 390 698 326 765.5 c 128,-1,12
 262 833 262 833 282 946 c 0,13,14
 306 1081 306 1081 413.5 1150 c 128,-1,15
 521 1219 521 1219 709 1219 c 2,16,-1
 891 1219 l 1,17,-1
 892 1223 l 2,18,19
 908 1314 908 1314 857.5 1359.5 c 128,-1,20
 807 1405 807 1405 690 1405 c 0,21,22
 628 1405 628 1405 557 1388 c 128,-1,23
 486 1371 486 1371 412 1337 c 1,24,-1
 434 1464 l 1,25,26
 512 1492 512 1492 587 1506 c 128,-1,27
 662 1520 662 1520 731 1520 c 0,28,29
 914 1520 914 1520 988 1432 c 128,-1,30
 1062 1344 1062 1344 1030 1165 c 2,4,-1
744 1104 m 2,31,32
 583 1104 583 1104 514 1070.5 c 128,-1,33
 445 1037 445 1037 431 958 c 0,34,35
 420 894 420 894 462 855.5 c 128,-1,36
 504 817 504 817 586 817 c 0,37,38
 690 817 690 817 767.5 889 c 128,-1,39
 845 961 845 961 866 1075 c 2,40,-1
 871 1104 l 1,41,-1
 744 1104 l 2,31,32
EndSplineSet
EndChar
StartChar: guillemotleft
Encoding: 171 171 110
Width: 1253
Flags: W
HStem: 141 918<1086 1248>
VStem: 257 991<559 1059>
Fore
1248 1059 m 1,0,-1
 1214 868 l 1,1,-1
 866 600 l 1,2,-1
 1120 332 l 1,3,-1
 1086 141 l 1,4,-1
 691 559 l 1,5,-1
 705 641 l 1,6,-1
 1248 1059 l 1,0,-1
814 1059 m 1,7,-1
 780 868 l 1,8,-1
 432 600 l 1,9,-1
 686 332 l 1,10,-1
 652 141 l 1,11,-1
 257 559 l 1,12,-1
 271 641 l 1,13,-1
 814 1059 l 1,7,-1
EndSplineSet
EndChar
StartChar: logicalnot
Encoding: 172 172 111
Width: 1716
Flags: W
HStem: 692 170<369 1453>
Fore
369 862 m 1,0,-1
 1651 862 l 1,1,-1
 1550 287 l 1,2,-1
 1382 287 l 1,3,-1
 1453 692 l 1,4,-1
 339 692 l 1,5,-1
 369 862 l 1,0,-1
EndSplineSet
EndChar
StartChar: uni00AD
Encoding: 173 173 112
Width: 739
Flags: W
HStem: 479 164<213 723>
VStem: 184 568<479 643>
Fore
213 643 m 1,0,-1
 752 643 l 1,1,-1
 723 479 l 1,2,-1
 184 479 l 1,3,-1
 213 643 l 1,0,-1
EndSplineSet
EndChar
StartChar: registered
Encoding: 174 174 113
Width: 2048
Flags: W
HStem: 0 102<871.7 1213.6> 694 101<1014 1116> 1071 103<1063 1327.7> 1382 103<1097.7 1439.6>
Fore
1268 1382 m 0,0,1
 1137 1382 1137 1382 1015.5 1335 c 128,-1,2
 894 1288 894 1288 784 1194 c 256,3,4
 673 1100 673 1100 605 985.5 c 128,-1,5
 537 871 537 871 514 741 c 0,6,7
 491 612 491 612 519 498.5 c 128,-1,8
 547 385 547 385 624 291 c 256,9,10
 702 197 702 197 806.5 149.5 c 128,-1,11
 911 102 911 102 1042 102 c 0,12,13
 1174 102 1174 102 1296 149.5 c 128,-1,14
 1418 197 1418 197 1528 291 c 0,15,16
 1638 384 1638 384 1704.5 497 c 128,-1,17
 1771 610 1771 610 1794 741 c 0,18,19
 1817 874 1817 874 1790 987.5 c 128,-1,20
 1763 1101 1763 1101 1688 1194 c 0,21,22
 1610 1288 1610 1288 1505 1335 c 128,-1,23
 1400 1382 1400 1382 1268 1382 c 0,0,1
1286 1485 m 256,24,25
 1438 1485 1438 1485 1559.5 1430 c 128,-1,26
 1681 1375 1681 1375 1771 1266 c 256,27,28
 1861 1157 1861 1157 1892 1026 c 128,-1,29
 1923 895 1923 895 1896 741 c 0,30,31
 1869 589 1869 589 1792 458.5 c 128,-1,32
 1715 328 1715 328 1587 219 c 256,33,34
 1458 110 1458 110 1317 55 c 128,-1,35
 1176 0 1176 0 1024 0 c 256,36,37
 872 0 872 0 750 55 c 128,-1,38
 628 110 628 110 539 219 c 256,39,40
 449 328 449 328 418 458.5 c 128,-1,41
 387 589 387 589 414 741 c 0,42,43
 441 895 441 895 518 1026 c 128,-1,44
 595 1157 595 1157 723 1266 c 256,45,46
 851 1375 851 1375 992.5 1430 c 128,-1,47
 1134 1485 1134 1485 1286 1485 c 256,24,25
1186 1071 m 2,48,-1
 1063 1071 l 1,49,-1
 1014 795 l 1,50,-1
 1137 795 l 2,51,52
 1247 795 1247 795 1296 826 c 128,-1,53
 1345 857 1345 857 1358 932 c 0,54,55
 1372 1008 1372 1008 1333.5 1039.5 c 128,-1,56
 1295 1071 1295 1071 1186 1071 c 2,48,-1
1211 1174 m 2,57,58
 1387 1174 1387 1174 1463.5 1114.5 c 128,-1,59
 1540 1055 1540 1055 1519 934 c 0,60,61
 1504 848 1504 848 1441.5 792 c 128,-1,62
 1379 736 1379 736 1280 719 c 1,63,64
 1302 711 1302 711 1329 672.5 c 128,-1,65
 1356 634 1356 634 1389 561 c 2,66,-1
 1487 338 l 1,67,-1
 1315 338 l 1,68,-1
 1222 547 l 2,69,70
 1180 643 1180 643 1148 668.5 c 128,-1,71
 1116 694 1116 694 1062 694 c 2,72,-1
 996 694 l 1,73,-1
 934 338 l 1,74,-1
 779 338 l 1,75,-1
 926 1174 l 1,76,-1
 1211 1174 l 2,57,58
EndSplineSet
EndChar
StartChar: macron
Encoding: 175 175 114
Width: 1024
Flags: W
HStem: 1378 148<482 1054>
VStem: 456 624<1378 1526>
Fore
482 1526 m 1,0,-1
 1080 1526 l 1,1,-1
 1054 1378 l 1,2,-1
 456 1378 l 1,3,-1
 482 1526 l 1,0,-1
EndSplineSet
EndChar
StartChar: degree
Encoding: 176 176 115
Width: 1024
Flags: W
HStem: 885 127<586 794> 1391 129<653 859.7>
VStem: 407 634<1156.07 1246.53 1200 1200>
Fore
757 1391 m 0,0,1
 677 1391 677 1391 612.5 1335.5 c 128,-1,2
 548 1280 548 1280 534 1200 c 0,3,4
 520 1121 520 1121 565 1066.5 c 128,-1,5
 610 1012 610 1012 690 1012 c 256,6,7
 770 1012 770 1012 835 1066.5 c 128,-1,8
 900 1121 900 1121 914 1200 c 256,9,10
 928 1279 928 1279 882 1335 c 128,-1,11
 836 1391 836 1391 757 1391 c 0,0,1
780 1520 m 0,12,13
 844 1520 844 1520 898.5 1495.5 c 128,-1,14
 953 1471 953 1471 988 1425 c 0,15,16
 1026 1380 1026 1380 1039 1323 c 128,-1,17
 1052 1266 1052 1266 1041 1200 c 0,18,19
 1017 1068 1017 1068 908.5 976.5 c 128,-1,20
 800 885 800 885 666 885 c 0,21,22
 531 885 531 885 457 975 c 128,-1,23
 383 1065 383 1065 407 1200 c 0,24,25
 430 1334 430 1334 538.5 1427 c 128,-1,26
 647 1520 647 1520 780 1520 c 0,12,13
EndSplineSet
EndChar
StartChar: plusminus
Encoding: 177 177 116
Width: 1716
Flags: W
HStem: 0 170<247 1499> 727 170<375 902 1100 1627>
Fore
1168 1284 m 1,0,-1
 1100 897 l 1,1,-1
 1657 897 l 1,2,-1
 1627 727 l 1,3,-1
 1070 727 l 1,4,-1
 1002 340 l 1,5,-1
 834 340 l 1,6,-1
 902 727 l 1,7,-1
 345 727 l 1,8,-1
 375 897 l 1,9,-1
 932 897 l 1,10,-1
 1000 1284 l 1,11,-1
 1168 1284 l 1,0,-1
247 170 m 1,12,-1
 1529 170 l 1,13,-1
 1499 0 l 1,14,-1
 217 0 l 1,15,-1
 247 170 l 1,12,-1
EndSplineSet
EndChar
StartChar: uni00B2
Encoding: 178 178 117
Width: 821
Flags: W
HStem: 668 114<406 810> 1411 109<531.025 705.5>
VStem: 212 700<668 1280>
Fore
406 782 m 1,0,-1
 830 782 l 1,1,-1
 810 668 l 1,2,-1
 212 668 l 1,3,-1
 231 778 l 1,4,5
 271 809 271 809 344 865 c 0,6,7
 741 1170 741 1170 758 1264 c 0,8,9
 770 1330 770 1330 725 1370.5 c 128,-1,10
 680 1411 680 1411 595 1411 c 0,11,12
 543 1411 543 1411 479 1393.5 c 128,-1,13
 415 1376 415 1376 336 1341 c 1,14,-1
 358 1464 l 1,15,16
 440 1492 440 1492 509 1506 c 128,-1,17
 578 1520 578 1520 635 1520 c 0,18,19
 780 1520 780 1520 855.5 1454 c 128,-1,20
 931 1388 931 1388 912 1280 c 0,21,22
 887 1141 887 1141 506 857 c 0,23,24
 442 809 442 809 406 782 c 1,0,-1
EndSplineSet
EndChar
StartChar: uni00B3
Encoding: 179 179 118
Width: 821
Flags: W
HStem: 653 109<358.828 611.7> 1061 108<466 673.4> 1402 108.228<396.539 625.589> 1411 109<525.801 722.5>
VStem: 220 706<694 1303>
Fore
721 1120 m 1,0,1
 810 1102 810 1102 851 1047.5 c 128,-1,2
 892 993 892 993 878 911 c 0,3,4
 856 787 856 787 749 720 c 128,-1,5
 642 653 642 653 465 653 c 0,6,7
 408 653 408 653 347.5 663.5 c 128,-1,8
 287 674 287 674 220 694 c 1,9,-1
 242 815 l 1,10,11
 289 788 289 788 346 775 c 128,-1,12
 403 762 403 762 470 762 c 0,13,14
 579 762 579 762 646 801.5 c 128,-1,15
 713 841 713 841 726 911 c 0,16,17
 739 985 739 985 690 1023 c 128,-1,18
 641 1061 641 1061 533 1061 c 2,19,-1
 447 1061 l 1,20,-1
 466 1169 l 1,21,-1
 560 1169 l 2,22,23
 654 1169 654 1169 708 1200.5 c 128,-1,24
 762 1232 762 1232 773 1292 c 0,25,26
 783 1350 783 1350 738.5 1380.5 c 128,-1,27
 694 1411 694 1411 599 1411 c 0,28,29
 559 1411 559 1411 506.5 1402 c 128,-1,30
 454 1393 454 1393 369 1370 c 1,31,-1
 389 1485 l 1,32,33
 465 1502 465 1502 530.5 1511 c 128,-1,34
 596 1520 596 1520 651 1520 c 0,35,36
 795 1520 795 1520 869 1461 c 128,-1,37
 943 1402 943 1402 926 1303 c 0,38,39
 914 1234 914 1234 860.5 1186 c 128,-1,40
 807 1138 807 1138 721 1120 c 1,0,1
EndSplineSet
EndChar
StartChar: acute
Encoding: 180 180 119
Width: 1024
Flags: W
HStem: 1262 376<747 940>
VStem: 594 545<1262 1638>
Fore
940 1638 m 1,0,-1
 1139 1638 l 1,1,-1
 747 1262 l 1,2,-1
 594 1262 l 1,3,-1
 940 1638 l 1,0,-1
EndSplineSet
EndChar
StartChar: mu
Encoding: 181 181 120
Width: 1303
Flags: W
HStem: -426 21G<99 283> -29 160<507.4 767.4> 1100 20G<371 555 1125 1309>
Fore
99 -426 m 1,0,-1
 371 1120 l 1,1,-1
 555 1120 l 1,2,-1
 433 424 l 2,3,4
 407 279 407 279 463 205 c 128,-1,5
 519 131 519 131 654 131 c 0,6,7
 802 131 802 131 891.5 215 c 128,-1,8
 981 299 981 299 1010 467 c 2,9,-1
 1125 1120 l 1,10,-1
 1309 1120 l 1,11,-1
 1157 258 l 2,12,13
 1147 198 1147 198 1159.5 169.5 c 128,-1,14
 1172 141 1172 141 1209 141 c 0,15,16
 1218 141 1218 141 1235 146.5 c 128,-1,17
 1252 152 1252 152 1282 164 c 1,18,-1
 1256 16 l 1,19,20
 1211 -7 1211 -7 1172.5 -18 c 128,-1,21
 1134 -29 1134 -29 1099 -29 c 0,22,23
 1030 -29 1030 -29 996 10 c 128,-1,24
 962 49 962 49 961 129 c 1,25,26
 897 50 897 50 817.5 10.5 c 128,-1,27
 738 -29 738 -29 640 -29 c 0,28,29
 538 -29 538 -29 473.5 10 c 128,-1,30
 409 49 409 49 380 127 c 1,31,-1
 283 -426 l 1,32,-1
 99 -426 l 1,0,-1
EndSplineSet
EndChar
StartChar: paragraph
Encoding: 182 182 121
Width: 1303
Flags: W
HStem: 1370 123<992 1182>
VStem: 347 997<1071 1493>
Fore
896 1493 m 2,0,-1
 1344 1493 l 1,1,-1
 1046 -197 l 1,2,-1
 905 -197 l 1,3,-1
 1182 1370 l 1,4,-1
 992 1370 l 1,5,-1
 715 -197 l 1,6,-1
 573 -197 l 1,7,-1
 722 649 l 1,8,9
 510 666 510 666 412 776.5 c 128,-1,10
 314 887 314 887 347 1071 c 0,11,12
 380 1261 380 1261 530.5 1377 c 128,-1,13
 681 1493 681 1493 896 1493 c 2,0,-1
EndSplineSet
EndChar
StartChar: periodcentered
Encoding: 183 183 122
Width: 651
Flags: W
HStem: 584 254<367 533>
VStem: 322 256<584 838>
Fore
367 838 m 1,0,-1
 578 838 l 1,1,-1
 533 584 l 1,2,-1
 322 584 l 1,3,-1
 367 838 l 1,0,-1
EndSplineSet
EndChar
StartChar: cedilla
Encoding: 184 184 123
Width: 1024
Flags: W
HStem: -395 123<301.024 474.7> -20 20G<477 596>
VStem: 226 441<-371 -215>
Fore
596 0 m 1,0,1
 640 -62 640 -62 658 -114.5 c 128,-1,2
 676 -167 676 -167 667 -215 c 0,3,4
 651 -304 651 -304 583 -349.5 c 128,-1,5
 515 -395 515 -395 397 -395 c 0,6,7
 351 -395 351 -395 308.5 -389 c 128,-1,8
 266 -383 266 -383 226 -371 c 1,9,-1
 249 -240 l 1,10,11
 280 -257 280 -257 315.5 -264.5 c 128,-1,12
 351 -272 351 -272 398 -272 c 0,13,14
 457 -272 457 -272 491.5 -248 c 128,-1,15
 526 -224 526 -224 534 -178 c 0,16,17
 539 -148 539 -148 525 -104.5 c 128,-1,18
 511 -61 511 -61 477 0 c 1,19,-1
 596 0 l 1,0,1
EndSplineSet
EndChar
StartChar: uni0E01
Encoding: 3585 3585 124
Width: 1340
Flags: W
HStem: 0 21G<200 384 964 1146> 1072 160<717.1 1047.3>
Back
104.5 1046.5 m 13,0,-1
 105 843.5 l 5,1,-1
 342.5 751 l 5,2,3
 260.842 709.92 260.842 709.92 215.068 624.22 c 132,-1,4
 169.257 538.452 169.257 538.452 169.294 456 c 6,5,-1
 169.5 0 l 5,6,-1
 354.5 0 l 5,7,-1
 354.294 456 l 6,8,9
 354.258 535.378 354.258 535.378 396.614 593.427 c 132,-1,10
 438.934 651.413 438.934 651.413 512.5 679 c 5,11,-1
 512 826.5 l 5,12,-1
 260.608 940.811 l 5,13,14
 333.372 996.007 333.372 996.007 431.233 1030.45 c 132,-1,15
 529.095 1064.89 529.095 1064.89 632.5 1063 c 4,16,17
 784.426 1060.3 784.426 1060.3 858.963 979.636 c 132,-1,18
 933.5 898.977 933.5 898.977 933.5 731 c 6,19,-1
 933.5 0 l 5,20,-1
 1116.5 0 l 5,21,-1
 1116.5 747 l 6,22,23
 1116.5 985.378 1116.5 985.378 980.974 1104.37 c 132,-1,24
 845.448 1223.35 845.448 1223.35 632.5 1223 c 4,25,26
 483.723 1222.76 483.723 1222.76 350.205 1181.2 c 132,-1,27
 216.687 1139.64 216.687 1139.64 104.5 1046.5 c 13,0,-1
EndSplineSet
Fore
320 1056 m 9,0,-1
 286 862 l 1,1,-1
 506 760 l 1,2,3
 418 719 418 719 356.5 633 c 128,-1,4
 295 547 295 547 281 465 c 2,5,-1
 200 0 l 1,6,-1
 384 0 l 1,7,-1
 466 465 l 2,8,9
 480 544 480 544 532.5 602 c 128,-1,10
 585 660 585 660 663 688 c 1,11,-1
 689 836 l 1,12,-1
 459 950 l 1,13,14
 540 1005 540 1005 644 1039.5 c 128,-1,15
 748 1074 748 1074 851 1072 c 0,16,17
 1002 1069 1002 1069 1063 988.5 c 128,-1,18
 1124 908 1124 908 1094 740 c 2,19,-1
 964 0 l 1,20,-1
 1146 0 l 1,21,-1
 1279 756 l 2,22,23
 1321 994 1321 994 1206.5 1113 c 128,-1,24
 1092 1232 1092 1232 879 1232 c 0,25,26
 731 1232 731 1232 590.5 1190.5 c 128,-1,27
 450 1149 450 1149 320 1056 c 9,0,-1
EndSplineSet
EndChar
StartChar: uni0E02
Encoding: 3586 3586 125
Width: 1220
Flags: W
HStem: 0 154<557 904.8> 761 106<373.4 458.075> 1182 20G<1058 1240>
Back
1315 927 m 132,-1,1
 1315 967 1315 967 1343 995 c 132,-1,2
 1371 1023 1371 1023 1411 1023 c 132,-1,3
 1451 1023 1451 1023 1479 995 c 132,-1,4
 1507 967 1507 967 1507 927 c 132,-1,5
 1507 887 1507 887 1479 859 c 132,-1,6
 1451 831 1451 831 1411 831 c 132,-1,7
 1371 831 1371 831 1343 859 c 132,-1,0
 1315 887 1315 887 1315 927 c 132,-1,1
1303.5 1118.5 m 132,-1,9
 1214 1035 1214 1035 1219 927 c 4,10,11
 1223 844 1223 844 1277.5 789.5 c 132,-1,12
 1332 735 1332 735 1411 735 c 132,-1,13
 1490 735 1490 735 1546.5 791.5 c 132,-1,14
 1603 848 1603 848 1603 927 c 260,15,16
 1603 1017 1603 1017 1547 1062 c 5,17,18
 1619 1057 1619 1057 1656.5 1003.5 c 132,-1,19
 1693.83 950 1693.83 950 1693 903 c 4,20,21
 1691.37 833.669 1691.37 833.669 1669.46 794.919 c 132,-1,22
 1647.56 756.169 1647.56 756.169 1599.28 695.085 c 132,-1,23
 1551 634 1551 634 1525 562 c 132,-1,24
 1499 490 1499 490 1499 425 c 6,25,-1
 1499 0 l 5,26,-1
 1917 0 l 6,27,28
 2063 0 2063 0 2126 58.5 c 132,-1,29
 2189.08 117.096 2189.08 117.096 2189 194 c 6,30,-1
 2188 1202 l 5,31,-1
 1998 1202 l 5,32,-1
 1998 261 l 6,33,34
 1998 211 1998 211 1973.5 185.5 c 132,-1,35
 1949 160 1949 160 1899 160 c 6,36,-1
 1691 160 l 5,37,-1
 1691 425 l 6,38,39
 1691 484.104 1691 484.104 1707.54 534.021 c 132,-1,40
 1724.09 583.938 1724.09 583.938 1775.04 648.97 c 132,-1,41
 1826 714 1826 714 1844.5 765 c 132,-1,42
 1863 816 1863 816 1863 885 c 4,43,44
 1861 1030 1861 1030 1759 1117 c 132,-1,45
 1657 1204 1657 1204 1525 1203 c 132,-1,8
 1393 1202 1393 1202 1303.5 1118.5 c 132,-1,9
564 875 m 0,0,1
 564 952 564 952 519.5 1007 c 128,-1,2
 475 1062 475 1062 389 1068 c 1,3,4
 424 1050 424 1050 444.5 1012 c 128,-1,5
 465 974 465 974 465 921 c 0,6,7
 465 851 465 851 412.5 796.5 c 128,-1,8
 360 742 360 742 282 744 c 0,9,10
 197 746 197 746 143 798.5 c 128,-1,11
 89 851 89 851 88 931 c 0,12,13
 86 1043 86 1043 174 1123 c 128,-1,14
 262 1203 262 1203 396 1203 c 128,-1,15
 530 1203 530 1203 630.995 1116.36 c 128,-1,16
 731.99 1029.73 731.99 1029.73 734 885 c 0,17,18
 735 813 735 813 718.5 762.5 c 128,-1,19
 702 712 702 712 645.5 643 c 128,-1,20
 589 574 589 574 572.5 525 c 128,-1,21
 556 476 556 476 556 425 c 2,22,-1
 556 154 l 9,23,-1
 761 154 l 2,24,25
 811 154 811 154 835.5 179.5 c 128,-1,26
 860 205 860 205 860 255 c 2,27,-1
 860 1202 l 1,28,-1
 1039 1202 l 1,29,-1
 1040 194 l 2,30,31
 1040.08 116.973 1040.08 116.973 977 58.5 c 128,-1,32
 914 0 914 0 768 0 c 2,33,-1
 367 0 l 1,34,-1
 366 425 l 18,35,36
 365.762 525.997 365.762 525.997 390.881 584 c 128,-1,37
 416 642 416 642 474.143 708.943 c 128,-1,38
 532.286 775.885 532.286 775.885 547.823 805.925 c 128,-1,39
 563.361 835.965 563.361 835.965 564 875 c 0,0,1
281.5 999.5 m 152,-1,41
 250 1000 250 1000 226.5 979 c 128,-1,42
 203 958 203 958 202 926.5 c 128,-1,43
 201 895 201 895 223 873 c 128,-1,44
 245 851 245 851 276.5 850.5 c 128,-1,45
 308 850 308 850 330.5 871 c 128,-1,46
 353 892 353 892 354 923 c 128,-1,47
 355 954 355 954 334 976.5 c 128,-1,40
 313 999 313 999 281.5 999.5 c 152,-1,41
EndSplineSet
Fore
740 0 m 2,0,-1
 341 0 l 1,1,-1
 421 452 l 2,2,3
 431 513 431 513 459 566 c 128,-1,4
 487 619 487 619 520.5 658.5 c 128,-1,5
 554 698 554 698 587.5 735 c 128,-1,6
 621 772 621 772 648.5 815.5 c 128,-1,7
 676 859 676 859 686 905 c 0,8,9
 694 949 694 949 686 986 c 0,10,11
 677 1025 677 1025 645.5 1054 c 128,-1,12
 614 1083 614 1083 565 1085 c 1,13,14
 584 1071 584 1071 592.5 1063 c 128,-1,15
 601 1055 601 1055 610.5 1038.5 c 128,-1,16
 620 1022 620 1022 621 997.5 c 128,-1,17
 622 973 622 973 615 938 c 0,18,19
 604 874 604 874 536 816.5 c 128,-1,20
 468 759 468 759 400 761 c 0,21,22
 315 764 315 764 270.5 816 c 128,-1,23
 226 868 226 868 239 948 c 0,24,25
 257 1059 257 1059 357 1138 c 0,26,27
 459 1218 459 1218 584 1220 c 0,28,29
 650 1221 650 1221 703 1203 c 128,-1,30
 756 1185 756 1185 790 1154 c 128,-1,31
 824 1123 824 1123 845 1082.5 c 128,-1,32
 866 1042 866 1042 871.5 998.5 c 128,-1,33
 877 955 877 955 870 912 c 0,34,35
 861 863 861 863 833.5 812 c 128,-1,36
 806 761 806 761 772 715.5 c 128,-1,37
 738 670 738 670 703.5 623 c 128,-1,38
 669 576 669 576 640 516.5 c 128,-1,39
 611 457 611 457 601 402 c 2,40,-1
 557 154 l 1,41,-1
 767 154 l 2,42,43
 873 154 873 154 891 258 c 2,44,-1
 1058 1202 l 25,45,-1
 1240 1202 l 9,46,-1
 1063 196 l 2,47,48
 1028 0 1028 0 740 0 c 2,0,-1
445 1016 m 152,-1,50
 414 1017 414 1017 387 995.5 c 128,-1,51
 360 974 360 974 352 943 c 0,52,53
 346 912 346 912 364.5 890 c 128,-1,54
 383 868 383 868 415 867 c 0,55,56
 446 866 446 866 471.5 887.5 c 128,-1,57
 497 909 497 909 504 940 c 128,-1,58
 511 971 511 971 493.5 993 c 128,-1,49
 476 1015 476 1015 445 1016 c 152,-1,50
EndSplineSet
EndChar
StartChar: uni0E03
Encoding: 3587 3587 126
Width: 1310
Flags: W
HStem: 0 154<661 1007.8> 637.984 107.016<375.4 460.487> 1182 20G<1161 1343>
Fore
449 894 m 24,0,1
 417 894 417 894 389.5 873 c 128,-1,2
 362 852 362 852 355.5 821 c 128,-1,3
 349 790 349 790 367 767.5 c 128,-1,4
 385 745 385 745 417 745 c 0,5,6
 448 744 448 744 474.5 765 c 128,-1,7
 501 786 501 786 507 818 c 0,8,9
 514 848 514 848 496 870.5 c 128,-1,10
 478 893 478 893 449 894 c 24,0,1
1166 196 m 18,11,12
 1131 0 1131 0 843 0 c 2,13,-1
 444 0 l 1,14,-1
 525 458 l 2,15,16
 536 519 536 519 564.5 570.5 c 128,-1,17
 593 622 593 622 628 659 c 128,-1,18
 663 696 663 696 697 730.5 c 128,-1,19
 731 765 731 765 759.5 807 c 128,-1,20
 788 849 788 849 798 895 c 0,21,22
 829 1040 829 1040 753 1086 c 1,23,-1
 611 1026 l 1,24,-1
 492 1088 l 1,25,26
 414 1054 414 1054 395 987 c 1,27,-1
 471 1001 l 1,28,29
 554 1000 554 1000 592 944.5 c 128,-1,30
 630 889 630 889 618 816 c 0,31,32
 607 754 607 754 542.5 696.5 c 128,-1,33
 478 639 478 639 402 638 c 0,34,35
 318 637 318 637 262 699 c 128,-1,36
 206 761 206 761 232 910 c 0,37,38
 250 1009 250 1009 329 1101.5 c 128,-1,39
 408 1194 408 1194 532 1226 c 1,40,-1
 638 1159 l 1,41,-1
 769 1221 l 1,42,43
 849 1206 849 1206 902.5 1155 c 128,-1,44
 956 1104 956 1104 974 1039 c 128,-1,45
 992 974 992 974 981 902 c 0,46,47
 973 853 973 853 945 803.5 c 128,-1,48
 917 754 917 754 881.5 711 c 128,-1,49
 846 668 846 668 810.5 623 c 128,-1,50
 775 578 775 578 745.5 522 c 128,-1,51
 716 466 716 466 706 408 c 2,52,-1
 661 154 l 1,53,-1
 870 154 l 2,54,55
 976 154 976 154 994 258 c 2,56,-1
 1161 1202 l 1,57,-1
 1343 1202 l 1,58,-1
 1166 196 l 18,11,12
EndSplineSet
EndChar
StartChar: uni0E04
Encoding: 3588 3588 127
Width: 1340
Flags: W
HStem: 0 21G<205 398 973 1157> 461 132<707 785.42> 737 132<731.58 810> 1072 160<737.8 959.5>
Back
378 0 m 1,0,-1
 195 0 l 1,1,-1
 118 757.885 l 2,2,3
 112.541 811.613 112.541 811.613 134.597 888.306 c 128,-1,4
 156.653 964.999 156.653 964.999 198.178 1024.68 c 128,-1,5
 239.702 1084.36 239.702 1084.36 299.502 1128.46 c 128,-1,6
 359.302 1172.55 359.302 1172.55 445.794 1198.22 c 128,-1,7
 532.285 1223.89 532.285 1223.89 636 1223.89 c 0,8,9
 735.064 1223.89 735.064 1223.89 818.203 1198.25 c 128,-1,10
 901.342 1172.6 901.342 1172.6 959.237 1128.5 c 128,-1,11
 1017.13 1084.39 1017.13 1084.39 1057.56 1024.92 c 128,-1,12
 1097.99 965.439 1097.99 965.439 1117.6 896.166 c 128,-1,13
 1137.21 826.893 1137.21 826.893 1137 681 c 2,14,-1
 1136 0 l 1,15,-1
 953 0 l 1,16,-1
 953 742.886 l 2,17,18
 953 814.83 953 814.83 936.336 871.518 c 128,-1,19
 919.673 928.206 919.673 928.206 883.882 972.335 c 128,-1,20
 848.092 1016.46 848.092 1016.46 786.399 1040.18 c 128,-1,21
 724.705 1063.89 724.705 1063.89 640 1063.89 c 0,22,23
 551.567 1063.89 551.567 1063.89 483.814 1038.7 c 128,-1,24
 416.061 1013.51 416.061 1013.51 375.46 968.862 c 128,-1,25
 334.859 924.217 334.859 924.217 316.191 865.363 c 128,-1,26
 297.523 806.508 297.523 806.508 302 736.886 c 2,27,-1
 322 425.886 l 1,28,29
 331.353 452.608 331.353 452.608 345.039 511.202 c 128,-1,30
 358.724 569.795 358.724 569.795 375.3 620.417 c 128,-1,31
 391.876 671.04 391.876 671.04 416 707.886 c 0,32,33
 448.344 757.286 448.344 757.286 476.853 787.314 c 128,-1,34
 505.361 817.342 505.361 817.342 549.164 837.99 c 128,-1,35
 592.967 858.638 592.967 858.638 648.062 859.329 c 0,36,37
 725.614 860.302 725.614 860.302 778.6 806.479 c 128,-1,38
 831.587 752.656 831.587 752.656 833.5 676.886 c 0,39,40
 835.451 599.648 835.451 599.648 778.832 548.267 c 0,41,42
 724.487 498.949 724.487 498.949 652 496.886 c 0,42,43
 608.614 495.651 608.614 495.651 579.663 505.346 c 128,-1,44
 550.713 515.041 550.713 515.041 536.699 528.7 c 128,-1,45
 522.685 542.358 522.685 542.358 505 568.886 c 1,46,47
 411 372 411 372 378 0 c 1,0,-1
649 600.886 m 24,48,49
 680.383 600.886 680.383 600.886 703.089 622.031 c 128,-1,50
 725.794 643.176 725.794 643.176 726 673.886 c 0,51,52
 726.21 705.275 726.21 705.275 703.848 727.581 c 128,-1,53
 681.486 749.886 681.486 749.886 650 749.886 c 128,-1,54
 618.611 749.886 618.611 749.886 596.411 727.629 c 128,-1,55
 574.211 705.372 574.211 705.372 574 673.886 c 0,56,57
 573.797 643.503 573.797 643.503 595.971 622.194 c 128,-1,58
 618.145 600.886 618.145 600.886 649 600.886 c 24,48,49
EndSplineSet
Fore
398 0 m 17,0,-1
 205 0 l 1,1,-1
 269 686 l 2,2,3
 282 831 282 831 315.5 902 c 128,-1,4
 349 973 349 973 401 1032.5 c 128,-1,5
 453 1092 453 1092 520 1136.5 c 128,-1,6
 587 1181 587 1181 678 1206.5 c 128,-1,7
 769 1232 769 1232 873 1232 c 4,8,9
 972 1232 972 1232 1050.5 1206.5 c 128,-1,10
 1129 1181 1129 1181 1179.5 1136.5 c 128,-1,11
 1230 1092 1230 1092 1260 1032.5 c 128,-1,12
 1290 973 1290 973 1297 904 c 128,-1,13
 1304 835 1304 835 1278 689 c 2,14,-1
 1157 0 l 1,15,-1
 973 0 l 1,16,-1
 1105 751 l 2,17,18
 1118 823 1118 823 1111.5 879.5 c 128,-1,19
 1105 936 1105 936 1077 980 c 128,-1,20
 1049 1024 1049 1024 991.5 1048 c 128,-1,21
 934 1072 934 1072 849 1072 c 4,22,23
 761 1072 761 1072 688.5 1047 c 128,-1,24
 616 1022 616 1022 567.5 977 c 128,-1,25
 519 932 519 932 493.5 880 c 128,-1,26
 468 828 468 828 453 745 c 2,27,-1
 353 168 l 1,28,29
 399 322 399 322 478 532 c 128,-1,30
 557 742 557 742 619 800 c 0,31,32
 693 869 693 869 794 869 c 0,33,34
 878 869 878 869 927.5 809 c 128,-1,35
 977 749 977 749 962 665 c 128,-1,36
 947 581 947 581 876.5 521 c 128,-1,37
 806 461 806 461 722 461 c 128,-1,38
 638 461 638 461 589 521 c 9,39,-1
 398 0 l 17,0,-1
686.5 665 m 128,-1,41
 681 635 681 635 698.5 614 c 128,-1,42
 716 593 716 593 746 593 c 128,-1,43
 776 593 776 593 800.5 614 c 128,-1,44
 825 635 825 635 830.5 665 c 128,-1,45
 836 695 836 695 818.5 716 c 128,-1,46
 801 737 801 737 771 737 c 128,-1,47
 741 737 741 737 716.5 716 c 128,-1,40
 692 695 692 695 686.5 665 c 128,-1,41
EndSplineSet
EndChar
StartChar: uni0E05
Encoding: 3589 3589 128
Width: 1340
Flags: W
HStem: 1 21G<225 408 981 1164> 451 132<715 793.42> 727 132<739.58 818>
Fore
694.5 655 m 128,-1,1
 689 625 689 625 706.5 604 c 128,-1,2
 724 583 724 583 754 583 c 128,-1,3
 784 583 784 583 808.5 604 c 128,-1,4
 833 625 833 625 838.5 655 c 128,-1,5
 844 685 844 685 826.5 706 c 128,-1,6
 809 727 809 727 779 727 c 128,-1,7
 749 727 749 727 724.5 706 c 128,-1,0
 700 685 700 685 694.5 655 c 128,-1,1
597 511 m 1,8,9
 491 336 491 336 408 1 c 1,10,-1
 225 1 l 1,11,-1
 287 801 l 2,12,13
 294 897 294 897 347.5 987.5 c 128,-1,14
 401 1078 401 1078 493.5 1145 c 128,-1,15
 586 1212 586 1212 692 1244 c 1,16,-1
 857 1093 l 1,17,-1
 1066 1244 l 1,18,19
 1161 1211 1161 1211 1223 1143 c 128,-1,20
 1285 1075 1285 1075 1304 987.5 c 128,-1,21
 1323 900 1323 900 1305 802 c 2,22,-1
 1164 1 l 1,23,-1
 981 1 l 1,24,-1
 1120 786 l 2,25,26
 1140 899 1140 899 1118.5 970 c 128,-1,27
 1097 1041 1097 1041 1037 1073 c 1,28,-1
 869 959 l 1,29,-1
 802 959 l 1,30,-1
 670 1073 l 1,31,32
 586 1032 586 1032 532 955.5 c 128,-1,33
 478 879 478 879 468 780 c 2,34,-1
 433 448 l 1,35,36
 440 493 440 493 497.5 606.5 c 128,-1,37
 555 720 555 720 637 790 c 0,38,39
 718 859 718 859 802 859 c 128,-1,40
 886 859 886 859 935.5 799 c 128,-1,41
 985 739 985 739 970.5 655 c 128,-1,42
 956 571 956 571 885.5 511 c 128,-1,43
 815 451 815 451 731 451 c 256,44,45
 647 451 647 451 597 511 c 1,8,9
EndSplineSet
EndChar
StartChar: uni0E06
Encoding: 3590 3590 129
Width: 1360
Flags: W
HStem: -10 142<336 414.603> 276 143<361.397 440> 638 107<355.4 440.487>
Fore
980 0 m 1,0,1
 840 148 840 148 653 224 c 1,2,3
 637 129 637 129 557.5 59.5 c 128,-1,4
 478 -10 478 -10 350 -10 c 0,5,6
 266 -10 266 -10 216.5 50 c 128,-1,7
 167 110 167 110 184 204 c 0,8,9
 199 289 199 289 271 354 c 128,-1,10
 343 419 343 419 430 419 c 0,11,12
 472 420 472 420 497 414 c 9,13,-1
 505 458 l 2,14,15
 516 519 516 519 544.5 570.5 c 128,-1,16
 573 622 573 622 608 659 c 128,-1,17
 643 696 643 696 677 730.5 c 128,-1,18
 711 765 711 765 739.5 807 c 128,-1,19
 768 849 768 849 778 895 c 0,20,21
 809 1040 809 1040 733 1086 c 1,22,-1
 591 1026 l 1,23,-1
 472 1088 l 1,24,25
 394 1054 394 1054 375 987 c 1,26,-1
 451 1001 l 1,27,28
 534 1000 534 1000 572 944.5 c 128,-1,29
 610 889 610 889 598 816 c 0,30,31
 587 754 587 754 522.5 696.5 c 128,-1,32
 458 639 458 639 382 638 c 0,33,34
 298 637 298 637 242 699 c 128,-1,35
 186 761 186 761 212 910 c 0,36,37
 230 1009 230 1009 309 1101.5 c 128,-1,38
 388 1194 388 1194 512 1226 c 1,39,-1
 618 1159 l 1,40,-1
 749 1221 l 1,41,42
 829 1206 829 1206 882.5 1155 c 128,-1,43
 936 1104 936 1104 954 1039 c 132,-1,44
 972 974 972 974 961 902 c 0,45,46
 953 853 953 853 925 803.5 c 128,-1,47
 897 754 897 754 861.5 711 c 128,-1,48
 826 668 826 668 792.5 625.5 c 128,-1,49
 759 583 759 583 727.5 525 c 128,-1,50
 696 467 696 467 686 408 c 10,51,-1
 681 379 l 17,52,53
 875 322 875 322 1024 215 c 1,54,-1
 1200 1204 l 1,55,-1
 1382 1203 l 1,56,-1
 1170 0 l 1,57,-1
 980 0 l 1,0,1
429 894 m 24,58,59
 397 894 397 894 369.5 873 c 128,-1,60
 342 852 342 852 335.5 821 c 128,-1,61
 329 790 329 790 347 767.5 c 128,-1,62
 365 745 365 745 397 745 c 0,63,64
 428 744 428 744 454.5 765 c 128,-1,65
 481 786 481 786 487 818 c 0,66,67
 494 848 494 848 476 870.5 c 128,-1,68
 458 893 458 893 429 894 c 24,58,59
316 204 m 128,-1,70
 311 174 311 174 328 153 c 128,-1,71
 345 132 345 132 375 132 c 128,-1,72
 405 132 405 132 430 153 c 128,-1,73
 455 174 455 174 460 204 c 128,-1,74
 465 234 465 234 448 255 c 128,-1,75
 431 276 431 276 401 276 c 128,-1,76
 371 276 371 276 346 255 c 128,-1,69
 321 234 321 234 316 204 c 128,-1,70
EndSplineSet
EndChar
StartChar: uni0E07
Encoding: 3591 3591 130
Width: 1050
Flags: W
HStem: 0 21G<604 830> 804 132<716 794> 1080 132<740.58 819>
VStem: 205 795<641 963>
Back
586 922.902 m 24,0,1
 617.383 922.902 617.383 922.902 640.089 944.047 c 128,-1,2
 662.794 965.191 662.794 965.191 663 995.9 c 0,3,4
 663.21 1027.29 663.21 1027.29 640.849 1049.6 c 128,-1,5
 618.487 1071.9 618.487 1071.9 587 1071.9 c 128,-1,6
 555.61 1071.9 555.61 1071.9 533.411 1049.64 c 128,-1,7
 511.211 1027.39 511.211 1027.39 511 995.9 c 0,8,9
 510.796 965.52 510.796 965.52 532.971 944.211 c 128,-1,10
 555.146 922.902 555.146 922.902 586 922.902 c 24,0,1
643.821 800.898 m 9,1,-1
 644 300 l 1,19,-1
 478.423 543.827 478.423 543.827 150.83 760.902 c 1,17,18
 91.8301 640.902 l 1,16,-1
 196.207 566.968 196.207 566.968 356.346 367.257 c 128,-1,15
 516.484 167.547 516.484 167.547 614 0 c 1,13,14
 830 0 l 1,12,-1
 829.83 952.902 l 18,11,-1
 829.809 1070.6 829.809 1070.6 763.126 1136.57 c 128,-1,0
 696.443 1202.54 696.443 1202.54 607 1202.9 c 0,31,32
 506.438 1203.31 506.438 1203.31 441.401 1146.7 c 128,-1,30
 376.365 1090.09 376.365 1090.09 378 987.9 c 0,27,28
 379.416 899.415 379.416 899.415 441.267 846.892 c 128,-1,26
 503.118 794.37 503.118 794.37 582 793.902 c 0,24,25
 621.667 793.667 621.667 793.667 643.821 800.898 c 9,1,-1
EndSplineSet
Fore
695.5 1008 m 128,-1,1
 690 978 690 978 707.5 957 c 128,-1,2
 725 936 725 936 755 936 c 128,-1,3
 785 936 785 936 809.5 957 c 128,-1,4
 834 978 834 978 839.5 1008 c 128,-1,5
 845 1038 845 1038 827.5 1059 c 128,-1,6
 810 1080 810 1080 780 1080 c 128,-1,7
 750 1080 750 1080 725.5 1059 c 128,-1,0
 701 1038 701 1038 695.5 1008 c 128,-1,1
1000 963 m 10,8,-1
 830 0 l 1,9,-1
 604 0 l 1,10,11
 497 252 497 252 401.5 401.5 c 128,-1,12
 306 551 306 551 205 641 c 1,13,-1
 285 761 l 1,14,15
 416 660 416 660 522.5 544 c 128,-1,16
 629 428 629 428 697 300 c 1,17,-1
 786 807 l 17,18,19
 784 804 784 804 732 804 c 0,20,21
 648 804 648 804 598.5 864 c 128,-1,22
 549 924 549 924 564 1008 c 128,-1,23
 579 1092 579 1092 649.5 1152 c 128,-1,24
 720 1212 720 1212 804 1212 c 0,25,26
 917 1212 917 1212 967.5 1139 c 128,-1,27
 1018 1066 1018 1066 1000 963 c 10,8,-1
EndSplineSet
EndChar
StartChar: uni0E08
Encoding: 3592 3592 131
Width: 1140
Flags: W
HStem: 0 21G<680 866> 449 126<453 534.182> 724 125<478.55 560.45> 1076 156<568.727 850.3>
VStem: 276 823<753 984>
Back
946 723 m 10,0,-1
 946 0 l 1,32,-1
 760 0 l 1,33,34
 720 192 720 192 667.289 337.5 c 128,-1,35
 614.578 483 614.578 483 559.5 526 c 1,36,37
 548.064 501.588 548.064 501.588 510.502 475.348 c 128,-1,38
 472.94 449.109 472.94 449.109 401 449.06 c 8,39,0
 311.202 448.998 311.202 448.998 255.23 503.388 c 128,-1,1
 199.258 557.778 199.258 557.778 197 642.06 c 0,2,3
 194.413 738.648 194.413 738.648 257.129 794.196 c 128,-1,4
 319.845 849.745 319.845 849.745 420 849.06 c 0,5,6
 494.53 849.034 494.53 849.034 548.765 811.517 c 128,-1,7
 603 774 603 774 637.036 731.685 c 128,-1,8
 671.071 689.37 671.071 689.37 710.041 618.996 c 128,-1,9
 749.011 548.623 749.011 548.623 762 492 c 1,10,-1
 762 810 l 2,25,26
 762 937 762 937 678.5 1006.5 c 128,-1,27
 595 1076 595 1076 444 1076 c 0,28,29
 348 1076 348 1076 257 1053 c 128,-1,30
 166 1030 166 1030 82 984 c 1,31,-1
 82 1154 l 1,32,33
 183 1193 183 1193 278 1212.5 c 128,-1,34
 373 1232 373 1232 463 1232 c 0,35,36
 706 1232 706 1232 826 1106 c 128,-1,37
 946 980 946 980 946 723 c 10,0,-1
401 575.06 m 24,40,41
 432.383 575.06 432.383 575.06 455.089 596.205 c 128,-1,42
 477.794 617.35 477.794 617.35 478 648.06 c 0,43,44
 478.21 679.449 478.21 679.449 455.848 701.755 c 128,-1,45
 433.486 724.06 433.486 724.06 402 724.06 c 128,-1,46
 370.611 724.06 370.611 724.06 348.411 701.803 c 128,-1,47
 326.211 679.546 326.211 679.546 326 648.06 c 0,48,49
 325.797 617.676 325.797 617.676 347.971 596.368 c 128,-1,50
 370.145 575.06 370.145 575.06 401 575.06 c 24,40,41
EndSplineSet
Fore
1099 753 m 10,0,-1
 866 0 l 1,1,-1
 680 0 l 1,2,3
 694 174 694 174 685 296 c 128,-1,4
 676 418 676 418 642 526 c 1,5,6
 627 502 627 502 584.5 475.5 c 128,-1,7
 542 449 542 449 470 449 c 8,8,9
 380 449 380 449 334 503.5 c 128,-1,10
 288 558 288 558 300 642 c 0,11,12
 315 739 315 739 387.5 794.5 c 128,-1,13
 460 850 460 850 560 849 c 0,14,15
 641 849 641 849 694 805 c 128,-1,16
 747 761 747 761 767 706.5 c 128,-1,17
 787 652 787 652 799.5 546.5 c 128,-1,18
 812 441 812 441 808 326 c 1,19,-1
 925 810 l 2,20,21
 954 931 954 931 879.5 1003.5 c 128,-1,22
 805 1076 805 1076 654 1076 c 4,23,24
 558 1076 558 1076 463 1053 c 128,-1,25
 368 1030 368 1030 276 984 c 1,26,-1
 305 1154 l 1,27,28
 413 1193 413 1193 511.5 1212.5 c 128,-1,29
 610 1232 610 1232 700 1232 c 4,30,31
 943 1232 943 1232 1051.5 1092 c 128,-1,32
 1160 952 1160 952 1099 753 c 10,0,-1
492 575 m 24,33,34
 524 575 524 575 550.5 596 c 128,-1,35
 577 617 577 617 582 648 c 0,36,37
 588 679 588 679 569.5 701.5 c 128,-1,38
 551 724 551 724 519.5 724 c 128,-1,39
 488 724 488 724 462 702 c 128,-1,40
 436 680 436 680 430 648 c 0,41,42
 425 618 425 618 443.5 596.5 c 128,-1,43
 462 575 462 575 492 575 c 24,33,34
EndSplineSet
EndChar
StartChar: uni0E09
Encoding: 3593 3593 132
Width: 1300
Flags: W
HStem: 0 132<987 1065.6> 424 132<347 425> 700 132<371.58 450> 1076 156<639.6 969.3>
Fore
1041 810 m 2,0,1
 1063 937 1063 937 992 1006.5 c 128,-1,2
 921 1076 921 1076 760 1076 c 0,3,4
 647 1076 647 1076 549 1047.5 c 128,-1,5
 451 1019 451 1019 348 964 c 1,6,-1
 378 1134 l 1,7,8
 485 1180 485 1180 581.5 1206 c 128,-1,9
 678 1232 678 1232 806 1232 c 0,10,11
 1059 1232 1059 1232 1157 1106 c 128,-1,12
 1255 980 1255 980 1209 723 c 10,13,-1
 1150 388 l 17,14,15
 1184 377 1184 377 1208 348 c 0,16,17
 1258 288 1258 288 1243 204 c 128,-1,18
 1228 120 1228 120 1157.5 60 c 128,-1,19
 1087 0 1087 0 1003 0 c 128,-1,20
 919 0 919 0 869.5 60 c 128,-1,21
 820 120 820 120 835 204 c 1,22,23
 635 130 635 130 524 0 c 1,24,-1
 342 0 l 1,25,-1
 417 427 l 1,26,27
 415 424 415 424 363 424 c 0,28,29
 279 424 279 424 229.5 484 c 128,-1,30
 180 544 180 544 195 628 c 128,-1,31
 210 712 210 712 280.5 772 c 128,-1,32
 351 832 351 832 435 832 c 0,33,34
 548 832 548 832 598.5 759 c 128,-1,35
 649 686 649 686 631 583 c 2,36,-1
 564 207 l 1,37,38
 753 358 753 358 967 391 c 9,39,-1
 1041 810 l 2,0,1
967 204 m 128,-1,41
 962 174 962 174 979 153 c 128,-1,42
 996 132 996 132 1026 132 c 128,-1,43
 1056 132 1056 132 1081 153 c 128,-1,44
 1106 174 1106 174 1111 204 c 128,-1,45
 1116 234 1116 234 1099 255 c 128,-1,46
 1082 276 1082 276 1052 276 c 128,-1,47
 1022 276 1022 276 997 255 c 128,-1,40
 972 234 972 234 967 204 c 128,-1,41
326.5 628 m 128,-1,49
 321 598 321 598 338.5 577 c 128,-1,50
 356 556 356 556 386 556 c 128,-1,51
 416 556 416 556 440.5 577 c 128,-1,52
 465 598 465 598 470.5 628 c 128,-1,53
 476 658 476 658 458.5 679 c 128,-1,54
 441 700 441 700 411 700 c 128,-1,55
 381 700 381 700 356.5 679 c 128,-1,48
 332 658 332 658 326.5 628 c 128,-1,49
EndSplineSet
EndChar
StartChar: uni0E0A
Encoding: 3594 3594 133
Width: 1260
Flags: W
HStem: 0 154<567 914.8> 761 106<383.4 468.075>
Fore
951 1024 m 1,0,1
 1046 1045 1046 1045 1114.5 1132.5 c 128,-1,2
 1183 1220 1183 1220 1213 1392 c 1,3,-1
 1393 1392 l 1,4,5
 1357 1184 1357 1184 1274 1084.5 c 128,-1,6
 1191 985 1191 985 1106 940 c 1,7,8
 1148 906 1148 906 1163 849 c 128,-1,9
 1178 792 1178 792 1163 709 c 2,10,-1
 1073 196 l 6,11,12
 1038 0 1038 0 750 0 c 6,13,-1
 351 0 l 1,14,-1
 431 452 l 2,15,16
 441 513 441 513 469 566 c 128,-1,17
 497 619 497 619 530.5 658.5 c 128,-1,18
 564 698 564 698 597.5 735 c 128,-1,19
 631 772 631 772 658 814 c 128,-1,20
 685 856 685 856 696 905 c 0,21,22
 705 946 705 946 696 985.5 c 128,-1,23
 687 1025 687 1025 655.5 1054 c 128,-1,24
 624 1083 624 1083 575 1085 c 1,25,26
 611 1070 611 1070 624 1036 c 0,27,28
 637 999 637 999 625 938 c 0,29,30
 613 876 613 876 554.5 818.5 c 128,-1,31
 496 761 496 761 410 761 c 0,32,33
 327 761 327 761 281.5 814.5 c 128,-1,34
 236 868 236 868 249 948 c 0,35,36
 267 1059 267 1059 368 1138.5 c 128,-1,37
 469 1218 469 1218 594 1220 c 0,38,39
 660 1221 660 1221 713 1203 c 128,-1,40
 766 1185 766 1185 800 1154 c 128,-1,41
 834 1123 834 1123 855 1082.5 c 128,-1,42
 876 1042 876 1042 881.5 998.5 c 128,-1,43
 887 955 887 955 880 912 c 0,44,45
 871 863 871 863 843.5 812 c 128,-1,46
 816 761 816 761 782 715.5 c 128,-1,47
 748 670 748 670 713.5 623 c 128,-1,48
 679 576 679 576 650 518 c 128,-1,49
 621 460 621 460 611 402 c 2,50,-1
 567 154 l 1,51,-1
 777 154 l 6,52,53
 883 154 883 154 901 258 c 6,54,-1
 981 709 l 2,55,56
 1005 843 1005 843 928 898 c 1,57,-1
 951 1024 l 1,0,1
455 1016 m 152,-1,59
 424 1017 424 1017 397 995.5 c 128,-1,60
 370 974 370 974 362 943 c 0,61,62
 356 912 356 912 374.5 890 c 128,-1,63
 393 868 393 868 425 867 c 0,64,65
 456 866 456 866 481.5 887.5 c 128,-1,66
 507 909 507 909 514 940 c 128,-1,67
 521 971 521 971 503.5 993 c 128,-1,58
 486 1015 486 1015 455 1016 c 152,-1,59
EndSplineSet
EndChar
StartChar: uni0E0B
Encoding: 3595 3595 134
Width: 1370
Flags: W
HStem: 0 154<671 1026.8> 638 107<385.4 470.487>
Fore
862 0 m 14,0,-1
 454 0 l 17,1,-1
 535 458 l 2,2,3
 546 519 546 519 574.5 570.5 c 128,-1,4
 603 622 603 622 638 659 c 128,-1,5
 673 696 673 696 707 730.5 c 128,-1,6
 741 765 741 765 769.5 807 c 128,-1,7
 798 849 798 849 808 895 c 0,8,9
 839 1040 839 1040 763 1086 c 1,10,-1
 621 1026 l 1,11,-1
 502 1088 l 1,12,13
 424 1054 424 1054 405 987 c 1,14,-1
 481 1001 l 1,15,16
 564 1000 564 1000 602 944.5 c 128,-1,17
 640 889 640 889 628 816 c 0,18,19
 617 754 617 754 552.5 696.5 c 128,-1,20
 488 639 488 639 412 638 c 0,21,22
 328 637 328 637 272 699 c 128,-1,23
 216 761 216 761 242 910 c 0,24,25
 260 1009 260 1009 339.5 1101.5 c 128,-1,26
 419 1194 419 1194 542 1226 c 1,27,-1
 648 1159 l 1,28,-1
 779 1221 l 1,29,30
 859 1206 859 1206 912.5 1155 c 128,-1,31
 966 1104 966 1104 984.5 1039 c 128,-1,32
 1003 974 1003 974 991 902 c 0,33,34
 983 853 983 853 955 803.5 c 128,-1,35
 927 754 927 754 891.5 711 c 128,-1,36
 856 668 856 668 820.5 623 c 128,-1,37
 785 578 785 578 755.5 522 c 128,-1,38
 726 466 726 466 716 408 c 2,39,-1
 671 154 l 1,40,-1
 889 154 l 6,41,42
 995 154 995 154 1013 258 c 6,43,-1
 1091 699 l 2,44,45
 1110 806 1110 806 1038 888 c 1,46,-1
 1060 1014 l 1,47,48
 1155 1035 1155 1035 1223.5 1122.5 c 128,-1,49
 1292 1210 1292 1210 1322 1382 c 1,50,-1
 1502 1382 l 1,51,52
 1466 1174 1466 1174 1383 1074.5 c 128,-1,53
 1300 975 1300 975 1216 930 c 1,54,55
 1257 896 1257 896 1271 839 c 0,56,57
 1288 780 1288 780 1273 699 c 2,58,-1
 1185 196 l 6,59,60
 1150 0 1150 0 862 0 c 14,0,-1
459 894 m 24,61,62
 427 894 427 894 399.5 873 c 128,-1,63
 372 852 372 852 365.5 821 c 128,-1,64
 359 790 359 790 377 767.5 c 128,-1,65
 395 745 395 745 427 745 c 0,66,67
 458 744 458 744 484.5 765 c 128,-1,68
 511 786 511 786 517 818 c 0,69,70
 524 848 524 848 506 870.5 c 128,-1,71
 488 893 488 893 459 894 c 24,61,62
EndSplineSet
EndChar
StartChar: uni0E0C
Encoding: 3596 3596 135
Width: 1800
Flags: W
HStem: -11 123<930.4 1020.01> -10 132<414 492.42> 261 133<438.397 517 957.832 1023> 1072 160<706.8 1037>
Fore
1431 0 m 1,0,1
 1324 207 1324 207 1191 251 c 1,2,3
 1197 177 1197 177 1166 120 c 0,4,5
 1131 57 1131 57 1074 23 c 128,-1,6
 1017 -11 1017 -11 941 -11 c 0,7,8
 837 -11 837 -11 795.5 53.5 c 128,-1,9
 754 118 754 118 781 214 c 0,10,11
 801 286 801 286 869.5 342 c 128,-1,12
 938 398 938 398 1023 394 c 1,13,-1
 1084 740 l 2,14,15
 1114 907 1114 907 1053 988 c 128,-1,16
 992 1069 992 1069 842 1072 c 4,17,18
 738 1074 738 1074 634 1039.5 c 128,-1,19
 530 1005 530 1005 449 950 c 1,20,-1
 679 836 l 1,21,-1
 652 688 l 1,22,23
 575 660 575 660 522 601.5 c 128,-1,24
 469 543 469 543 456 464 c 2,25,-1
 445 395 l 1,26,27
 447 398 447 398 499 398 c 0,28,29
 583 398 583 398 632.5 338 c 128,-1,30
 682 278 682 278 667 194 c 128,-1,31
 652 110 652 110 581.5 50 c 128,-1,32
 511 -10 511 -10 427 -10 c 0,33,34
 314 -10 314 -10 263.5 63 c 128,-1,35
 213 136 213 136 231 239 c 2,36,-1
 271 465 l 2,37,38
 285 547 285 547 346.5 633 c 128,-1,39
 408 719 408 719 497 760 c 1,40,-1
 277 862 l 1,41,-1
 311 1056 l 17,42,43
 440 1149 440 1149 580.5 1190.5 c 128,-1,44
 721 1232 721 1232 870 1232 c 4,45,46
 1082 1232 1082 1232 1197 1113 c 128,-1,47
 1312 994 1312 994 1270 756 c 2,48,-1
 1205 383 l 1,49,50
 1358 351 1358 351 1468 216 c 1,51,-1
 1643 1203 l 1,52,-1
 1824 1203 l 1,53,-1
 1612 0 l 17,54,-1
 1431 0 l 1,0,1
537 194 m 128,-1,56
 542 224 542 224 525 245 c 128,-1,57
 508 266 508 266 478 266 c 128,-1,58
 448 266 448 266 423 245 c 128,-1,59
 398 224 398 224 393 194 c 128,-1,60
 388 164 388 164 405.5 143 c 128,-1,61
 423 122 423 122 453 122 c 128,-1,62
 483 122 483 122 507.5 143 c 128,-1,55
 532 164 532 164 537 194 c 128,-1,56
999 261 m 152,-1,64
 968 261 968 261 941.5 240 c 128,-1,65
 915 219 915 219 909 188 c 128,-1,66
 903 157 903 157 921.5 134.5 c 128,-1,67
 940 112 940 112 972 112 c 1,68,69
 988 99 988 99 1022 128 c 128,-1,70
 1056 157 1056 157 1061 188 c 0,71,72
 1067 218 1067 218 1048.5 239.5 c 128,-1,63
 1030 261 1030 261 999 261 c 152,-1,64
EndSplineSet
EndChar
StartChar: uni0E0D
Encoding: 3597 3597 136
Width: 1800
Flags: W
HStem: -396 144.5<1027.65 1155> -138 88.0919<1043.23 1114.73> -10 132<413 491.42> 0 156<1134 1461> 266 132<437.397 516> 1072 160<707.5 1013>
Fore
1239 756 m 2,0,-1
 1134 156 l 1,1,-1
 1461 156 l 1,2,-1
 1645 1204 l 1,3,-1
 1830 1204 l 1,4,-1
 1618 0 l 1,5,-1
 924 0 l 1,6,-1
 1053 740 l 2,7,8
 1085 918 1085 918 1028 993.5 c 132,-1,9
 971 1069 971 1069 831 1072 c 0,10,11
 736 1074 736 1074 632.5 1039.5 c 128,-1,12
 529 1005 529 1005 448 950 c 1,13,-1
 678 836 l 1,14,-1
 651 688 l 1,15,16
 574 660 574 660 521 601.5 c 128,-1,17
 468 543 468 543 455 464 c 2,18,-1
 444 395 l 1,19,20
 446 398 446 398 498 398 c 0,21,22
 582 398 582 398 631.5 338 c 128,-1,23
 681 278 681 278 666 194 c 128,-1,24
 651 110 651 110 580.5 50 c 128,-1,25
 510 -10 510 -10 426 -10 c 0,26,27
 313 -10 313 -10 262.5 63 c 128,-1,28
 212 136 212 136 230 239 c 2,29,-1
 270 465 l 2,30,31
 284 547 284 547 345.5 633 c 128,-1,32
 407 719 407 719 496 760 c 1,33,-1
 276 862 l 1,34,-1
 310 1056 l 17,35,36
 439 1149 439 1149 579.5 1190.5 c 128,-1,37
 720 1232 720 1232 859 1232 c 0,38,39
 1061 1232 1061 1232 1172 1117.5 c 128,-1,40
 1283 1003 1283 1003 1239 756 c 2,0,-1
536 194 m 128,-1,42
 541 224 541 224 524 245 c 128,-1,43
 507 266 507 266 477 266 c 128,-1,44
 447 266 447 266 422 245 c 128,-1,45
 397 224 397 224 392 194 c 128,-1,46
 387 164 387 164 404.5 143 c 128,-1,47
 422 122 422 122 452 122 c 128,-1,48
 482 122 482 122 506.5 143 c 128,-1,41
 531 164 531 164 536 194 c 128,-1,42
1059.5 -251.5 m 152,-1,50
 1084 -252 1084 -252 1105 -236 c 128,-1,51
 1126 -220 1126 -220 1130.5 -196.5 c 128,-1,52
 1135 -173 1135 -173 1121 -155.5 c 128,-1,53
 1107 -138 1107 -138 1083 -138 c 0,54,55
 1058 -137 1058 -137 1036.5 -153.5 c 128,-1,56
 1015 -170 1015 -170 1010 -194 c 128,-1,57
 1005 -218 1005 -218 1020 -234.5 c 128,-1,49
 1035 -251 1035 -251 1059.5 -251.5 c 152,-1,50
1155 -396 m 0,58,59
 1003 -396 1003 -396 954.5 -333 c 128,-1,60
 906 -270 906 -270 920 -190 c 0,61,62
 932 -131 932 -131 986.5 -89.5 c 128,-1,63
 1041 -48 1041 -48 1102.5 -50 c 128,-1,64
 1164 -52 1164 -52 1199 -93.5 c 128,-1,65
 1234 -135 1234 -135 1223 -199 c 0,66,67
 1211 -266 1211 -266 1163 -296 c 1,68,69
 1247 -299 1247 -299 1357 -233.5 c 128,-1,70
 1467 -168 1467 -168 1544 -86 c 1,71,-1
 1551 -235 l 1,72,73
 1468 -302 1468 -302 1360.5 -349 c 128,-1,74
 1253 -396 1253 -396 1155 -396 c 0,58,59
EndSplineSet
Substitution2: "Single Substitution lookup 9" uni0E0D.descless
Substitution2: "Single Substitution lookup 8" uni0E0D.descless
EndChar
StartChar: uni0E0E
Encoding: 3598 3598 137
Width: 1440
Flags: W
HStem: -410.017 148.017<522.044 612.2> -116 139<580.304 691.8> -10 132<256 334.42> 266 132<280.397 359> 1072 160<815.8 1146>
AnchorPoint: "BelowBase" 1083.13 -478.5 basechar 0
Fore
617 -116 m 0,0,1
 589 -117 589 -117 552 -141.5 c 128,-1,2
 515 -166 515 -166 509 -201 c 0,3,4
 504 -229 504 -229 517.5 -245.5 c 128,-1,5
 531 -262 531 -262 555 -262 c 0,6,7
 599 -262 599 -262 637.5 -231 c 128,-1,8
 676 -200 676 -200 704 -133 c 1,9,10
 670 -115 670 -115 617 -116 c 0,0,1
602 506 m 2,11,-1
 555 239 l 2,12,13
 537 136 537 136 460.5 63 c 128,-1,14
 384 -10 384 -10 271 -10 c 0,15,16
 187 -10 187 -10 137.5 50 c 128,-1,17
 88 110 88 110 103 194 c 128,-1,18
 118 278 118 278 188.5 338 c 128,-1,19
 259 398 259 398 343 398 c 0,20,21
 394 398 394 398 395 394 c 1,22,-1
 415 506 l 2,23,24
 430 591 430 591 478.5 664 c 128,-1,25
 527 737 527 737 606 760 c 1,26,-1
 385 862 l 1,27,-1
 420 1056 l 17,28,29
 549 1149 549 1149 689.5 1190.5 c 128,-1,30
 830 1232 830 1232 979 1232 c 4,31,32
 1191 1232 1191 1232 1306 1113 c 128,-1,33
 1421 994 1421 994 1379 756 c 2,34,-1
 1174 -410 l 1,35,-1
 989 -410 l 1,36,37
 916 -268 916 -268 841 -201 c 1,38,39
 790 -304 790 -304 714 -356 c 128,-1,40
 638 -408 638 -408 532 -410 c 0,41,42
 434 -411 434 -411 385.5 -353.5 c 128,-1,43
 337 -296 337 -296 351 -217 c 0,44,45
 365 -137 365 -137 419 -81 c 128,-1,46
 473 -25 473 -25 532 -1 c 128,-1,47
 591 23 591 23 657 23 c 0,48,49
 720 23 720 23 763 9 c 1,50,-1
 796 99 l 1,51,-1
 946 42 l 1,52,-1
 908 -52 l 1,53,54
 966 -95 966 -95 1029 -186 c 1,55,-1
 1192 740 l 2,56,57
 1222 909 1222 909 1161.5 989 c 128,-1,58
 1101 1069 1101 1069 951 1072 c 4,59,60
 847 1074 847 1074 743 1039.5 c 128,-1,61
 639 1005 639 1005 558 950 c 1,62,-1
 788 836 l 1,63,-1
 762 688 l 1,64,65
 680 654 680 654 646 607 c 128,-1,66
 612 560 612 560 602 506 c 2,11,-1
235 194 m 128,-1,68
 230 164 230 164 247.5 143 c 128,-1,69
 265 122 265 122 295 122 c 128,-1,70
 325 122 325 122 349.5 143 c 128,-1,71
 374 164 374 164 379 194 c 128,-1,72
 384 224 384 224 367 245 c 128,-1,73
 350 266 350 266 320 266 c 128,-1,74
 290 266 290 266 265 245 c 128,-1,67
 240 224 240 224 235 194 c 128,-1,68
EndSplineSet
EndChar
StartChar: uni0E0F
Encoding: 3599 3599 138
Width: 1440
Flags: W
HStem: -410 128<436.223 519.9> -132 120<474.5 575.9> -10 132<256 334.42> 266 132<280.397 359> 1072 160<815.8 1146>
VStem: 284 138.495<-245.898 -158.67>
AnchorPoint: "BelowBase" 1064.54 -496 basechar 0
Fore
235 194 m 128,-1,1
 230 164 230 164 247.5 143 c 128,-1,2
 265 122 265 122 295 122 c 128,-1,3
 325 122 325 122 349.5 143 c 128,-1,4
 374 164 374 164 379 194 c 128,-1,5
 384 224 384 224 367 245 c 128,-1,6
 350 266 350 266 320 266 c 128,-1,7
 290 266 290 266 265 245 c 128,-1,0
 240 224 240 224 235 194 c 128,-1,1
1174 -410 m 17,8,-1
 968 -410 l 1,9,-1
 921 -271 l 1,10,-1
 832 -410 l 1,11,-1
 738 -410 l 1,12,13
 746 -296 746 -296 701 -221 c 1,14,15
 666 -313 666 -313 599 -361.5 c 128,-1,16
 532 -410 532 -410 462 -410 c 0,17,18
 367 -410 367 -410 320.5 -363 c 128,-1,19
 274 -316 274 -316 284 -230 c 0,20,21
 294 -154 294 -154 368.5 -83 c 128,-1,22
 443 -12 443 -12 559 -12 c 0,23,24
 614 -12 614 -12 649 -32 c 1,25,-1
 677 49 l 1,26,-1
 800 33 l 1,27,-1
 753 -87 l 1,28,29
 810 -126 810 -126 831 -224 c 1,30,-1
 910 -104 l 1,31,-1
 984 -104 l 1,32,-1
 1022 -229 l 1,33,-1
 1192 740 l 2,34,35
 1222 909 1222 909 1161.5 989 c 128,-1,36
 1101 1069 1101 1069 951 1072 c 4,37,38
 847 1074 847 1074 743 1039.5 c 128,-1,39
 639 1005 639 1005 558 950 c 1,40,-1
 788 836 l 1,41,-1
 762 688 l 1,42,43
 680 654 680 654 646 607 c 128,-1,44
 612 560 612 560 602 506 c 2,45,-1
 555 239 l 2,46,47
 537 136 537 136 460.5 63 c 128,-1,48
 384 -10 384 -10 271 -10 c 0,49,50
 187 -10 187 -10 137.5 50 c 128,-1,51
 88 110 88 110 103 194 c 128,-1,52
 118 278 118 278 188.5 338 c 128,-1,53
 259 398 259 398 343 398 c 0,54,55
 394 398 394 398 395 394 c 1,56,-1
 415 506 l 2,57,58
 430 591 430 591 478.5 664 c 128,-1,59
 527 737 527 737 606 760 c 1,60,-1
 385 862 l 1,61,-1
 420 1056 l 17,62,63
 549 1149 549 1149 689.5 1190.5 c 128,-1,64
 830 1232 830 1232 979 1232 c 4,65,66
 1191 1232 1191 1232 1306 1112.5 c 128,-1,67
 1421 993 1421 993 1379 756 c 10,68,-1
 1174 -410 l 17,8,-1
477 -282 m 0,69,70
 510 -282 510 -282 542 -254 c 128,-1,71
 574 -226 574 -226 602 -155 c 1,72,73
 566 -133 566 -133 533 -132 c 0,74,75
 488 -131 488 -131 458 -159.5 c 128,-1,76
 428 -188 428 -188 423 -224 c 0,77,78
 418 -254 418 -254 433.5 -268 c 128,-1,79
 449 -282 449 -282 477 -282 c 0,69,70
EndSplineSet
EndChar
StartChar: uni0E10
Encoding: 3600 3600 139
Width: 1170
Flags: W
HStem: -542 100<196.329 304> -320 105<210.5 332.7> -290 69<694.938 752.3> -119 75<711.027 774.044> 0 21G<683 869> 269 126<420.7 502.168> 544 125<447.7 531> 1062 160<716.4 941.3>
Fore
461 395 m 152,-1,1
 492 395 492 395 518.5 416 c 128,-1,2
 545 437 545 437 551 468 c 0,3,4
 556 499 556 499 537.5 521.5 c 128,-1,5
 519 544 519 544 488 544 c 128,-1,6
 457 544 457 544 430.5 522 c 128,-1,7
 404 500 404 500 399 468 c 0,8,9
 393 438 393 438 411.5 416.5 c 128,-1,0
 430 395 430 395 461 395 c 152,-1,1
1083 608 m 10,10,-1
 869 0 l 1,11,-1
 683 0 l 1,12,13
 684 54 684 54 667.5 162 c 128,-1,14
 651 270 651 270 619 348 c 1,15,16
 607 327 607 327 560 298 c 128,-1,17
 513 269 513 269 441 269 c 8,18,19
 352 269 352 269 305.5 323.5 c 128,-1,20
 259 378 259 378 271 462 c 0,21,22
 286 559 286 559 359.5 615 c 128,-1,23
 433 671 433 671 531 669 c 0,24,25
 649 667 649 667 719.5 557 c 128,-1,26
 790 447 790 447 794 286 c 1,27,-1
 890 566 l 2,28,29
 934 695 934 695 769 722 c 10,30,-1
 275 802 l 17,31,-1
 318 1046 l 17,32,33
 448 1139 448 1139 588.5 1180.5 c 128,-1,34
 729 1222 729 1222 877 1222 c 4,35,36
 979 1222 979 1222 1062 1193.5 c 128,-1,37
 1145 1165 1145 1165 1199 1111 c 128,-1,38
 1253 1057 1253 1057 1273 999 c 9,39,-1
 1101 887 l 17,40,41
 1099 929 1099 929 1064 975 c 128,-1,42
 1029 1021 1029 1021 974.5 1041 c 128,-1,43
 920 1061 920 1061 849 1062 c 4,44,45
 747 1064 747 1064 642.5 1029.5 c 128,-1,46
 538 995 538 995 457 940 c 9,47,-1
 867 878 l 18,48,49
 1163 833 1163 833 1083 608 c 10,10,-1
727 -403 m 1,50,-1
 748 -283 l 1,51,52
 735 -290 735 -290 702 -290 c 0,53,54
 656 -290 656 -290 627 -257.5 c 128,-1,55
 598 -225 598 -225 606 -172 c 0,56,57
 612 -124 612 -124 656.5 -83.5 c 128,-1,58
 701 -43 701 -43 770 -44 c 0,59,60
 855 -45 855 -45 893.5 -103 c 128,-1,61
 932 -161 932 -161 918 -237 c 2,62,-1
 865 -540 l 1,63,-1
 685 -540 l 1,64,65
 655 -482 655 -482 620 -451 c 1,66,67
 576 -483 576 -483 530 -538 c 1,68,-1
 464 -538 l 1,69,70
 468 -476 468 -476 428 -419 c 1,71,72
 391 -476 391 -476 337 -509 c 128,-1,73
 283 -542 283 -542 213 -542 c 0,74,75
 142 -542 142 -542 94 -501 c 128,-1,76
 46 -460 46 -460 58 -390 c 0,77,78
 70 -325 70 -325 130.5 -269 c 128,-1,79
 191 -213 191 -213 286 -215 c 0,80,81
 365 -216 365 -216 406 -255 c 1,82,-1
 446 -184 l 1,83,-1
 526 -252 l 1,84,-1
 484 -318 l 1,85,86
 520 -352 520 -352 528 -406 c 1,87,88
 578 -352 578 -352 644 -320 c 1,89,90
 685 -347 685 -347 727 -403 c 1,50,-1
745 -119 m 24,91,92
 723 -119 723 -119 704.5 -134 c 128,-1,93
 686 -149 686 -149 682 -170 c 128,-1,94
 678 -191 678 -191 691 -206 c 128,-1,95
 704 -221 704 -221 725 -221 c 128,-1,96
 746 -221 746 -221 763.5 -205.5 c 128,-1,97
 781 -190 781 -190 785 -169 c 128,-1,98
 789 -148 789 -148 777 -133.5 c 128,-1,99
 765 -119 765 -119 745 -119 c 24,91,92
176 -394 m 0,100,101
 173 -416 173 -416 192 -429 c 128,-1,102
 211 -442 211 -442 233 -442 c 0,103,104
 302 -441 302 -441 354 -355 c 1,105,106
 318 -321 318 -321 269 -320 c 0,107,108
 224 -319 224 -319 201 -341.5 c 128,-1,109
 178 -364 178 -364 176 -394 c 0,100,101
EndSplineSet
Substitution2: "Single Substitution lookup 9" uni0E10.descless
Substitution2: "Single Substitution lookup 8" uni0E10.descless
EndChar
StartChar: uni0E11
Encoding: 3601 3601 140
Width: 1560
Flags: W
HStem: 0 21G<424 607 1178 1361> 638 106.5<355.55 439.345> 1202 20G<1315 1413.5>
Fore
1223 1007 m 0,0,1
 1131 892 1131 892 1007 558.5 c 128,-1,2
 883 225 883 225 607 0 c 9,3,-1
 424 0 l 1,4,-1
 505 458 l 2,5,6
 516 519 516 519 544.5 570.5 c 128,-1,7
 573 622 573 622 608 659 c 128,-1,8
 643 696 643 696 677 730.5 c 128,-1,9
 711 765 711 765 739.5 807 c 128,-1,10
 768 849 768 849 778 895 c 0,11,12
 809 1040 809 1040 733 1086 c 1,13,-1
 591 1026 l 1,14,-1
 472 1088 l 1,15,16
 394 1054 394 1054 375 987 c 1,17,-1
 451 1002 l 1,18,19
 534 1001 534 1001 572 945 c 128,-1,20
 610 889 610 889 598 816 c 0,21,22
 587 754 587 754 522.5 696.5 c 128,-1,23
 458 639 458 639 382 638 c 0,24,25
 298 637 298 637 242 699 c 128,-1,26
 186 761 186 761 212 910 c 0,27,28
 230 1009 230 1009 309 1101.5 c 128,-1,29
 388 1194 388 1194 512 1226 c 1,30,-1
 618 1159 l 1,31,-1
 749 1221 l 1,32,33
 829 1206 829 1206 882.5 1155 c 128,-1,34
 936 1104 936 1104 954 1039 c 128,-1,35
 972 974 972 974 961 902 c 0,36,37
 953 853 953 853 925 803.5 c 128,-1,38
 897 754 897 754 861.5 711 c 128,-1,39
 826 668 826 668 790.5 623 c 128,-1,40
 755 578 755 578 725.5 522.5 c 128,-1,41
 696 467 696 467 686 408 c 2,42,-1
 657 243 l 17,43,44
 822 393 822 393 926 662.5 c 136,-1,45
 1030 932 1030 932 1106 1050 c 0,46,47
 1147 1114 1147 1114 1205 1168 c 128,-1,48
 1263 1222 1263 1222 1367 1222 c 0,49,50
 1460 1222 1460 1222 1507 1157.5 c 128,-1,51
 1554 1093 1554 1093 1537 997 c 2,52,-1
 1361 0 l 1,53,-1
 1178 0 l 1,54,-1
 1351 980 l 10,55,56
 1365 1059 1365 1059 1309 1060 c 0,57,58
 1281 1060 1281 1060 1262.5 1047 c 128,-1,59
 1244 1034 1244 1034 1223 1007 c 0,0,1
427.5 893.5 m 152,-1,61
 397 894 397 894 369.5 873 c 128,-1,62
 342 852 342 852 335.5 821 c 128,-1,63
 329 790 329 790 347 767.5 c 128,-1,64
 365 745 365 745 396.5 744.5 c 128,-1,65
 428 744 428 744 454.5 765 c 128,-1,66
 481 786 481 786 487.5 817 c 128,-1,67
 494 848 494 848 476 870.5 c 128,-1,60
 458 893 458 893 427.5 893.5 c 152,-1,61
EndSplineSet
EndChar
StartChar: uni0E12
Encoding: 3602 3602 141
Width: 1790
Flags: W
HStem: -10 132<935 1013.42> 713 132<710.397 789> 1183 20G<1630 1810>
Fore
1200 367 m 1,0,-1
 1272 779 l 2,1,2
 1290 878 1290 878 1270.5 966.5 c 128,-1,3
 1251 1055 1251 1055 1189 1123 c 128,-1,4
 1127 1191 1127 1191 1033 1224 c 1,5,-1
 823 1073 l 1,6,-1
 659 1224 l 1,7,8
 552 1192 552 1192 459.5 1125 c 128,-1,9
 367 1058 367 1058 314.5 968 c 128,-1,10
 262 878 262 878 254 778 c 2,11,-1
 195 0 l 1,12,-1
 378 0 l 1,13,14
 620 181 620 181 768 341 c 128,-1,15
 916 501 916 501 941 641 c 0,16,17
 956 725 956 725 906.5 785 c 128,-1,18
 857 845 857 845 773 845 c 128,-1,19
 689 845 689 845 618.5 785 c 128,-1,20
 548 725 548 725 533 641 c 128,-1,21
 518 557 518 557 565.5 499.5 c 128,-1,22
 613 442 613 442 702 442 c 1,23,24
 647 380 647 380 562 318.5 c 128,-1,25
 477 257 477 257 396 220 c 1,26,-1
 434 757 l 2,27,28
 442 855 442 855 497 933.5 c 128,-1,29
 552 1012 552 1012 637 1053 c 1,30,-1
 768 939 l 1,31,-1
 835 939 l 1,32,-1
 1004 1053 l 1,33,34
 1063 1021 1063 1021 1085 949 c 128,-1,35
 1107 877 1107 877 1086 763 c 2,36,-1
 1023 398 l 1,37,38
 938 398 938 398 867.5 338 c 128,-1,39
 797 278 797 278 782 194 c 128,-1,40
 767 110 767 110 816.5 50 c 128,-1,41
 866 -10 866 -10 950 -10 c 128,-1,42
 1034 -10 1034 -10 1104.5 50 c 128,-1,43
 1175 110 1175 110 1190 194 c 1,44,45
 1324 156 1324 156 1420 0 c 1,46,-1
 1598 0 l 1,47,-1
 1810 1203 l 1,48,-1
 1630 1203 l 1,49,-1
 1456 216 l 1,50,51
 1351 324 1351 324 1200 367 c 1,0,-1
914 194 m 128,-1,53
 919 224 919 224 944 245 c 128,-1,54
 969 266 969 266 999 266 c 128,-1,55
 1029 266 1029 266 1046 245 c 128,-1,56
 1063 224 1063 224 1058 194 c 128,-1,57
 1053 164 1053 164 1028.5 143 c 128,-1,58
 1004 122 1004 122 974 122 c 128,-1,59
 944 122 944 122 926.5 143 c 128,-1,52
 909 164 909 164 914 194 c 128,-1,53
665 641 m 128,-1,61
 670 671 670 671 695 692 c 128,-1,62
 720 713 720 713 750 713 c 128,-1,63
 780 713 780 713 797 692 c 128,-1,64
 814 671 814 671 809 641 c 128,-1,65
 804 611 804 611 779 590 c 128,-1,66
 754 569 754 569 724 569 c 128,-1,67
 694 569 694 569 677 590 c 128,-1,60
 660 611 660 611 665 641 c 128,-1,61
EndSplineSet
EndChar
StartChar: uni0E13
Encoding: 3603 3603 142
Width: 1850
Flags: W
HStem: -10 132<414 492.42 1557 1635.42> 266 132<438.397 517> 1072 160<695.6 1003.7>
Fore
1240 756 m 2,0,-1
 1145 216 l 1,1,2
 1298 324 1298 324 1511 387 c 1,3,-1
 1655 1202 l 1,4,-1
 1836 1202 l 1,5,-1
 1694 398 l 1,6,7
 1738 398 1738 398 1782.5 338 c 128,-1,8
 1827 278 1827 278 1812 194 c 128,-1,9
 1797 110 1797 110 1726.5 50 c 128,-1,10
 1656 -10 1656 -10 1572 -10 c 128,-1,11
 1488 -10 1488 -10 1438.5 50 c 128,-1,12
 1389 110 1389 110 1406 204 c 1,13,14
 1267 166 1267 166 1105 0 c 1,15,-1
 924 0 l 1,16,-1
 1054 740 l 2,17,18
 1086 920 1086 920 1028.5 995 c 128,-1,19
 971 1070 971 1070 862 1072 c 4,20,21
 734 1074 734 1074 632 1039.5 c 128,-1,22
 530 1005 530 1005 449 950 c 1,23,-1
 679 836 l 1,24,-1
 652 688 l 1,25,26
 575 660 575 660 522 601.5 c 128,-1,27
 469 543 469 543 456 464 c 2,28,-1
 445 395 l 1,29,30
 447 398 447 398 499 398 c 0,31,32
 583 398 583 398 632.5 338 c 128,-1,33
 682 278 682 278 667 194 c 128,-1,34
 652 110 652 110 581.5 50 c 128,-1,35
 511 -10 511 -10 427 -10 c 0,36,37
 314 -10 314 -10 263.5 63 c 128,-1,38
 213 136 213 136 231 239 c 2,39,-1
 271 465 l 2,40,41
 285 547 285 547 346.5 633 c 128,-1,42
 408 719 408 719 497 760 c 1,43,-1
 277 862 l 1,44,-1
 311 1056 l 17,45,46
 440 1149 440 1149 580.5 1190.5 c 128,-1,47
 721 1232 721 1232 890 1232 c 4,48,49
 1062 1232 1062 1232 1173 1117.5 c 128,-1,50
 1284 1003 1284 1003 1240 756 c 2,0,-1
537 194 m 128,-1,52
 542 224 542 224 525 245 c 128,-1,53
 508 266 508 266 478 266 c 128,-1,54
 448 266 448 266 423 245 c 128,-1,55
 398 224 398 224 393 194 c 128,-1,56
 388 164 388 164 405.5 143 c 128,-1,57
 423 122 423 122 453 122 c 128,-1,58
 483 122 483 122 507.5 143 c 128,-1,51
 532 164 532 164 537 194 c 128,-1,52
1680 194 m 128,-1,60
 1685 224 1685 224 1668 245 c 128,-1,61
 1651 266 1651 266 1621 266 c 128,-1,62
 1591 266 1591 266 1566 245 c 128,-1,63
 1541 224 1541 224 1536 194 c 128,-1,64
 1531 164 1531 164 1548.5 143 c 128,-1,65
 1566 122 1566 122 1596 122 c 128,-1,66
 1626 122 1626 122 1650.5 143 c 128,-1,59
 1675 164 1675 164 1680 194 c 128,-1,60
EndSplineSet
EndChar
StartChar: uni0E14
Encoding: 3604 3604 143
Width: 1330
Flags: W
HStem: 0 21G<215 398 973 1157> 721 132<733.58 812> 1072 160<737.8 959.5>
Fore
408 177 m 1,0,1
 549 276 549 276 725 450 c 1,2,3
 636 450 636 450 589 507.5 c 128,-1,4
 542 565 542 565 556.5 649 c 128,-1,5
 571 733 571 733 641.5 793 c 128,-1,6
 712 853 712 853 796 853 c 128,-1,7
 880 853 880 853 929.5 793 c 128,-1,8
 979 733 979 733 964 649 c 0,9,10
 943 529 943 529 875 448 c 0,11,12
 666 199 666 199 398 0 c 1,13,-1
 215 0 l 1,14,-1
 269 686 l 2,15,16
 280 827 280 827 314.5 900 c 132,-1,17
 349 973 349 973 401 1032.5 c 128,-1,18
 453 1092 453 1092 520 1136.5 c 128,-1,19
 587 1181 587 1181 678 1206.5 c 128,-1,20
 769 1232 769 1232 873 1232 c 0,21,22
 972 1232 972 1232 1050.5 1206.5 c 128,-1,23
 1129 1181 1129 1181 1179.5 1136.5 c 128,-1,24
 1230 1092 1230 1092 1260 1032.5 c 128,-1,25
 1290 973 1290 973 1297 904 c 128,-1,26
 1304 835 1304 835 1278 689 c 2,27,-1
 1157 0 l 1,28,-1
 973 0 l 1,29,-1
 1105 751 l 2,30,31
 1118 823 1118 823 1111.5 879.5 c 128,-1,32
 1105 936 1105 936 1077 980 c 128,-1,33
 1049 1024 1049 1024 991.5 1048 c 128,-1,34
 934 1072 934 1072 849 1072 c 0,35,36
 761 1072 761 1072 688.5 1047 c 128,-1,37
 616 1022 616 1022 567.5 977 c 128,-1,38
 519 932 519 932 488.5 870.5 c 132,-1,39
 458 809 458 809 453 745 c 2,40,-1
 408 177 l 1,0,1
688.5 649 m 128,-1,42
 683 619 683 619 700.5 598 c 128,-1,43
 718 577 718 577 748 577 c 128,-1,44
 778 577 778 577 802.5 598 c 128,-1,45
 827 619 827 619 832.5 649 c 128,-1,46
 838 679 838 679 820.5 700 c 128,-1,47
 803 721 803 721 773 721 c 128,-1,48
 743 721 743 721 718.5 700 c 128,-1,41
 694 679 694 679 688.5 649 c 128,-1,42
EndSplineSet
EndChar
StartChar: uni0E15
Encoding: 3605 3605 144
Width: 1340
Flags: W
HStem: 1 21G<981 1164> 731 132<745.397 824>
Fore
418 177 m 5,0,1
 534 276 534 276 737 460 c 5,2,3
 648 460 648 460 600.5 517.5 c 132,-1,4
 553 575 553 575 568 659 c 132,-1,5
 583 743 583 743 653.5 803 c 132,-1,6
 724 863 724 863 808 863 c 132,-1,7
 892 863 892 863 941.5 803 c 132,-1,8
 991 743 991 743 976 659 c 4,9,10
 955 540 955 540 887 458 c 4,11,12
 659 186 659 186 408 0 c 5,13,-1
 225 1 l 5,14,-1
 287 801 l 6,15,16
 294 897 294 897 347.5 987.5 c 132,-1,17
 401 1078 401 1078 493.5 1145 c 132,-1,18
 586 1212 586 1212 692 1244 c 5,19,-1
 857 1093 l 5,20,-1
 1066 1244 l 5,21,22
 1161 1211 1161 1211 1223 1143 c 132,-1,23
 1285 1075 1285 1075 1304 987.5 c 132,-1,24
 1323 900 1323 900 1305 802 c 6,25,-1
 1164 1 l 5,26,-1
 981 1 l 5,27,-1
 1120 786 l 6,28,29
 1140 899 1140 899 1118.5 970 c 132,-1,30
 1097 1041 1097 1041 1037 1073 c 5,31,-1
 869 959 l 5,32,-1
 802 959 l 5,33,-1
 670 1073 l 5,34,35
 586 1032 586 1032 530.5 953.5 c 132,-1,36
 475 875 475 875 468 780 c 6,37,-1
 418 177 l 5,0,1
700 659 m 132,-1,39
 695 629 695 629 712.5 608 c 132,-1,40
 730 587 730 587 760 587 c 132,-1,41
 790 587 790 587 814.5 608 c 132,-1,42
 839 629 839 629 844 659 c 132,-1,43
 849 689 849 689 832 710 c 132,-1,44
 815 731 815 731 785 731 c 132,-1,45
 755 731 755 731 730 710 c 132,-1,38
 705 689 705 689 700 659 c 132,-1,39
EndSplineSet
EndChar
StartChar: uni0E16
Encoding: 3606 3606 145
Width: 1340
Flags: W
HStem: -10 132<425 503.42> 266 132<449.397 528> 1072 160<719.8 1050>
Fore
548 194 m 128,-1,1
 553 224 553 224 536 245 c 128,-1,2
 519 266 519 266 489 266 c 128,-1,3
 459 266 459 266 434 245 c 128,-1,4
 409 224 409 224 404 194 c 128,-1,5
 399 164 399 164 416.5 143 c 128,-1,6
 434 122 434 122 464 122 c 128,-1,7
 494 122 494 122 518.5 143 c 128,-1,0
 543 164 543 164 548 194 c 128,-1,1
1097 740 m 2,8,9
 1126 908 1126 908 1065.5 988.5 c 128,-1,10
 1005 1069 1005 1069 855 1072 c 4,11,12
 751 1074 751 1074 647 1039.5 c 128,-1,13
 543 1005 543 1005 462 950 c 1,14,-1
 692 836 l 1,15,-1
 665 688 l 1,16,17
 588 660 588 660 535 601.5 c 128,-1,18
 482 543 482 543 469 464 c 2,19,-1
 458 395 l 1,20,21
 460 398 460 398 512 398 c 0,22,23
 596 398 596 398 645.5 338 c 128,-1,24
 695 278 695 278 680 194 c 128,-1,25
 665 110 665 110 594.5 50 c 128,-1,26
 524 -10 524 -10 440 -10 c 0,27,28
 327 -10 327 -10 276.5 63 c 128,-1,29
 226 136 226 136 244 239 c 2,30,-1
 284 465 l 2,31,32
 298 547 298 547 359.5 633 c 128,-1,33
 421 719 421 719 510 760 c 1,34,-1
 290 862 l 1,35,-1
 324 1056 l 17,36,37
 453 1149 453 1149 593.5 1190.5 c 128,-1,38
 734 1232 734 1232 883 1232 c 4,39,40
 1095 1232 1095 1232 1210 1113 c 128,-1,41
 1325 994 1325 994 1283 756 c 2,42,-1
 1150 0 l 17,43,-1
 968 0 l 1,44,-1
 1097 740 l 2,8,9
EndSplineSet
EndChar
StartChar: uni0E17
Encoding: 3607 3607 146
Width: 1420
Flags: W
HStem: 0 21G<345 525 1040 1223> 804 132<416 494> 1070 152<1074.9 1254.2> 1080 132<440.58 519>
Fore
395.5 1008 m 128,-1,1
 390 978 390 978 407.5 957 c 128,-1,2
 425 936 425 936 455 936 c 128,-1,3
 485 936 485 936 509.5 957 c 128,-1,4
 534 978 534 978 539.5 1008 c 128,-1,5
 545 1038 545 1038 527.5 1059 c 128,-1,6
 510 1080 510 1080 480 1080 c 128,-1,7
 450 1080 450 1080 425.5 1059 c 128,-1,0
 401 1038 401 1038 395.5 1008 c 128,-1,1
486 807 m 17,8,9
 484 804 484 804 432 804 c 0,10,11
 348 804 348 804 298.5 864 c 128,-1,12
 249 924 249 924 264 1008 c 128,-1,13
 279 1092 279 1092 349.5 1152 c 128,-1,14
 420 1212 420 1212 504 1212 c 0,15,16
 617 1212 617 1212 667 1139 c 0,17,18
 718 1065 718 1065 700 963 c 10,19,-1
 610 454 l 1,20,21
 772 825 772 825 901 1033 c 0,22,23
 953 1117 953 1117 1028.5 1169.5 c 128,-1,24
 1104 1222 1104 1222 1201 1222 c 0,25,26
 1297 1222 1297 1222 1355.5 1153 c 128,-1,27
 1414 1084 1414 1084 1397 988 c 2,28,-1
 1223 0 l 1,29,-1
 1040 0 l 1,30,-1
 1209 961 l 2,31,32
 1229 1070 1229 1070 1145 1070 c 0,33,34
 1065 1070 1065 1070 1016 988 c 0,35,36
 800 624 800 624 525 0 c 1,37,-1
 345 0 l 25,38,-1
 486 807 l 17,8,9
EndSplineSet
EndChar
StartChar: uni0E18
Encoding: 3608 3608 147
Width: 1200
Flags: W
HStem: 0 154<434 879.8> 1062 160<716.4 941.3>
Fore
1107 588 m 18,0,1
 1146 811 1146 811 894 858 c 10,2,-1
 457 940 l 17,3,4
 538 995 538 995 642.5 1029.5 c 128,-1,5
 747 1064 747 1064 849 1062 c 4,6,7
 920 1061 920 1061 974.5 1041 c 128,-1,8
 1029 1021 1029 1021 1064 975 c 128,-1,9
 1099 929 1099 929 1101 887 c 9,10,-1
 1273 999 l 17,11,12
 1253 1057 1253 1057 1199 1111 c 128,-1,13
 1145 1165 1145 1165 1062 1193.5 c 128,-1,14
 979 1222 979 1222 877 1222 c 4,15,16
 729 1222 729 1222 588.5 1180.5 c 128,-1,17
 448 1139 448 1139 318 1046 c 9,18,-1
 275 802 l 9,19,-1
 797 702 l 18,20,21
 940 675 940 675 917 547 c 2,22,-1
 866 258 l 2,23,24
 848 154 848 154 742 154 c 2,25,-1
 434 154 l 1,26,-1
 526 674 l 1,27,-1
 347 674 l 1,28,-1
 228 0 l 9,29,-1
 715 0 l 18,30,31
 1003 0 1003 0 1038 196 c 2,32,-1
 1107 588 l 18,0,1
EndSplineSet
EndChar
StartChar: uni0E19
Encoding: 3609 3609 148
Width: 1430
Flags: W
HStem: -20 132<1105 1183.42> 804 132<410 488> 1080 132<434.58 513>
Fore
389.5 1008 m 128,-1,1
 384 978 384 978 401.5 957 c 128,-1,2
 419 936 419 936 449 936 c 128,-1,3
 479 936 479 936 503.5 957 c 128,-1,4
 528 978 528 978 533.5 1008 c 128,-1,5
 539 1038 539 1038 521.5 1059 c 128,-1,6
 504 1080 504 1080 474 1080 c 128,-1,7
 444 1080 444 1080 419.5 1059 c 128,-1,0
 395 1038 395 1038 389.5 1008 c 128,-1,1
480 807 m 1,8,9
 478 804 478 804 426 804 c 0,10,11
 342 804 342 804 292.5 864 c 128,-1,12
 243 924 243 924 258 1008 c 128,-1,13
 273 1092 273 1092 343.5 1152 c 128,-1,14
 414 1212 414 1212 498 1212 c 0,15,16
 611 1212 611 1212 661.5 1139 c 128,-1,17
 712 1066 712 1066 694 963 c 2,18,-1
 554 171 l 1,19,20
 753 309 753 309 1049 374 c 1,21,-1
 1195 1202 l 1,22,-1
 1376 1202 l 1,23,-1
 1231 379 l 1,24,25
 1284 378 1284 378 1329.5 323 c 128,-1,26
 1375 268 1375 268 1360.5 184 c 128,-1,27
 1346 100 1346 100 1275 40 c 128,-1,28
 1204 -20 1204 -20 1120 -20 c 128,-1,29
 1036 -20 1036 -20 987 40 c 128,-1,30
 938 100 938 100 954 194 c 1,31,32
 793 164 793 164 521 0 c 1,33,-1
 338 0 l 1,34,-1
 480 807 l 1,8,9
1084.5 184 m 128,-1,36
 1079 154 1079 154 1096.5 133 c 128,-1,37
 1114 112 1114 112 1144 112 c 128,-1,38
 1174 112 1174 112 1198.5 133 c 128,-1,39
 1223 154 1223 154 1228.5 184 c 128,-1,40
 1234 214 1234 214 1216.5 235 c 128,-1,41
 1199 256 1199 256 1169 256 c 128,-1,42
 1139 256 1139 256 1114.5 235 c 128,-1,35
 1090 214 1090 214 1084.5 184 c 128,-1,36
EndSplineSet
EndChar
StartChar: uni0E1A
Encoding: 3610 3610 149
Width: 1400
Flags: W
HStem: 0 154<551 1059> 804 132<410 488> 1080 132<434.58 513>
Fore
389.5 1008 m 132,-1,1
 384 978 384 978 401.5 957 c 132,-1,2
 419 936 419 936 449 936 c 132,-1,3
 479 936 479 936 503.5 957 c 132,-1,4
 528 978 528 978 533.5 1008 c 132,-1,5
 539 1038 539 1038 521.5 1059 c 132,-1,6
 504 1080 504 1080 474 1080 c 132,-1,7
 444 1080 444 1080 419.5 1059 c 132,-1,0
 395 1038 395 1038 389.5 1008 c 132,-1,1
338 0 m 5,8,-1
 480 807 l 5,9,10
 478 804 478 804 426 804 c 4,11,12
 342 804 342 804 292.5 864 c 132,-1,13
 243 924 243 924 258 1008 c 132,-1,14
 273 1092 273 1092 343.5 1152 c 132,-1,15
 414 1212 414 1212 498 1212 c 4,16,17
 611 1212 611 1212 661.5 1139 c 132,-1,18
 712 1066 712 1066 694 963 c 6,19,-1
 551 154 l 5,20,-1
 1059 154 l 5,21,-1
 1244 1202 l 5,22,-1
 1426 1202 l 5,23,-1
 1214 0 l 5,24,-1
 338 0 l 5,8,-1
EndSplineSet
EndChar
StartChar: uni0E1B
Encoding: 3611 3611 150
Width: 1400
Flags: W
HStem: 0 154<551 1059> 804 132<410 488> 1080 132<434.58 513>
AnchorPoint: "AboveBase" 1178.98 1344 basechar 0
Fore
389.5 1008 m 132,-1,1
 384 978 384 978 401.5 957 c 132,-1,2
 419 936 419 936 449 936 c 132,-1,3
 479 936 479 936 503.5 957 c 132,-1,4
 528 978 528 978 533.5 1008 c 132,-1,5
 539 1038 539 1038 521.5 1059 c 132,-1,6
 504 1080 504 1080 474 1080 c 132,-1,7
 444 1080 444 1080 419.5 1059 c 132,-1,0
 395 1038 395 1038 389.5 1008 c 132,-1,1
338 0 m 5,8,-1
 480 807 l 5,9,10
 478 804 478 804 426 804 c 4,11,12
 342 804 342 804 292.5 864 c 132,-1,13
 243 924 243 924 258 1008 c 132,-1,14
 273 1092 273 1092 343.5 1152 c 132,-1,15
 414 1212 414 1212 498 1212 c 4,16,17
 611 1212 611 1212 661.5 1139 c 132,-1,18
 712 1066 712 1066 694 963 c 6,19,-1
 551 154 l 5,20,-1
 1059 154 l 5,21,-1
 1321 1638 l 5,22,-1
 1503 1638 l 5,23,-1
 1214 0 l 5,24,-1
 338 0 l 5,8,-1
EndSplineSet
EndChar
StartChar: uni0E1C
Encoding: 3612 3612 151
Width: 1350
Flags: W
HStem: 0 21G<176 367 956 1160> 804 132<542 620.42> 1080 132<566.58 645>
Fore
665.5 1008 m 128,-1,1
 671 1038 671 1038 653.5 1059 c 128,-1,2
 636 1080 636 1080 606 1080 c 128,-1,3
 576 1080 576 1080 551.5 1059 c 128,-1,4
 527 1038 527 1038 521.5 1008 c 128,-1,5
 516 978 516 978 533.5 957 c 128,-1,6
 551 936 551 936 581 936 c 128,-1,7
 611 936 611 936 635.5 957 c 128,-1,0
 660 978 660 978 665.5 1008 c 128,-1,1
505 807 m 1,8,-1
 415 299 l 1,9,-1
 705 704 l 1,10,-1
 879 704 l 1,11,-1
 1030 303 l 1,12,-1
 1189 1202 l 1,13,-1
 1372 1202 l 1,14,-1
 1160 0 l 1,15,-1
 956 0 l 1,16,-1
 758 542 l 1,17,-1
 367 0 l 1,18,-1
 176 0 l 1,19,-1
 346 963 l 2,20,21
 364 1066 364 1066 440.5 1139 c 128,-1,22
 517 1212 517 1212 630 1212 c 0,23,24
 714 1212 714 1212 763.5 1152 c 128,-1,25
 813 1092 813 1092 798 1008 c 128,-1,26
 783 924 783 924 712.5 864 c 128,-1,27
 642 804 642 804 558 804 c 0,28,29
 507 804 507 804 505 807 c 1,8,-1
EndSplineSet
EndChar
StartChar: uni0E1D
Encoding: 3613 3613 152
Width: 1350
Flags: W
HStem: 0 21G<176 367 956 1160> 804 132<542 620.42> 1080 132<566.58 645>
AnchorPoint: "AboveBase" 1136.28 1340 basechar 0
Fore
665.5 1008 m 128,-1,1
 671 1038 671 1038 653.5 1059 c 128,-1,2
 636 1080 636 1080 606 1080 c 128,-1,3
 576 1080 576 1080 551.5 1059 c 128,-1,4
 527 1038 527 1038 521.5 1008 c 128,-1,5
 516 978 516 978 533.5 957 c 128,-1,6
 551 936 551 936 581 936 c 128,-1,7
 611 936 611 936 635.5 957 c 128,-1,0
 660 978 660 978 665.5 1008 c 128,-1,1
505 807 m 1,8,-1
 415 299 l 1,9,-1
 705 704 l 1,10,-1
 879 704 l 1,11,-1
 1030 303 l 1,12,-1
 1266 1638 l 1,13,-1
 1449 1638 l 1,14,-1
 1160 0 l 1,15,-1
 956 0 l 1,16,-1
 758 542 l 1,17,-1
 367 0 l 1,18,-1
 176 0 l 1,19,-1
 346 963 l 2,20,21
 364 1066 364 1066 440.5 1139 c 128,-1,22
 517 1212 517 1212 630 1212 c 0,23,24
 714 1212 714 1212 763.5 1152 c 128,-1,25
 813 1092 813 1092 798 1008 c 128,-1,26
 783 924 783 924 712.5 864 c 128,-1,27
 642 804 642 804 558 804 c 0,28,29
 507 804 507 804 505 807 c 1,8,-1
EndSplineSet
EndChar
StartChar: uni0E1E
Encoding: 3614 3614 153
Width: 1460
Flags: W
HStem: 0 21G<328 521 1055 1260> 804 132<400 478> 1080 132<424.58 503>
Fore
379.5 1008 m 128,-1,1
 374 978 374 978 391.5 957 c 128,-1,2
 409 936 409 936 439 936 c 128,-1,3
 469 936 469 936 493.5 957 c 128,-1,4
 518 978 518 978 523.5 1008 c 128,-1,5
 529 1038 529 1038 511.5 1059 c 128,-1,6
 494 1080 494 1080 464 1080 c 128,-1,7
 434 1080 434 1080 409.5 1059 c 128,-1,0
 385 1038 385 1038 379.5 1008 c 128,-1,1
580 372 m 1,8,-1
 900 1088 l 1,9,-1
 1076 1088 l 1,10,-1
 1143 376 l 1,11,-1
 1289 1202 l 1,12,-1
 1471 1202 l 1,13,-1
 1260 0 l 1,14,-1
 1055 0 l 1,15,-1
 954 926 l 1,16,-1
 521 0 l 1,17,-1
 328 0 l 1,18,-1
 470 807 l 1,19,20
 468 804 468 804 416 804 c 0,21,22
 332 804 332 804 282.5 864 c 128,-1,23
 233 924 233 924 248 1008 c 128,-1,24
 263 1092 263 1092 333.5 1152 c 128,-1,25
 404 1212 404 1212 488 1212 c 0,26,27
 601 1212 601 1212 651.5 1139 c 128,-1,28
 702 1066 702 1066 684 963 c 2,29,-1
 580 372 l 1,8,-1
EndSplineSet
EndChar
StartChar: uni0E1F
Encoding: 3615 3615 154
Width: 1460
Flags: W
HStem: 0 21G<328 521 1055 1260> 804 132<400 478> 1080 132<424.58 503>
AnchorPoint: "AboveBase" 1244.52 1296 basechar 0
Fore
379.5 1008 m 128,-1,1
 374 978 374 978 391.5 957 c 128,-1,2
 409 936 409 936 439 936 c 128,-1,3
 469 936 469 936 493.5 957 c 128,-1,4
 518 978 518 978 523.5 1008 c 128,-1,5
 529 1038 529 1038 511.5 1059 c 128,-1,6
 494 1080 494 1080 464 1080 c 128,-1,7
 434 1080 434 1080 409.5 1059 c 128,-1,0
 385 1038 385 1038 379.5 1008 c 128,-1,1
580 372 m 1,8,-1
 900 1088 l 1,9,-1
 1076 1088 l 1,10,-1
 1143 376 l 1,11,-1
 1366 1638 l 1,12,-1
 1548 1638 l 1,13,-1
 1260 0 l 1,14,-1
 1055 0 l 1,15,-1
 954 926 l 1,16,-1
 521 0 l 1,17,-1
 328 0 l 1,18,-1
 470 807 l 1,19,20
 468 804 468 804 416 804 c 0,21,22
 332 804 332 804 282.5 864 c 128,-1,23
 233 924 233 924 248 1008 c 128,-1,24
 263 1092 263 1092 333.5 1152 c 128,-1,25
 404 1212 404 1212 488 1212 c 0,26,27
 601 1212 601 1212 651.5 1139 c 128,-1,28
 702 1066 702 1066 684 963 c 2,29,-1
 580 372 l 1,8,-1
EndSplineSet
EndChar
StartChar: uni0E20
Encoding: 3616 3616 155
Width: 1440
Flags: W
HStem: -10 132<256 334.42> 266 132<280.397 359> 1072 160<815.8 1147.3>
Fore
235 194 m 128,-1,1
 230 164 230 164 247.5 143 c 128,-1,2
 265 122 265 122 295 122 c 128,-1,3
 325 122 325 122 349.5 143 c 128,-1,4
 374 164 374 164 379 194 c 128,-1,5
 384 224 384 224 367 245 c 128,-1,6
 350 266 350 266 320 266 c 128,-1,7
 290 266 290 266 265 245 c 128,-1,0
 240 224 240 224 235 194 c 128,-1,1
1191 740 m 2,8,9
 1221 910 1221 910 1161.5 989.5 c 128,-1,10
 1102 1069 1102 1069 951 1072 c 4,11,12
 847 1074 847 1074 743.5 1039.5 c 128,-1,13
 640 1005 640 1005 557 950 c 1,14,-1
 788 836 l 1,15,-1
 762 688 l 1,16,17
 680 654 680 654 646 607 c 128,-1,18
 612 560 612 560 603 506 c 2,19,-1
 556 239 l 2,20,21
 538 137 538 137 461 63.5 c 128,-1,22
 384 -10 384 -10 271 -10 c 0,23,24
 187 -10 187 -10 137.5 50 c 128,-1,25
 88 110 88 110 103 194 c 128,-1,26
 118 278 118 278 188.5 338 c 128,-1,27
 259 398 259 398 343 398 c 0,28,29
 395 398 395 398 396 394 c 1,30,-1
 416 506 l 2,31,32
 430 591 430 591 478.5 664 c 128,-1,33
 527 737 527 737 606 760 c 1,34,-1
 386 862 l 1,35,-1
 420 1056 l 17,36,37
 548 1149 548 1149 689 1190.5 c 128,-1,38
 830 1232 830 1232 979 1232 c 4,39,40
 1192 1232 1192 1232 1306.5 1113 c 128,-1,41
 1421 994 1421 994 1379 756 c 2,42,-1
 1246 -1 l 1,43,-1
 1061 1 l 1,44,-1
 1191 740 l 2,8,9
EndSplineSet
EndChar
StartChar: uni0E21
Encoding: 3617 3617 156
Width: 1370
Flags: W
HStem: -20 152<291 369.603> 276 142<316.397 395> 804 132<451 529> 1080 132<475.58 554>
Fore
1002 0 m 1,0,1
 831 154 831 154 602 212 c 5,2,3
 584 108 584 108 506.5 43.5 c 128,-1,4
 429 -21 429 -21 303 -20 c 0,5,6
 219 -20 219 -20 170 40 c 128,-1,7
 121 100 121 100 139 204 c 0,8,9
 156 298 156 298 232 358.5 c 128,-1,10
 308 419 308 419 381 418 c 8,11,12
 452 418 452 418 453 417 c 1,13,-1
 521 807 l 1,14,15
 519 804 519 804 467 804 c 0,16,17
 383 804 383 804 333.5 864 c 128,-1,18
 284 924 284 924 299 1008 c 128,-1,19
 314 1092 314 1092 384.5 1152 c 128,-1,20
 455 1212 455 1212 539 1212 c 0,21,22
 652 1212 652 1212 702.5 1139 c 128,-1,23
 753 1066 753 1066 735 963 c 2,24,-1
 634 389 l 5,25,26
 848 346 848 346 1045 209 c 1,27,-1
 1220 1202 l 1,28,-1
 1404 1202 l 1,29,-1
 1192 0 l 1,30,-1
 1002 0 l 1,0,1
271 204 m 128,-1,32
 266 174 266 174 283 153 c 128,-1,33
 300 132 300 132 330 132 c 128,-1,34
 360 132 360 132 385 153 c 128,-1,35
 410 174 410 174 415 204 c 128,-1,36
 420 234 420 234 403 255 c 128,-1,37
 386 276 386 276 356 276 c 128,-1,38
 326 276 326 276 301 255 c 128,-1,31
 276 234 276 234 271 204 c 128,-1,32
430.5 1008 m 128,-1,40
 425 978 425 978 442.5 957 c 128,-1,41
 460 936 460 936 490 936 c 128,-1,42
 520 936 520 936 544.5 957 c 128,-1,43
 569 978 569 978 574.5 1008 c 128,-1,44
 580 1038 580 1038 562.5 1059 c 128,-1,45
 545 1080 545 1080 515 1080 c 128,-1,46
 485 1080 485 1080 460.5 1059 c 128,-1,39
 436 1038 436 1038 430.5 1008 c 128,-1,40
EndSplineSet
EndChar
StartChar: uni0E22
Encoding: 3618 3618 157
Width: 1290
Flags: W
HStem: 0 154<387 951> 509 185<689.994 790.706> 804 132<560 638.42> 1080 132<584.58 663>
Fore
683.5 1008 m 128,-1,1
 689 1038 689 1038 671.5 1059 c 128,-1,2
 654 1080 654 1080 624 1080 c 128,-1,3
 594 1080 594 1080 569.5 1059 c 128,-1,4
 545 1038 545 1038 539.5 1008 c 128,-1,5
 534 978 534 978 551.5 957 c 128,-1,6
 569 936 569 936 599 936 c 128,-1,7
 629 936 629 936 653.5 957 c 128,-1,0
 678 978 678 978 683.5 1008 c 128,-1,1
466 848 m 1,8,9
 468 780 468 780 544.5 736.5 c 128,-1,10
 621 693 621 693 775 694 c 9,11,-1
 743 509 l 17,12,13
 591 509 591 509 511.5 455 c 128,-1,14
 432 401 432 401 414 302 c 2,15,-1
 387 154 l 1,16,-1
 951 154 l 1,17,-1
 1136 1202 l 1,18,-1
 1320 1202 l 1,19,-1
 1108 0 l 1,20,-1
 162 0 l 1,21,-1
 216 304 l 2,22,23
 238 427 238 427 309 500 c 128,-1,24
 380 573 380 573 491 606 c 1,25,26
 392 640 392 640 338 724 c 128,-1,27
 284 808 284 808 309 932 c 0,28,29
 335 1055 335 1055 429 1133.5 c 152,-1,30
 523 1212 523 1212 648 1212 c 0,31,32
 732 1212 732 1212 781.5 1152 c 128,-1,33
 831 1092 831 1092 816 1008 c 128,-1,34
 801 924 801 924 730.5 864 c 128,-1,35
 660 804 660 804 576 804 c 0,36,37
 519 804 519 804 466 848 c 1,8,9
EndSplineSet
EndChar
StartChar: uni0E23
Encoding: 3619 3619 158
Width: 1150
Flags: W
HStem: -20 132<637 715.42> 256 132<661.58 740> 1062 160<706.4 931.3>
VStem: 265 998<802 999>
Back
603.731 184.059 m 128,-1,1
 603.731 154.059 603.731 154.059 624.731 133.059 c 128,-1,2
 645.731 112.059 645.731 112.059 675.731 112.059 c 128,-1,3
 705.731 112.059 705.731 112.059 726.731 133.059 c 128,-1,4
 747.731 154.059 747.731 154.059 747.731 184.059 c 128,-1,5
 747.731 214.059 747.731 214.059 726.731 235.059 c 128,-1,6
 705.731 256.059 705.731 256.059 675.731 256.059 c 128,-1,7
 645.731 256.059 645.731 256.059 624.731 235.059 c 128,-1,0
 603.731 214.059 603.731 214.059 603.731 184.059 c 128,-1,1
916 229 m 2,8,9
 916 126.394 916 126.394 852.219 53.2266 c 128,-1,10
 788.438 -19.9414 788.438 -19.9414 675.731 -19.9414 c 0,11,12
 591.731 -19.9414 591.731 -19.9414 531.731 40.0586 c 128,-1,13
 471.731 100.059 471.731 100.059 471.731 184.059 c 128,-1,14
 471.731 268.059 471.731 268.059 531.731 328.059 c 128,-1,15
 591.731 388.059 591.731 388.059 675.731 388.059 c 0,16,17
 727.551 388.059 727.551 388.059 730 385 c 1,18,-1
 730 585.917 l 2,19,20
 730 752 730 752 472 752 c 10,21,-1
 146 752 l 17,22,23
 146 960.232 146 960.232 272.072 1091.12 c 128,-1,24
 398.144 1222 398.144 1222 631 1222 c 0,25,26
 771 1222 771 1222 866 1202.5 c 128,-1,27
 961 1183 961 1183 1062 1144 c 1,28,-1
 1062 974 l 1,29,30
 978 1020 978 1020 887 1043 c 128,-1,31
 796 1066 796 1066 650 1066 c 0,32,33
 534.416 1066 534.416 1066 449.007 1008 c 128,-1,34
 363.599 950 363.599 950 350 898 c 9,35,-1
 542 898 l 18,36,37
 916 898 916 898 916 628 c 2,38,-1
 916 229 l 2,8,9
EndSplineSet
Fore
616.5 184 m 128,-1,1
 611 154 611 154 628.5 133 c 128,-1,2
 646 112 646 112 676 112 c 128,-1,3
 706 112 706 112 730.5 133 c 128,-1,4
 755 154 755 154 760.5 184 c 128,-1,5
 766 214 766 214 748.5 235 c 128,-1,6
 731 256 731 256 701 256 c 128,-1,7
 671 256 671 256 646.5 235 c 128,-1,0
 622 214 622 214 616.5 184 c 128,-1,1
1263 999 m 9,8,-1
 1091 887 l 17,9,10
 1089 929 1089 929 1054 975 c 128,-1,11
 1019 1021 1019 1021 964.5 1041 c 128,-1,12
 910 1061 910 1061 839 1062 c 4,13,14
 737 1064 737 1064 632.5 1029.5 c 128,-1,15
 528 995 528 995 447 940 c 9,16,-1
 783 858 l 18,17,18
 1036 796 1036 796 1000 588 c 2,19,-1
 936 229 l 2,20,21
 918 126 918 126 841 53 c 128,-1,22
 764 -20 764 -20 652 -20 c 0,23,24
 568 -20 568 -20 519 40 c 128,-1,25
 470 100 470 100 484.5 184 c 128,-1,26
 499 268 499 268 569.5 328 c 128,-1,27
 640 388 640 388 724 388 c 0,28,29
 776 388 776 388 778 385 c 1,30,-1
 806 546 l 2,31,32
 828 668 828 668 686 702 c 10,33,-1
 265 802 l 17,34,-1
 308 1046 l 17,35,36
 438 1139 438 1139 578.5 1180.5 c 128,-1,37
 719 1222 719 1222 867 1222 c 4,38,39
 969 1222 969 1222 1052 1193.5 c 128,-1,40
 1135 1165 1135 1165 1189 1111 c 128,-1,41
 1243 1057 1243 1057 1263 999 c 9,8,-1
EndSplineSet
EndChar
StartChar: uni0E24
Encoding: 3620 3620 159
Width: 1340
Flags: W
HStem: -10 132<425 503.42> 266 132<449.397 528> 1072 160<719.8 1050>
Fore
548 194 m 128,-1,1
 553 224 553 224 536 245 c 128,-1,2
 519 266 519 266 489 266 c 128,-1,3
 459 266 459 266 434 245 c 128,-1,4
 409 224 409 224 404 194 c 128,-1,5
 399 164 399 164 416.5 143 c 128,-1,6
 434 122 434 122 464 122 c 128,-1,7
 494 122 494 122 518.5 143 c 128,-1,0
 543 164 543 164 548 194 c 128,-1,1
1097 740 m 2,8,9
 1127 907 1127 907 1066 988 c 128,-1,10
 1005 1069 1005 1069 855 1072 c 0,11,12
 751 1074 751 1074 647 1039.5 c 128,-1,13
 543 1005 543 1005 462 950 c 1,14,-1
 692 836 l 1,15,-1
 666 688 l 1,16,17
 588 660 588 660 535 601.5 c 128,-1,18
 482 543 482 543 469 464 c 2,19,-1
 458 395 l 1,20,21
 460 398 460 398 512 398 c 0,22,23
 596 398 596 398 645.5 338 c 128,-1,24
 695 278 695 278 680 194 c 128,-1,25
 665 110 665 110 594.5 50 c 128,-1,26
 524 -10 524 -10 440 -10 c 0,27,28
 327 -10 327 -10 276.5 63 c 128,-1,29
 226 136 226 136 244 239 c 2,30,-1
 284 465 l 2,31,32
 298 547 298 547 359.5 633 c 128,-1,33
 421 719 421 719 510 760 c 1,34,-1
 290 862 l 1,35,-1
 324 1056 l 17,36,37
 453 1149 453 1149 593.5 1190.5 c 128,-1,38
 734 1232 734 1232 883 1232 c 0,39,40
 1095 1232 1095 1232 1210 1113 c 128,-1,41
 1325 994 1325 994 1283 756 c 2,42,-1
 1078 -410 l 17,43,-1
 896 -410 l 1,44,-1
 1097 740 l 2,8,9
EndSplineSet
EndChar
StartChar: uni0E25
Encoding: 3621 3621 160
Width: 1290
Flags: W
HStem: -10 128<406.7 487.3> 267 129<435.337 514.3> 705 162<541.5 771.6> 1072 160<650.276 987.5>
VStem: 232 1014<290 756>
Fore
323 972 m 9,0,-1
 353 1142 l 17,1,2
 457 1189 457 1189 576.5 1210.5 c 128,-1,3
 696 1232 696 1232 827 1232 c 4,4,5
 1065 1232 1065 1232 1176 1110.5 c 128,-1,6
 1287 989 1287 989 1246 756 c 2,7,-1
 1113 0 l 1,8,-1
 909 1 l 17,9,10
 863 427 863 427 802 565.5 c 128,-1,11
 741 704 741 704 639 705 c 0,12,13
 564 706 564 706 517.5 647.5 c 128,-1,14
 471 589 471 589 451 477 c 2,15,-1
 435 384 l 1,16,17
 464 397 464 397 504 396 c 0,18,19
 584 394 584 394 634.5 342.5 c 128,-1,20
 685 291 685 291 671 202 c 0,21,22
 655 100 655 100 579 45 c 128,-1,23
 503 -10 503 -10 413 -10 c 0,24,25
 298 -10 298 -10 251.5 64.5 c 128,-1,26
 205 139 205 139 232 290 c 2,27,-1
 267 486 l 2,28,29
 290 619 290 619 397.5 743.5 c 128,-1,30
 505 868 505 868 674 867 c 0,31,32
 832 866 832 866 902 742 c 128,-1,33
 972 618 972 618 1002 406 c 0,34,-1
 1060 740 l 2,35,36
 1087 891 1087 891 1015.5 981.5 c 128,-1,37
 944 1072 944 1072 799 1072 c 4,38,39
 685 1072 685 1072 566 1047.5 c 128,-1,40
 447 1023 447 1023 323 972 c 9,0,-1
474 267 m 152,-1,42
 443 267 443 267 416.5 246 c 128,-1,43
 390 225 390 225 384.5 194 c 128,-1,44
 379 163 379 163 397.5 140.5 c 128,-1,45
 416 118 416 118 447 118 c 128,-1,46
 478 118 478 118 504.5 140.5 c 128,-1,47
 531 163 531 163 536 194 c 0,48,49
 541 224 541 224 523 245.5 c 128,-1,41
 505 267 505 267 474 267 c 152,-1,42
EndSplineSet
EndChar
StartChar: uni0E26
Encoding: 3622 3622 161
Width: 1420
Flags: W
HStem: -10 132<256 334.42> 266 132<280.397 359> 1072 160<815.8 1147.3>
Fore
235 194 m 128,-1,1
 230 164 230 164 247.5 143 c 128,-1,2
 265 122 265 122 295 122 c 128,-1,3
 325 122 325 122 349.5 143 c 128,-1,4
 374 164 374 164 379 194 c 128,-1,5
 384 224 384 224 367 245 c 128,-1,6
 350 266 350 266 320 266 c 128,-1,7
 290 266 290 266 265 245 c 128,-1,0
 240 224 240 224 235 194 c 128,-1,1
1191 740 m 2,8,9
 1221 910 1221 910 1161.5 989.5 c 128,-1,10
 1102 1069 1102 1069 951 1072 c 4,11,12
 847 1074 847 1074 743.5 1039.5 c 128,-1,13
 640 1005 640 1005 557 950 c 1,14,-1
 788 836 l 1,15,-1
 762 688 l 1,16,17
 680 654 680 654 646 607 c 128,-1,18
 612 560 612 560 603 506 c 2,19,-1
 556 239 l 2,20,21
 538 137 538 137 461 63.5 c 128,-1,22
 384 -10 384 -10 271 -10 c 0,23,24
 187 -10 187 -10 137.5 50 c 128,-1,25
 88 110 88 110 103 194 c 128,-1,26
 118 278 118 278 188.5 338 c 128,-1,27
 259 398 259 398 343 398 c 0,28,29
 395 398 395 398 396 394 c 1,30,-1
 416 506 l 2,31,32
 430 591 430 591 478.5 664 c 128,-1,33
 527 737 527 737 606 760 c 1,34,-1
 386 862 l 1,35,-1
 420 1056 l 17,36,37
 548 1149 548 1149 689 1190.5 c 128,-1,38
 830 1232 830 1232 979 1232 c 4,39,40
 1192 1232 1192 1232 1306.5 1113 c 128,-1,41
 1421 994 1421 994 1379 756 c 2,42,-1
 1174 -409 l 1,43,-1
 989 -409 l 1,44,-1
 1191 740 l 2,8,9
EndSplineSet
EndChar
StartChar: uni0E27
Encoding: 3623 3623 162
Width: 1140
Flags: W
HStem: -20 132<684 762.603> 256 132<709.397 788> 1066 156<544.921 826.3>
VStem: 252 818<714 974>
Fore
664 184 m 128,-1,1
 659 154 659 154 676 133 c 128,-1,2
 693 112 693 112 723 112 c 128,-1,3
 753 112 753 112 778 133 c 128,-1,4
 803 154 803 154 808 184 c 128,-1,5
 813 214 813 214 796 235 c 128,-1,6
 779 256 779 256 749 256 c 128,-1,7
 719 256 719 256 694 235 c 128,-1,0
 669 214 669 214 664 184 c 128,-1,1
898 796 m 2,8,9
 921 927 921 927 851 996.5 c 128,-1,10
 781 1066 781 1066 630 1066 c 4,11,12
 534 1066 534 1066 439 1043 c 128,-1,13
 344 1020 344 1020 252 974 c 1,14,-1
 282 1144 l 1,15,16
 390 1183 390 1183 488 1202.5 c 128,-1,17
 586 1222 586 1222 676 1222 c 4,18,19
 919 1222 919 1222 1017 1096 c 128,-1,20
 1115 970 1115 970 1070 714 c 2,21,-1
 984 229 l 2,22,23
 966 126 966 126 889.5 53 c 128,-1,24
 813 -20 813 -20 700 -20 c 0,25,26
 616 -20 616 -20 566.5 40 c 128,-1,27
 517 100 517 100 532 184 c 128,-1,28
 547 268 547 268 617.5 328 c 128,-1,29
 688 388 688 388 772 388 c 0,30,31
 824 388 824 388 826 385 c 1,32,-1
 898 796 l 2,8,9
EndSplineSet
EndChar
StartChar: uni0E28
Encoding: 3624 3624 163
Width: 1350
Flags: W
HStem: 0 21G<195 378 953 1136> 451 132<685 763.42> 727 132<709.58 788> 1064 160<596.6 980.7>
Fore
1087 891 m 1,0,1
 1033 856 1033 856 954 818 c 9,2,-1
 898 922 l 17,3,4
 962 962 962 962 1019 1012 c 1,5,6
 953 1064 953 1064 828 1064 c 0,7,8
 650 1064 650 1064 548.5 970.5 c 128,-1,9
 447 877 447 877 432 737 c 2,10,-1
 399 428 l 1,11,12
 406 479 406 479 474.5 607.5 c 128,-1,13
 543 736 543 736 607 790 c 0,14,15
 688 859 688 859 772 859 c 128,-1,16
 856 859 856 859 905.5 799 c 128,-1,17
 955 739 955 739 940.5 655 c 128,-1,18
 926 571 926 571 855.5 511 c 128,-1,19
 785 451 785 451 701 451 c 128,-1,20
 617 451 617 451 567 511 c 1,21,22
 444 323 444 323 378 0 c 1,23,-1
 195 0 l 1,24,-1
 248 678 l 2,25,26
 271 980 271 980 458 1102 c 128,-1,27
 645 1224 645 1224 852 1224 c 0,28,29
 951 1224 951 1224 1029.5 1198.5 c 128,-1,30
 1108 1173 1108 1173 1158 1128 c 1,31,32
 1244 1202 1244 1202 1334 1315 c 9,33,-1
 1415 1150 l 17,34,35
 1335 1066 1335 1066 1249 1001 c 1,36,37
 1294 892 1294 892 1257 681 c 2,38,-1
 1136 0 l 1,39,-1
 953 0 l 1,40,-1
 1084 743 l 2,41,42
 1099 826 1099 826 1087 891 c 1,0,1
664.5 655 m 128,-1,44
 659 625 659 625 676.5 604 c 128,-1,45
 694 583 694 583 724 583 c 128,-1,46
 754 583 754 583 778.5 604 c 128,-1,47
 803 625 803 625 808.5 655 c 128,-1,48
 814 685 814 685 796.5 706 c 128,-1,49
 779 727 779 727 749 727 c 128,-1,50
 719 727 719 727 694.5 706 c 128,-1,43
 670 685 670 685 664.5 655 c 128,-1,44
EndSplineSet
EndChar
StartChar: uni0E29
Encoding: 3625 3625 164
Width: 1420
Flags: W
HStem: 0 154<553 1061> 416 136<823 901.603> 696 114<848.397 927> 804 132<412 490> 1080 132<436.58 515>
Back
678 634 m 132,-1,1
 678 604 678 604 699 583 c 132,-1,2
 720 562 720 562 750 562 c 132,-1,3
 780 562 780 562 801 583 c 132,-1,4
 822 604 822 604 822 634 c 132,-1,5
 822 664 822 664 801 685 c 132,-1,6
 780 706 780 706 750 706 c 132,-1,7
 720 706 720 706 699 685 c 132,-1,0
 678 664 678 664 678 634 c 132,-1,1
214 1008 m 128,-1,9
 214 978 214 978 235 957 c 128,-1,10
 256 936 256 936 286 936 c 128,-1,11
 316 936 316 936 337 957 c 128,-1,12
 358 978 358 978 358 1008 c 128,-1,13
 358 1038 358 1038 337 1059 c 128,-1,14
 316 1080 316 1080 286 1080 c 128,-1,15
 256 1080 256 1080 235 1059 c 128,-1,8
 214 1038 214 1038 214 1008 c 128,-1,9
932.973 567.945 m 5,16,-1
 1019 607 l 13,17,-1
 1019 1202 l 1,18,-1
 1201 1202 l 1,19,-1
 1201 703 l 29,20,-1
 1297 778 l 21,21,-1
 1324 616 l 5,22,-1
 1201 545 l 13,23,-1
 1201 0 l 1,24,-1
 340 0 l 1,25,-1
 340 807 l 1,26,27
 338 804 338 804 286 804 c 0,28,29
 202 804 202 804 142 864 c 128,-1,30
 82 924 82 924 82 1008 c 128,-1,31
 82 1092 82 1092 142 1152 c 128,-1,32
 202 1212 202 1212 286 1212 c 0,33,34
 399 1212 399 1212 462.5 1139 c 128,-1,35
 526 1066 526 1066 526 963 c 2,36,-1
 526 154 l 1,37,-1
 1019 154 l 1,38,-1
 1019 477 l 21,39,40
 851.041 426 851.041 426 772 426 c 4,41,42
 671.945 426 671.945 426 613.603 483.547 c 132,-1,43
 555.261 541.095 555.261 541.095 556.334 631.283 c 4,44,45
 557.322 714.29 557.322 714.29 616.722 768.359 c 132,-1,46
 676.122 822.429 676.122 822.429 765.548 819.707 c 4,47,48
 820.404 818.037 820.404 818.037 881.408 775.431 c 132,-1,49
 942.413 732.825 942.413 732.825 943.573 637.928 c 4,50,51
 944.5 596 944.5 596 932.973 567.945 c 5,16,-1
EndSplineSet
Fore
391.5 1008 m 128,-1,1
 386 978 386 978 403.5 957 c 128,-1,2
 421 936 421 936 451 936 c 128,-1,3
 481 936 481 936 505.5 957 c 128,-1,4
 530 978 530 978 535.5 1008 c 128,-1,5
 541 1038 541 1038 523.5 1059 c 128,-1,6
 506 1080 506 1080 476 1080 c 128,-1,7
 446 1080 446 1080 421.5 1059 c 128,-1,0
 397 1038 397 1038 391.5 1008 c 128,-1,1
1310 535 m 9,8,-1
 1216 0 l 1,9,-1
 340 0 l 1,10,-1
 482 807 l 1,11,12
 480 804 480 804 428 804 c 0,13,14
 344 804 344 804 294.5 864 c 128,-1,15
 245 924 245 924 260 1008 c 128,-1,16
 275 1092 275 1092 345.5 1152 c 128,-1,17
 416 1212 416 1212 500 1212 c 0,18,19
 613 1212 613 1212 663.5 1139 c 128,-1,20
 714 1066 714 1066 696 963 c 2,21,-1
 553 154 l 1,22,-1
 1061 154 l 1,23,-1
 1116 467 l 17,24,25
 939 416 939 416 857 416 c 0,26,27
 760 416 760 416 712 473.5 c 128,-1,28
 664 531 664 531 681 621 c 0,29,30
 697 704 697 704 765.5 758 c 128,-1,31
 834 812 834 812 923 810 c 0,32,33
 978 808 978 808 1031.5 765.5 c 128,-1,34
 1085 723 1085 723 1069 628 c 0,35,36
 1063 586 1063 586 1046 558 c 1,37,-1
 1139 597 l 9,38,-1
 1246 1202 l 1,39,-1
 1428 1202 l 1,40,-1
 1338 693 l 25,41,-1
 1447 768 l 17,42,-1
 1446 606 l 1,43,-1
 1310 535 l 9,8,-1
803 624 m 128,-1,45
 798 594 798 594 815 573 c 128,-1,46
 832 552 832 552 862 552 c 128,-1,47
 892 552 892 552 917 573 c 128,-1,48
 942 594 942 594 947 624 c 128,-1,49
 952 654 952 654 935 675 c 128,-1,50
 918 696 918 696 888 696 c 128,-1,51
 858 696 858 696 833 675 c 128,-1,44
 808 654 808 654 803 624 c 128,-1,45
EndSplineSet
EndChar
StartChar: uni0E2A
Encoding: 3626 3626 165
Width: 1290
Flags: W
HStem: -10 128<406.7 487.3> 267 129<435.337 514.3> 705 162<540.2 771.6> 1072 160<650.459 960.2>
Back
372.5 1602.5 m 21,0,0
 562.5 1742.5 562.5 1742.5 740 1995 c 13,0,0
 850 1830 l 21,0,0
 714.401 1647.5 714.401 1647.5 447.5 1497.5 c 13,0,0
 372.5 1602.5 l 21,0,0
702.5 1532.5 m 17,0,0
 892.5 1672.5 892.5 1672.5 1070 1925 c 9,0,0
 1135 1735 l 17,0,0
 987.673 1552.5 987.673 1552.5 777.5 1427.5 c 9,0,0
 702.5 1532.5 l 17,0,0
108.735 1077.92 m 1,0,-1
 129.735 1094.26 l 2,1,2
 237.94 1164.4 237.94 1164.4 338.114 1194.16 c 128,-1,3
 438.289 1223.92 438.289 1223.92 588 1223.92 c 0,4,5
 774.718 1223.92 774.718 1223.92 895.735 1139 c 1,6,-1
 987.735 1285.92 l 1,7,-1
 1129.74 1179.92 l 1,8,-1
 1005.82 1019.92 l 1,9,10
 1072.21 907.923 1072.21 907.923 1072 747.918 c 2,11,-1
 1072.26 0 l 1,12,-1
 869.266 -0.000976562 l 1,13,14
 845.434 77.9342 845.434 77.9342 826.993 134.967 c 128,-1,15
 808.552 192 808.552 192 781.059 268.174 c 128,-1,16
 753.566 344.348 753.566 344.348 729.544 398.613 c 128,-1,17
 705.522 452.879 705.522 452.879 673.977 510.386 c 128,-1,18
 642.432 567.892 642.432 567.892 612.208 603.478 c 128,-1,19
 581.985 639.064 581.985 639.064 545.768 661.991 c 128,-1,20
 509.55 684.918 509.55 684.918 472.735 684.918 c 0,21,22
 435.222 684.918 435.222 684.918 405.621 663.539 c 128,-1,23
 376.02 642.16 376.02 642.16 359.023 607.719 c 128,-1,24
 342.027 573.277 342.027 573.277 333.318 534.633 c 128,-1,25
 324.61 495.988 324.61 495.988 324.529 456.918 c 2,26,-1
 323 372 l 1,27,28
 350 385 350 385 392 384 c 0,29,30
 474 381 474 381 533 330 c 128,-1,31
 592 279 592 279 593 190 c 0,32,33
 595 88 595 88 531 33 c 128,-1,34
 467 -22 467 -22 363 -23 c 0,35,36
 262.016 -23.7596 262.016 -23.7596 199.881 53.3486 c 128,-1,37
 137.745 130.457 137.745 130.457 138.529 277.947 c 2,38,-1
 138.735 495.918 l 2,39,40
 138.648 534.046 138.648 534.046 149.803 578.604 c 128,-1,41
 160.957 623.162 160.957 623.162 186.915 671.224 c 128,-1,42
 212.873 719.287 212.873 719.287 249.717 758.026 c 128,-1,43
 286.561 796.765 286.561 796.765 343.775 821.842 c 128,-1,44
 400.99 846.918 400.99 846.918 468.735 846.918 c 0,45,46
 529.959 846.918 529.959 846.918 586.242 822.469 c 128,-1,47
 642.525 798.02 642.525 798.02 683.549 759.515 c 128,-1,48
 724.572 721.011 724.572 721.011 759.949 673.333 c 128,-1,49
 795.327 625.656 795.327 625.656 818.459 579.524 c 128,-1,50
 841.591 533.392 841.591 533.392 858.125 493.342 c 128,-1,51
 874.658 453.291 874.658 453.291 881.962 430.388 c 128,-1,52
 889.265 407.485 889.265 407.485 889.265 405.939 c 1,53,-1
 889 731.918 l 2,54,55
 889 824.763 889 824.763 867.367 889.918 c 1,56,-1
 700.735 786.918 l 1,57,-1
 650.735 879.311 l 1,58,-1
 788.234 1005.92 l 1,59,60
 718.912 1058.78 718.912 1058.78 588 1063.92 c 0,61,62
 490.135 1067.76 490.135 1067.76 389.503 1032.34 c 128,-1,63
 288.871 996.927 288.871 996.927 216.107 941.729 c 2,64,-1
 147.735 882.918 l 1,65,-1
 108.735 1077.92 l 1,0,-1
385 255 m 152,-1,67
 354 255 354 255 331 234 c 128,-1,68
 308 213 308 213 308 182 c 128,-1,69
 308 151 308 151 330.5 128.5 c 128,-1,70
 353 106 353 106 384 106 c 128,-1,71
 415 106 415 106 437.5 128.5 c 128,-1,72
 460 151 460 151 460 182 c 0,73,74
 460 212 460 212 438 233.5 c 128,-1,66
 416 255 416 255 385 255 c 152,-1,67
EndSplineSet
Fore
1147 1139 m 1,0,1
 1227 1219 1227 1219 1314 1315 c 9,2,-1
 1395 1150 l 17,3,4
 1327 1075 1327 1075 1237 1006 c 1,5,6
 1272 903 1272 903 1246 756 c 2,7,-1
 1113 0 l 1,8,-1
 909 1 l 17,9,10
 863 427 863 427 802 565.5 c 128,-1,11
 741 704 741 704 639 705 c 0,12,13
 563 706 563 706 517 647.5 c 128,-1,14
 471 589 471 589 451 477 c 2,15,-1
 435 384 l 1,16,17
 464 397 464 397 504 396 c 0,18,19
 584 394 584 394 634.5 342.5 c 128,-1,20
 685 291 685 291 671 202 c 0,21,22
 655 100 655 100 579 45 c 128,-1,23
 503 -10 503 -10 413 -10 c 0,24,25
 298 -10 298 -10 252 64.5 c 128,-1,26
 206 139 206 139 232 290 c 2,27,-1
 267 486 l 2,28,29
 290 619 290 619 397.5 743.5 c 128,-1,30
 505 868 505 868 674 867 c 0,31,32
 832 866 832 866 902 742 c 128,-1,33
 972 618 972 618 1002 406 c 0,34,-1
 1060 740 l 2,35,36
 1075 823 1075 823 1060 887 c 1,37,38
 994 852 994 852 934 818 c 9,39,-1
 878 922 l 17,40,41
 935 960 935 960 993 1005 c 1,42,43
 923 1072 923 1072 799 1072 c 4,44,45
 685 1072 685 1072 566 1047.5 c 128,-1,46
 447 1023 447 1023 323 972 c 9,47,-1
 353 1142 l 17,48,49
 458 1189 458 1189 577 1210.5 c 128,-1,50
 696 1232 696 1232 827 1232 c 4,51,52
 1035 1232 1035 1232 1147 1139 c 1,0,1
474 267 m 152,-1,54
 443 267 443 267 416.5 246 c 128,-1,55
 390 225 390 225 384.5 194 c 128,-1,56
 379 163 379 163 397.5 140.5 c 128,-1,57
 416 118 416 118 447 118 c 128,-1,58
 478 118 478 118 504.5 140.5 c 128,-1,59
 531 163 531 163 536 194 c 0,60,61
 541 224 541 224 523 245.5 c 128,-1,53
 505 267 505 267 474 267 c 152,-1,54
EndSplineSet
EndChar
StartChar: uni0E2B
Encoding: 3627 3627 166
Width: 1410
Flags: W
HStem: 0 21G<344 526 1032 1215> 804 132<416 494> 1080 132<440.58 519 1165.58 1244>
Fore
1120.5 1008 m 128,-1,1
 1115 978 1115 978 1132.5 957 c 128,-1,2
 1150 936 1150 936 1180 936 c 128,-1,3
 1210 936 1210 936 1234.5 957 c 128,-1,4
 1259 978 1259 978 1264.5 1008 c 128,-1,5
 1270 1038 1270 1038 1252.5 1059 c 128,-1,6
 1235 1080 1235 1080 1205 1080 c 128,-1,7
 1175 1080 1175 1080 1150.5 1059 c 128,-1,0
 1126 1038 1126 1038 1120.5 1008 c 128,-1,1
395.5 1008 m 128,-1,9
 390 978 390 978 407.5 957 c 128,-1,10
 425 936 425 936 455 936 c 128,-1,11
 485 936 485 936 509.5 957 c 128,-1,12
 534 978 534 978 539.5 1008 c 128,-1,13
 545 1038 545 1038 527.5 1059 c 128,-1,14
 510 1080 510 1080 480 1080 c 128,-1,15
 450 1080 450 1080 425.5 1059 c 128,-1,8
 401 1038 401 1038 395.5 1008 c 128,-1,9
1271 839 m 1,16,17
 1353 784 1353 784 1331 658 c 2,18,-1
 1215 0 l 1,19,-1
 1032 0 l 1,20,-1
 1143 631 l 2,21,22
 1162 740 1162 740 1078 740 c 0,23,24
 1025 740 1025 740 950 658 c 0,25,26
 823 518 823 518 716 360.5 c 128,-1,27
 609 203 609 203 526 0 c 1,28,-1
 344 0 l 25,29,-1
 486 807 l 17,30,31
 484 804 484 804 432 804 c 0,32,33
 348 804 348 804 298.5 864 c 128,-1,34
 249 924 249 924 264 1008 c 128,-1,35
 279 1092 279 1092 349.5 1152 c 128,-1,36
 420 1212 420 1212 504 1212 c 0,37,38
 617 1212 617 1212 667 1139 c 0,39,40
 718 1065 718 1065 700 963 c 10,41,-1
 610 454 l 1,42,43
 696 561 696 561 823 690.5 c 128,-1,44
 950 820 950 820 1023 864 c 1,45,46
 974 924 974 924 989 1008 c 128,-1,47
 1004 1092 1004 1092 1074.5 1152 c 128,-1,48
 1145 1212 1145 1212 1229 1212 c 128,-1,49
 1313 1212 1313 1212 1362.5 1152 c 128,-1,50
 1412 1092 1412 1092 1397 1008 c 0,51,52
 1377 904 1377 904 1271 839 c 1,16,17
EndSplineSet
EndChar
StartChar: uni0E2C
Encoding: 3628 3628 167
Width: 1480
Flags: W
HStem: 0 21G<328 521 1055 1260> 804 132<400 478> 1080 132<424.58 503> 1274 132<1240.4 1319>
AnchorPoint: "AboveBase" 963.524 1262 basechar 0
Fore
1253 1000 m 17,0,1
 1242 998 1242 998 1231 998 c 0,2,3
 1147 998 1147 998 1097.5 1058 c 128,-1,4
 1048 1118 1048 1118 1063 1202 c 128,-1,5
 1078 1286 1078 1286 1148.5 1346 c 128,-1,6
 1219 1406 1219 1406 1303 1406 c 128,-1,7
 1387 1406 1387 1406 1436 1346 c 0,8,9
 1472 1303 1472 1303 1474 1249 c 9,10,-1
 1591 1300 l 1,11,-1
 1635 1156 l 1,12,-1
 1448 1074 l 25,13,-1
 1260 0 l 1,14,-1
 1055 0 l 1,15,-1
 937 826 l 1,16,-1
 521 0 l 1,17,-1
 328 0 l 1,18,-1
 470 807 l 1,19,20
 468 804 468 804 416 804 c 0,21,22
 332 804 332 804 282.5 864 c 128,-1,23
 233 924 233 924 248 1008 c 128,-1,24
 263 1092 263 1092 333.5 1152 c 128,-1,25
 404 1212 404 1212 488 1212 c 0,26,27
 601 1212 601 1212 651.5 1139 c 128,-1,28
 702 1066 702 1066 684 963 c 2,29,-1
 580 372 l 1,30,-1
 882 988 l 1,31,-1
 1058 988 l 1,32,-1
 1143 376 l 1,33,-1
 1253 1000 l 17,0,1
1195 1202 m 128,-1,35
 1190 1172 1190 1172 1207 1151 c 128,-1,36
 1224 1130 1224 1130 1254 1130 c 128,-1,37
 1284 1130 1284 1130 1309 1151 c 128,-1,38
 1334 1172 1334 1172 1339 1202 c 128,-1,39
 1344 1232 1344 1232 1327 1253 c 128,-1,40
 1310 1274 1310 1274 1280 1274 c 128,-1,41
 1250 1274 1250 1274 1225 1253 c 128,-1,34
 1200 1232 1200 1232 1195 1202 c 128,-1,35
379.5 1008 m 128,-1,43
 374 978 374 978 391.5 957 c 128,-1,44
 409 936 409 936 439 936 c 128,-1,45
 469 936 469 936 493.5 957 c 128,-1,46
 518 978 518 978 523.5 1008 c 128,-1,47
 529 1038 529 1038 511.5 1059 c 128,-1,48
 494 1080 494 1080 464 1080 c 128,-1,49
 434 1080 434 1080 409.5 1059 c 128,-1,42
 385 1038 385 1038 379.5 1008 c 128,-1,43
EndSplineSet
EndChar
StartChar: uni0E2D
Encoding: 3629 3629 168
Width: 1220
Flags: W
HStem: 0 154<396 888> 449 132<485 563.603> 725 132<510.397 589> 1066 156<647.921 929.3>
VStem: 182 991<0 714>
Fore
609 653 m 128,-1,1
 614 683 614 683 597 704 c 128,-1,2
 580 725 580 725 550 725 c 128,-1,3
 520 725 520 725 495 704 c 128,-1,4
 470 683 470 683 465 653 c 128,-1,5
 460 623 460 623 477 602 c 128,-1,6
 494 581 494 581 524 581 c 128,-1,7
 554 581 554 581 579 602 c 128,-1,0
 604 623 604 623 609 653 c 128,-1,1
1001 795 m 2,8,9
 1024 927 1024 927 954 996.5 c 128,-1,10
 884 1066 884 1066 733 1066 c 4,11,12
 637 1066 637 1066 542 1043 c 128,-1,13
 447 1020 447 1020 355 974 c 1,14,-1
 385 1144 l 1,15,16
 493 1183 493 1183 591 1202.5 c 128,-1,17
 689 1222 689 1222 779 1222 c 4,18,19
 1022 1222 1022 1222 1120 1096 c 128,-1,20
 1218 970 1218 970 1173 714 c 2,21,-1
 1047 0 l 1,22,-1
 182 0 l 1,23,-1
 289 608 l 2,24,25
 307 711 307 711 383.5 784 c 128,-1,26
 460 857 460 857 573 857 c 0,27,28
 657 857 657 857 706.5 797 c 128,-1,29
 756 737 756 737 741 653 c 128,-1,30
 726 569 726 569 655.5 509 c 128,-1,31
 585 449 585 449 501 449 c 0,32,33
 450 449 450 449 449 452 c 1,34,-1
 396 154 l 1,35,-1
 888 154 l 1,36,-1
 1001 795 l 2,8,9
EndSplineSet
EndChar
StartChar: uni0E2E
Encoding: 3630 3630 169
Width: 1220
Flags: W
HStem: 0 154<362 865> 319 132<430 508.42> 595 132<454.58 533> 782 144<592 762.043> 1092 140<596.1 797.6>
Fore
1085 1105 m 9,0,-1
 1236 1240 l 17,1,-1
 1271 1067 l 1,2,-1
 1150 972 l 1,3,4
 1172 877 1172 877 1150 756 c 2,5,-1
 1017 0 l 1,6,-1
 149 0 l 1,7,-1
 233 478 l 2,8,9
 251 581 251 581 327.5 654 c 128,-1,10
 404 727 404 727 517 727 c 0,11,12
 601 727 601 727 650.5 667 c 128,-1,13
 700 607 700 607 685 523 c 128,-1,14
 670 439 670 439 599.5 379 c 128,-1,15
 529 319 529 319 445 319 c 0,16,17
 394 319 394 319 393 322 c 9,18,-1
 362 154 l 17,19,-1
 865 154 l 1,20,-1
 968 740 l 2,21,22
 980 806 980 806 975 876 c 1,23,24
 902 830 902 830 815.5 805.5 c 128,-1,25
 729 781 729 781 638 782 c 0,26,27
 465 783 465 783 387 854 c 128,-1,28
 309 925 309 925 320 1010 c 0,29,30
 333 1108 333 1108 453.5 1170.5 c 128,-1,31
 574 1233 574 1233 750 1232 c 0,32,33
 866 1231 866 1231 949.5 1199 c 128,-1,34
 1033 1167 1033 1167 1085 1105 c 9,0,-1
547.5 952 m 128,-1,36
 610 927 610 927 670 926 c 0,37,38
 740 925 740 925 825 949.5 c 128,-1,39
 910 974 910 974 935 1002 c 1,40,41
 894 1048 894 1048 832 1070.5 c 128,-1,42
 770 1093 770 1093 678 1092 c 0,43,44
 615 1091 615 1091 556.5 1070.5 c 128,-1,45
 498 1050 498 1050 493 1021 c 0,46,35
 485 977 485 977 547.5 952 c 128,-1,36
553.5 523 m 128,-1,48
 559 553 559 553 541.5 574 c 128,-1,49
 524 595 524 595 494 595 c 128,-1,50
 464 595 464 595 439.5 574 c 128,-1,51
 415 553 415 553 409.5 523 c 128,-1,52
 404 493 404 493 421.5 472 c 128,-1,53
 439 451 439 451 469 451 c 128,-1,54
 499 451 499 451 523.5 472 c 128,-1,47
 548 493 548 493 553.5 523 c 128,-1,48
EndSplineSet
EndChar
StartChar: uni0E2F
Encoding: 3631 3631 170
Width: 1200
Flags: W
HStem: 0 21G<810 993> 736 190<429 526> 1070 132<454.397 533>
VStem: 277 896<990.979 1026 998 1026>
Fore
634 889 m 1,0,1
 741 910 741 910 840 986 c 128,-1,2
 939 1062 939 1062 1028 1202 c 1,3,-1
 1173 1026 l 1,4,-1
 993 0 l 1,5,-1
 810 0 l 1,6,-1
 970 909 l 17,7,8
 881 825 881 825 770.5 780.5 c 128,-1,9
 660 736 660 736 526 736 c 0,10,11
 389 736 389 736 324 817.5 c 128,-1,12
 259 899 259 899 277 998 c 0,13,14
 292 1082 292 1082 362.5 1142 c 128,-1,15
 433 1202 433 1202 517 1202 c 128,-1,16
 601 1202 601 1202 650.5 1142 c 128,-1,17
 700 1082 700 1082 685 998 c 0,18,19
 674 937 674 937 634 889 c 1,0,1
409 998 m 128,-1,21
 404 968 404 968 421 947 c 128,-1,22
 438 926 438 926 468 926 c 128,-1,23
 498 926 498 926 523 947 c 128,-1,24
 548 968 548 968 553 998 c 128,-1,25
 558 1028 558 1028 541 1049 c 128,-1,26
 524 1070 524 1070 494 1070 c 128,-1,27
 464 1070 464 1070 439 1049 c 128,-1,20
 414 1028 414 1028 409 998 c 128,-1,21
EndSplineSet
EndChar
StartChar: uni0E30
Encoding: 3632 3632 171
Width: 1040
Flags: W
HStem: 12 196<266.7 416> 352 113.068<290.29 376.3> 679 196<384.7 535> 1019 113<409.072 495.3>
VStem: 129 917<285 894>
Fore
425 875 m 152,-1,1
 456 874 456 874 482.5 894.5 c 128,-1,2
 509 915 509 915 515.5 945 c 128,-1,3
 522 975 522 975 504 996.5 c 128,-1,4
 486 1018 486 1018 455 1019 c 0,5,6
 423 1020 423 1020 396 999.5 c 128,-1,7
 369 979 369 979 363 948 c 0,8,9
 357 918 357 918 375.5 897 c 128,-1,0
 394 876 394 876 425 875 c 152,-1,1
1024 1098 m 1,10,-1
 1046 894 l 1,11,12
 979 832 979 832 827 756.5 c 128,-1,13
 675 681 675 681 535 679 c 0,14,15
 392 677 392 677 331.5 728.5 c 128,-1,16
 271 780 271 780 253 827 c 128,-1,17
 235 874 235 874 248 952 c 0,18,19
 259 1019 259 1019 332.5 1075.5 c 128,-1,20
 406 1132 406 1132 480 1132 c 0,21,22
 557 1132 557 1132 602.5 1075 c 128,-1,23
 648 1018 648 1018 634 941 c 0,24,25
 628 905 628 905 603 870.5 c 128,-1,26
 578 836 578 836 547 817 c 1,27,28
 640 825 640 825 783.5 904.5 c 128,-1,29
 927 984 927 984 1024 1098 c 1,10,-1
307 208 m 152,-1,31
 338 207 338 207 364.5 227.5 c 128,-1,32
 391 248 391 248 397 278 c 128,-1,33
 403 308 403 308 385 329.5 c 128,-1,34
 367 351 367 351 336 352 c 0,35,36
 304 353 304 353 277.5 332.5 c 128,-1,37
 251 312 251 312 245 281 c 0,38,39
 238 251 238 251 257 230 c 128,-1,30
 276 209 276 209 307 208 c 152,-1,31
905 431 m 1,40,-1
 927 227 l 1,41,42
 855 159 855 159 701.5 86.5 c 128,-1,43
 548 14 548 14 416 12 c 0,44,45
 273 10 273 10 212.5 61.5 c 128,-1,46
 152 113 152 113 134 160 c 128,-1,47
 116 207 116 207 129 285 c 0,48,49
 140 354 140 354 212 410.5 c 128,-1,50
 284 467 284 467 361 465 c 0,51,52
 439 463 439 463 484 407 c 128,-1,53
 529 351 529 351 515 274 c 0,54,55
 509 238 509 238 484.5 203.5 c 128,-1,56
 460 169 460 169 428 150 c 1,57,58
 546 168 546 168 666.5 232.5 c 128,-1,59
 787 297 787 297 905 431 c 1,40,-1
EndSplineSet
EndChar
StartChar: uni0E31
Encoding: 3633 3633 172
Width: 0
Flags: W
HStem: 1362 182<-398.7 -252> 1678 104<-374.973 -296.3>
VStem: -527 874<1592 1649.21 1592 1603>
AnchorPoint: "AboveMark" -0.408203 1821 basemark 0
AnchorPoint: "AboveBase" -70.4004 1356 mark 0
Fore
-361 1544 m 156,-1,1
 -332 1544 -332 1544 -307 1562.5 c 132,-1,2
 -282 1581 -282 1581 -277 1609 c 4,3,4
 -272 1638 -272 1638 -288.5 1658 c 132,-1,5
 -305 1678 -305 1678 -334 1678 c 132,-1,6
 -363 1678 -363 1678 -388.5 1659 c 132,-1,7
 -414 1640 -414 1640 -419 1612 c 132,-1,8
 -424 1584 -424 1584 -407 1564 c 132,-1,0
 -390 1544 -390 1544 -361 1544 c 156,-1,1
328 1794 m 5,9,-1
 347 1592 l 5,10,11
 209 1481 209 1481 59.5 1421.5 c 132,-1,12
 -90 1362 -90 1362 -252 1362 c 4,13,14
 -396 1362 -396 1362 -471.5 1425.5 c 132,-1,15
 -547 1489 -547 1489 -527 1603 c 4,16,17
 -513 1684 -513 1684 -448 1733 c 132,-1,18
 -383 1782 -383 1782 -310 1782 c 132,-1,19
 -237 1782 -237 1782 -196 1732 c 132,-1,20
 -155 1682 -155 1682 -168 1606 c 4,21,22
 -182 1527 -182 1527 -238 1492 c 5,23,24
 -96 1492 -96 1492 45.5 1568 c 132,-1,25
 187 1644 187 1644 328 1794 c 5,9,-1
EndSplineSet
EndChar
StartChar: uni0E32
Encoding: 3634 3634 173
Width: 1130
Flags: W
HStem: 0 21G<758 944> 1066 156<544.921 826.3>
VStem: 252 818<714 974>
Fore
758 0 m 1,0,-1
 944 0 l 25,1,-1
 1070 714 l 2,2,3
 1115 970 1115 970 1017 1096 c 128,-1,4
 919 1222 919 1222 676 1222 c 4,5,6
 586 1222 586 1222 488 1202.5 c 128,-1,7
 390 1183 390 1183 282 1144 c 1,8,-1
 252 974 l 1,9,10
 344 1020 344 1020 439 1043 c 128,-1,11
 534 1066 534 1066 630 1066 c 4,12,13
 781 1066 781 1066 851 996.5 c 128,-1,14
 921 927 921 927 898 796 c 2,15,-1
 758 0 l 1,0,-1
EndSplineSet
EndChar
StartChar: uni0E34
Encoding: 3636 3636 175
Width: 0
Flags: W
HStem: 1441.5 130.5<-668 -316.889> 1707 126<-503.7 -271>
VStem: -870 968<1432 1542>
AnchorPoint: "AboveMark" 54.7314 1870 basemark 0
AnchorPoint: "AboveBase" 61.2178 1351 mark 0
Fore
-67 1509 m 1,0,1
 -103 1580 -103 1580 -202 1643.5 c 128,-1,2
 -301 1707 -301 1707 -401 1707 c 0,3,4
 -480 1707 -480 1707 -548.5 1669 c 128,-1,5
 -617 1631 -617 1631 -668 1572 c 1,6,-1
 -398 1572 l 2,7,8
 -360 1572 -360 1572 -315.5 1566.5 c 128,-1,9
 -271 1561 -271 1561 -229.5 1551.5 c 128,-1,10
 -188 1542 -188 1542 -157.5 1534.5 c 128,-1,11
 -127 1527 -127 1527 -97.5 1518 c 128,-1,12
 -68 1509 -68 1509 -67 1509 c 1,0,1
27 1344 m 1,13,14
 -12 1353 -12 1353 -97 1380.5 c 128,-1,15
 -182 1408 -182 1408 -261 1424 c 128,-1,16
 -340 1440 -340 1440 -430 1440 c 0,17,18
 -575 1442 -575 1442 -696 1441.5 c 128,-1,19
 -817 1441 -817 1441 -870 1432 c 1,20,-1
 -841 1593 l 1,21,22
 -764 1701 -764 1701 -627.5 1767 c 128,-1,23
 -491 1833 -491 1833 -370 1833 c 0,24,25
 -218 1833 -218 1833 -97 1750.5 c 128,-1,26
 24 1668 24 1668 98 1542 c 1,27,-1
 27 1344 l 1,13,14
EndSplineSet
EndChar
StartChar: uni0E35
Encoding: 3637 3637 176
Width: 0
Flags: W
HStem: 1434.5 131.5<-681 -329.889> 1701 126<-516.7 -284>
VStem: -883 979<1422 1857>
AnchorPoint: "AboveBase" 48.1602 1345 mark 0
AnchorPoint: "AboveMark" 44.8428 1916 basemark 0
Fore
-80 1503 m 1,0,1
 -116 1574 -116 1574 -215 1637.5 c 128,-1,2
 -314 1701 -314 1701 -414 1701 c 0,3,4
 -493 1701 -493 1701 -561.5 1663 c 128,-1,5
 -630 1625 -630 1625 -681 1566 c 1,6,-1
 -411 1566 l 2,7,8
 -373 1566 -373 1566 -328.5 1560.5 c 128,-1,9
 -284 1555 -284 1555 -242.5 1545.5 c 128,-1,10
 -201 1536 -201 1536 -170.5 1528.5 c 128,-1,11
 -140 1521 -140 1521 -110.5 1512 c 128,-1,12
 -81 1503 -81 1503 -80 1503 c 1,0,1
14 1338 m 1,13,14
 -25 1347 -25 1347 -110 1374.5 c 128,-1,15
 -195 1402 -195 1402 -274 1418 c 128,-1,16
 -353 1434 -353 1434 -443 1434 c 0,17,18
 -549 1434 -549 1434 -630.5 1434.5 c 128,-1,19
 -712 1435 -712 1435 -778 1432 c 128,-1,20
 -844 1429 -844 1429 -883 1422 c 1,21,-1
 -854 1587 l 1,22,23
 -777 1695 -777 1695 -640.5 1761 c 128,-1,24
 -504 1827 -504 1827 -383 1827 c 0,25,26
 -233 1827 -233 1827 -96 1733 c 1,27,-1
 -75 1857 l 1,28,-1
 96 1857 l 1,29,-1
 49 1590 l 1,30,31
 69 1563 69 1563 85 1536 c 1,32,-1
 14 1338 l 1,13,14
EndSplineSet
EndChar
StartChar: uni0E36
Encoding: 3638 3638 177
Width: 0
Flags: W
HStem: 1429.5 130.5<-682 -330.889> 1695 126<-517.7 -285> 1790 113<4.09332 82.7>
AnchorPoint: "AboveBase" 47.1016 1339 mark 0
AnchorPoint: "AboveMark" 115.659 1966 basemark 0
Fore
-81 1497 m 1,0,1
 -118 1568 -118 1568 -216.5 1631.5 c 128,-1,2
 -315 1695 -315 1695 -415 1695 c 0,3,4
 -494 1695 -494 1695 -563 1657 c 128,-1,5
 -632 1619 -632 1619 -682 1560 c 1,6,-1
 -412 1560 l 2,7,8
 -374 1560 -374 1560 -329.5 1554.5 c 128,-1,9
 -285 1549 -285 1549 -243.5 1539.5 c 128,-1,10
 -202 1530 -202 1530 -171.5 1522.5 c 128,-1,11
 -141 1515 -141 1515 -111.5 1506 c 128,-1,12
 -82 1497 -82 1497 -81 1497 c 1,0,1
71 1552 m 1,13,14
 72 1550 72 1550 84 1530 c 1,15,-1
 13 1332 l 1,16,17
 -27 1341 -27 1341 -111.5 1368.5 c 128,-1,18
 -196 1396 -196 1396 -275 1412 c 128,-1,19
 -354 1428 -354 1428 -444 1428 c 0,20,21
 -589 1430 -589 1430 -710 1429.5 c 128,-1,22
 -831 1429 -831 1429 -884 1420 c 1,23,-1
 -855 1581 l 1,24,25
 -778 1689 -778 1689 -641.5 1755 c 128,-1,26
 -505 1821 -505 1821 -384 1821 c 0,27,28
 -257 1821 -257 1821 -135 1750 c 1,29,30
 -111 1818 -111 1818 -59 1860.5 c 128,-1,31
 -7 1903 -7 1903 64 1903 c 0,32,33
 146 1903 146 1903 188 1852 c 128,-1,34
 230 1801 230 1801 216 1724 c 0,35,36
 205 1663 205 1663 166.5 1616.5 c 128,-1,37
 128 1570 128 1570 71 1552 c 1,13,14
45 1790 m 24,38,39
 15 1790 15 1790 -10.5 1769.5 c 128,-1,40
 -36 1749 -36 1749 -41 1720 c 128,-1,41
 -46 1691 -46 1691 -28 1671 c 128,-1,42
 -10 1651 -10 1651 20 1651 c 0,43,44
 49 1651 49 1651 73.5 1671 c 128,-1,45
 98 1691 98 1691 103 1720 c 128,-1,46
 108 1749 108 1749 91 1769.5 c 128,-1,47
 74 1790 74 1790 45 1790 c 24,38,39
EndSplineSet
EndChar
StartChar: uni0E37
Encoding: 3639 3639 178
Width: 0
Flags: W
HStem: 1427.5 128.5<-683 -331.889> 1693 126<-517.7 -312.444>
VStem: -884 982<1418 1887>
AnchorPoint: "AboveBase" 46.749 1337 mark 0
AnchorPoint: "AboveMark" 39.3643 1970 basemark 0
Fore
-82 1493 m 1,0,1
 -118 1565 -118 1565 -216.5 1629 c 128,-1,2
 -315 1693 -315 1693 -415 1693 c 0,3,4
 -494 1693 -494 1693 -563 1654.5 c 128,-1,5
 -632 1616 -632 1616 -683 1556 c 1,6,-1
 -413 1556 l 2,7,8
 -375 1556 -375 1556 -330.5 1550.5 c 128,-1,9
 -286 1545 -286 1545 -244.5 1535.5 c 128,-1,10
 -203 1526 -203 1526 -172.5 1518.5 c 128,-1,11
 -142 1511 -142 1511 -112.5 1502 c 128,-1,12
 -83 1493 -83 1493 -82 1493 c 1,0,1
-149 1759 m 17,13,14
 -142 1755 -142 1755 -116.5 1736.5 c 128,-1,15
 -91 1718 -91 1718 -88 1717 c 1,16,-1
 -58 1887 l 1,17,-1
 98 1887 l 1,18,-1
 44 1585 l 1,19,20
 73 1545 73 1545 83 1528 c 1,21,-1
 13 1330 l 1,22,23
 -27 1339 -27 1339 -111.5 1366.5 c 128,-1,24
 -196 1394 -196 1394 -275.5 1410 c 128,-1,25
 -355 1426 -355 1426 -445 1426 c 0,26,27
 -589 1428 -589 1428 -710 1427.5 c 128,-1,28
 -831 1427 -831 1427 -884 1418 c 1,29,-1
 -856 1579 l 1,30,31
 -779 1687 -779 1687 -642 1753 c 128,-1,32
 -505 1819 -505 1819 -384 1819 c 0,33,34
 -346 1819 -346 1819 -296 1809 c 1,35,-1
 -282 1888 l 1,36,-1
 -126 1888 l 1,37,-1
 -149 1759 l 17,13,14
EndSplineSet
EndChar
StartChar: uni0E38
Encoding: 3640 3640 179
Width: 0
Flags: W
HStem: -424 92<-483.096 -415.91> -226 106<-468.709 -400.566>
AnchorPoint: "BelowBase" -220.806 -126.5 mark 0
Fore
-438 -523 m 5,0,-1
 -419 -416 l 5,1,2
 -434 -424 -434 -424 -469 -424 c 4,3,4
 -526 -424 -526 -424 -562 -380.5 c 132,-1,5
 -598 -337 -598 -337 -587 -276 c 4,6,7
 -576 -211 -576 -211 -523.5 -165.5 c 132,-1,8
 -471 -120 -471 -120 -408 -120 c 4,9,10
 -322 -120 -322 -120 -276 -169.5 c 132,-1,11
 -230 -219 -230 -219 -247 -319 c 6,12,-1
 -283 -523 l 5,13,-1
 -438 -523 l 5,0,-1
-432 -226 m 28,14,15
 -455 -226 -455 -226 -475 -240.5 c 132,-1,16
 -495 -255 -495 -255 -498 -278 c 4,17,18
 -502 -300 -502 -300 -488 -316 c 132,-1,19
 -474 -332 -474 -332 -451 -332 c 132,-1,20
 -428 -332 -428 -332 -409.5 -316.5 c 132,-1,21
 -391 -301 -391 -301 -387 -278.5 c 132,-1,22
 -383 -256 -383 -256 -396.5 -241 c 132,-1,23
 -410 -226 -410 -226 -432 -226 c 28,14,15
EndSplineSet
EndChar
StartChar: uni0E39
Encoding: 3641 3641 180
Width: 0
Flags: W
HStem: -524 101<-590 -449> -424 92<-808.198 -740.773> -226 106<-793.442 -724.449>
VStem: -912 670<-276 -126>
AnchorPoint: "BelowBase" -209.099 -131 mark 0
Fore
-762 -524 m 5,0,-1
 -743 -416 l 5,1,2
 -759 -424 -759 -424 -794 -424 c 4,3,4
 -850 -424 -850 -424 -886 -380.5 c 132,-1,5
 -922 -337 -922 -337 -912 -276 c 4,6,7
 -900 -211 -900 -211 -847.5 -165.5 c 132,-1,8
 -795 -120 -795 -120 -732 -120 c 4,9,10
 -646 -120 -646 -120 -600 -169.5 c 132,-1,11
 -554 -219 -554 -219 -572 -319 c 6,12,-1
 -590 -423 l 5,13,-1
 -449 -423 l 5,14,-1
 -397 -126 l 5,15,-1
 -242 -126 l 5,16,-1
 -312 -524 l 5,17,-1
 -762 -524 l 5,0,-1
-757 -226 m 156,-1,19
 -780 -226 -780 -226 -799.5 -240.5 c 132,-1,20
 -819 -255 -819 -255 -823 -278 c 4,21,22
 -827 -300 -827 -300 -813 -316 c 132,-1,23
 -799 -332 -799 -332 -775 -332 c 4,24,25
 -753 -332 -753 -332 -734 -316.5 c 132,-1,26
 -715 -301 -715 -301 -711 -278.5 c 132,-1,27
 -707 -256 -707 -256 -720.5 -241 c 132,-1,18
 -734 -226 -734 -226 -757 -226 c 156,-1,19
EndSplineSet
EndChar
StartChar: uni0E3A
Encoding: 3642 3642 181
Width: 0
Flags: W
VStem: -479 269<-289.93 -202.869 -246 -246>
AnchorPoint: "BelowBase" -234.042 -116.5 mark 0
Fore
-321 -112 m 4,0,1
 -266 -112 -266 -112 -233.5 -153 c 132,-1,2
 -201 -194 -201 -194 -210 -246 c 4,3,4
 -220 -301 -220 -301 -267.5 -341.5 c 132,-1,5
 -315 -382 -315 -382 -369 -382 c 4,6,7
 -422 -382 -422 -382 -455 -341 c 132,-1,8
 -488 -300 -488 -300 -479 -246 c 4,9,10
 -469 -192 -469 -192 -423 -152 c 132,-1,11
 -377 -112 -377 -112 -321 -112 c 4,0,1
EndSplineSet
EndChar
StartChar: uni0E3F
Encoding: 3647 3647 182
Width: 1250
Flags: W
HStem: 0 170<378 541 684 845.2> 719 166<504 668> 1319 170<581 774 916 983.598>
Fore
1029 827 m 1,0,1
 1156 789 1156 789 1211 693 c 0,2,3
 1266 594 1266 594 1242 457 c 0,4,5
 1206 258 1206 258 1043 133 c 0,6,7
 869 0 869 0 653 0 c 1,8,-1
 630 -133 l 1,9,-1
 518 -133 l 1,10,-1
 541 0 l 1,11,-1
 152 0 l 1,12,-1
 415 1489 l 1,13,-1
 804 1489 l 1,14,-1
 822 1595 l 1,15,-1
 934 1595 l 1,16,-1
 916 1489 l 1,17,18
 1130 1489 1130 1489 1229 1402 c 0,19,20
 1325 1319 1325 1319 1294 1144 c 0,21,22
 1279 1059 1279 1059 1206 965 c 0,23,24
 1180 931 1180 931 1150 906 c 128,-1,25
 1120 881 1120 881 1092.5 865 c 128,-1,26
 1065 849 1065 849 1029 827 c 1,0,1
697 885 m 1,27,-1
 774 1321 l 1,28,-1
 581 1321 l 1,29,-1
 504 885 l 1,30,-1
 697 885 l 1,27,-1
809 887 m 1,31,32
 894 887 894 887 980 941 c 0,33,34
 1060 994 1060 994 1083 1124 c 0,35,36
 1100 1221 1100 1221 1056 1264 c 0,37,38
 1023 1295 1023 1295 985.5 1307 c 128,-1,39
 948 1319 948 1319 886 1319 c 1,40,-1
 809 887 l 1,31,32
571 170 m 1,41,-1
 668 719 l 1,42,-1
 475 719 l 1,43,-1
 378 170 l 1,44,-1
 571 170 l 1,41,-1
684 174 m 1,45,46
 808 174 808 174 912 246 c 0,47,48
 1009 313 1009 313 1033 449 c 0,49,50
 1046 519 1046 519 1040.5 562.5 c 128,-1,51
 1035 606 1035 606 1013.5 632 c 128,-1,52
 992 658 992 658 947 683 c 0,53,54
 886 717 886 717 779 717 c 1,55,-1
 684 174 l 1,45,46
EndSplineSet
EndChar
StartChar: uni0E40
Encoding: 3648 3648 183
Width: 740
Flags: W
HStem: -10 132<404 482.42> 1182 20G<429 613>
VStem: 251 408<149.272 228.793 194 194>
Fore
251 194 m 6,0,1
 236 110 236 110 285.5 50 c 132,-1,2
 335 -10 335 -10 419 -10 c 132,-1,3
 503 -10 503 -10 573.5 50 c 132,-1,4
 644 110 644 110 659 194 c 132,-1,5
 674 278 674 278 624.5 338 c 132,-1,6
 575 398 575 398 491 398 c 4,7,8
 481 398 481 398 471 397 c 13,9,-1
 613 1202 l 5,10,-1
 429 1202 l 5,11,-1
 251 194 l 6,0,1
383 194 m 132,-1,13
 388 224 388 224 413 245 c 132,-1,14
 438 266 438 266 468 266 c 132,-1,15
 498 266 498 266 515 245 c 132,-1,16
 532 224 532 224 527 194 c 132,-1,17
 522 164 522 164 497.5 143 c 132,-1,18
 473 122 473 122 443 122 c 132,-1,19
 413 122 413 122 395.5 143 c 132,-1,12
 378 164 378 164 383 194 c 132,-1,13
EndSplineSet
EndChar
StartChar: uni0E41
Encoding: 3649 3649 184
Width: 1290
Flags: W
HStem: -10 132<394 472.42 954 1032.42> 266 132<455.406 497 1015.41 1057> 1182 20G<419 603 979 1163>
VStem: 241 968<149.272 228.793 194 194>
Fore
801 194 m 6,0,1
 786 110 786 110 835.5 50 c 132,-1,2
 885 -10 885 -10 969 -10 c 132,-1,3
 1053 -10 1053 -10 1123.5 50 c 132,-1,4
 1194 110 1194 110 1209 194 c 132,-1,5
 1224 278 1224 278 1174.5 338 c 132,-1,6
 1125 398 1125 398 1041 398 c 4,7,8
 1031 398 1031 398 1021 397 c 13,9,-1
 1163 1202 l 5,10,-1
 979 1202 l 5,11,-1
 801 194 l 6,0,1
933 194 m 132,-1,13
 938 224 938 224 963 245 c 132,-1,14
 988 266 988 266 1018 266 c 132,-1,15
 1048 266 1048 266 1065 245 c 132,-1,16
 1082 224 1082 224 1077 194 c 132,-1,17
 1072 164 1072 164 1047.5 143 c 132,-1,18
 1023 122 1023 122 993 122 c 132,-1,19
 963 122 963 122 945.5 143 c 132,-1,12
 928 164 928 164 933 194 c 132,-1,13
241 194 m 6,20,21
 226 110 226 110 275.5 50 c 132,-1,22
 325 -10 325 -10 409 -10 c 132,-1,23
 493 -10 493 -10 563.5 50 c 132,-1,24
 634 110 634 110 649 194 c 132,-1,25
 664 278 664 278 614.5 338 c 132,-1,26
 565 398 565 398 481 398 c 4,27,28
 471 398 471 398 461 397 c 13,29,-1
 603 1202 l 5,30,-1
 419 1202 l 5,31,-1
 241 194 l 6,20,21
373 194 m 132,-1,33
 378 224 378 224 403 245 c 132,-1,34
 428 266 428 266 458 266 c 132,-1,35
 488 266 488 266 505 245 c 132,-1,36
 522 224 522 224 517 194 c 132,-1,37
 512 164 512 164 487.5 143 c 132,-1,38
 463 122 463 122 433 122 c 132,-1,39
 403 122 403 122 385.5 143 c 132,-1,32
 368 164 368 164 373 194 c 132,-1,33
EndSplineSet
EndChar
StartChar: uni0E42
Encoding: 3650 3650 185
Width: 930
Flags: W
HStem: -10 132<600 678.42> 1780 160<656.1 882.3>
VStem: 216 998<1520 1717>
Fore
830 1306 m 2,0,-1
 669 397 l 21,1,2
 679 398 679 398 688 398 c 0,3,4
 772 398 772 398 821.5 338 c 128,-1,5
 871 278 871 278 856 194 c 128,-1,6
 841 110 841 110 770.5 50 c 128,-1,7
 700 -10 700 -10 616 -10 c 128,-1,8
 532 -10 532 -10 482.5 50 c 128,-1,9
 433 110 433 110 448 194 c 2,10,-1
 637 1264 l 2,11,12
 656 1373 656 1373 516 1420 c 10,13,-1
 216 1520 l 17,14,-1
 259 1764 l 17,15,16
 388 1857 388 1857 529 1898.5 c 128,-1,17
 670 1940 670 1940 818 1940 c 0,18,19
 920 1940 920 1940 1003 1911.5 c 128,-1,20
 1086 1883 1086 1883 1140 1829 c 128,-1,21
 1194 1775 1194 1775 1214 1717 c 9,22,-1
 1042 1605 l 17,23,24
 1039 1647 1039 1647 1004.5 1693 c 128,-1,25
 970 1739 970 1739 915.5 1759 c 128,-1,26
 861 1779 861 1779 790 1780 c 0,27,28
 687 1782 687 1782 583 1747.5 c 128,-1,29
 479 1713 479 1713 397 1658 c 9,30,-1
 614 1576 l 18,31,32
 862 1482 862 1482 830 1306 c 2,0,-1
579 194 m 128,-1,34
 574 164 574 164 591.5 143 c 128,-1,35
 609 122 609 122 639 122 c 128,-1,36
 669 122 669 122 693.5 143 c 128,-1,37
 718 164 718 164 723 194 c 128,-1,38
 728 224 728 224 711 245 c 128,-1,39
 694 266 694 266 664 266 c 128,-1,40
 634 266 634 266 609 245 c 128,-1,33
 584 224 584 224 579 194 c 128,-1,34
EndSplineSet
EndChar
StartChar: uni0E43
Encoding: 3651 3651 186
Width: 830
Flags: W
HStem: -10 132<488 566.42> 1362 144<397 501>
VStem: 215 734<1558.51 1645.93 1602 1602>
Back
204 1706.5 m 24,0,1
 171.62 1706.5 171.62 1706.5 147.81 1685.52 c 128,-1,2
 124 1664.53 124 1664.53 124 1633.5 c 0,3,4
 124 1602 124 1602 146 1579 c 128,-1,5
 168 1556 168 1556 199 1556 c 128,-1,6
 230 1556 230 1556 253 1578 c 128,-1,7
 276 1600 276 1600 276 1630.5 c 0,8,9
 276 1661.51 276 1661.51 255.123 1684 c 128,-1,10
 234.247 1706.5 234.247 1706.5 204 1706.5 c 24,0,1
284.5 1142.5 m 18,11,12
 284.5 1202.84 284.5 1202.84 302.988 1256.35 c 128,-1,13
 321.477 1309.86 321.477 1309.86 347.863 1349.16 c 128,-1,14
 374.25 1388.45 374.25 1388.45 400.637 1425.43 c 128,-1,15
 427.023 1462.4 427.023 1462.4 445.512 1505.87 c 128,-1,16
 464 1549.33 464 1549.33 464 1595 c 0,17,18
 464 1637.44 464 1637.44 448.375 1677.25 c 128,-1,19
 432.75 1717.06 432.75 1717.06 396.599 1746.28 c 128,-1,20
 360.447 1775.5 360.447 1775.5 311 1775.5 c 1,21,22
 332.406 1761.63 332.406 1761.63 342.255 1753.56 c 128,-1,23
 352.104 1745.48 352.104 1745.48 364.682 1728.89 c 128,-1,24
 377.26 1712.29 377.26 1712.29 382.13 1688.12 c 128,-1,25
 387 1663.96 387 1663.96 387 1628.5 c 0,26,27
 387 1564.63 387 1564.63 329.55 1507.84 c 128,-1,28
 272.1 1451.06 272.1 1451.06 203.938 1451.06 c 0,29,30
 119.725 1451.06 119.725 1451.06 64.6124 1504.12 c 128,-1,31
 9.5 1557.18 9.5 1557.18 9.5 1638.5 c 0,32,33
 9.5 1751.82 9.5 1751.82 95.4482 1830.91 c 128,-1,34
 181.396 1910 181.396 1910 306.5 1910 c 0,35,36
 387.896 1910 387.896 1910 454.589 1882.09 c 128,-1,37
 521.283 1854.19 521.283 1854.19 562.028 1809.02 c 128,-1,38
 602.773 1763.85 602.773 1763.85 624.636 1710.29 c 128,-1,39
 646.5 1656.74 646.5 1656.74 646.5 1602 c 0,40,41
 646.5 1553.22 646.5 1553.22 628.115 1502.1 c 128,-1,42
 609.729 1450.99 609.729 1450.99 583.49 1405.51 c 128,-1,43
 557.25 1360.03 557.25 1360.03 531.01 1313.02 c 128,-1,44
 504.771 1266.02 504.771 1266.02 486.385 1208.31 c 128,-1,45
 468 1150.6 468 1150.6 468 1092.18 c 2,46,-1
 468 398 l 1,47,48
 492 410 492 410 538 410 c 0,49,50
 619 410 619 410 679 357.5 c 128,-1,51
 739 305 739 305 739 216 c 0,52,53
 739 113 739 113 675 56.5 c 128,-1,54
 611 0 611 0 509 0 c 0,55,56
 408.543 0 408.543 0 346.536 78.1004 c 128,-1,57
 284.529 156.201 284.529 156.201 284.529 303.947 c 2,58,-1
 284.5 1142.5 l 18,11,12
531 281 m 152,-1,60
 500 281 500 281 477 260 c 128,-1,61
 454 239 454 239 454 208 c 128,-1,62
 454 177 454 177 476.5 154.5 c 128,-1,63
 499 132 499 132 530 132 c 128,-1,64
 561 132 561 132 583.5 154.5 c 128,-1,65
 606 177 606 177 606 208 c 0,66,67
 606 238 606 238 584 259.5 c 128,-1,59
 562 281 562 281 531 281 c 152,-1,60
EndSplineSet
Fore
681 1092 m 2,0,-1
 558 397 l 17,1,2
 568 398 568 398 578 398 c 0,3,4
 662 398 662 398 711.5 338 c 128,-1,5
 761 278 761 278 746 194 c 128,-1,6
 731 110 731 110 660.5 50 c 128,-1,7
 590 -10 590 -10 506 -10 c 128,-1,8
 422 -10 422 -10 372.5 50 c 128,-1,9
 323 110 323 110 338 194 c 2,10,-1
 505 1142 l 2,11,12
 516 1200 516 1200 544 1255 c 128,-1,13
 572 1310 572 1310 605.5 1349 c 128,-1,14
 639 1388 639 1388 672 1425 c 128,-1,15
 705 1462 705 1462 731 1505.5 c 128,-1,16
 757 1549 757 1549 765 1595 c 0,17,18
 773 1637 773 1637 764.5 1677 c 128,-1,19
 756 1717 756 1717 725 1746.5 c 128,-1,20
 694 1776 694 1776 644 1776 c 1,21,22
 727 1716 727 1716 705 1602 c 0,23,24
 687 1502 687 1502 605 1432 c 0,25,26
 522 1362 522 1362 423 1362 c 128,-1,27
 324 1362 324 1362 262 1437.5 c 128,-1,28
 200 1513 200 1513 215 1602 c 0,29,30
 241 1745 241 1745 372 1827.5 c 152,-1,31
 503 1910 503 1910 663 1910 c 0,32,33
 745 1910 745 1910 806.5 1882 c 128,-1,34
 868 1854 868 1854 901 1809 c 128,-1,35
 934 1764 934 1764 946.5 1710.5 c 128,-1,36
 959 1657 959 1657 949 1602 c 0,37,38
 940 1553 940 1553 913 1502 c 128,-1,39
 886 1451 886 1451 851.5 1405.5 c 128,-1,40
 817 1360 817 1360 782.5 1313 c 128,-1,41
 748 1266 748 1266 719.5 1208.5 c 128,-1,42
 691 1151 691 1151 681 1092 c 2,0,-1
467 194 m 128,-1,44
 462 164 462 164 479.5 143 c 128,-1,45
 497 122 497 122 527 122 c 128,-1,46
 557 122 557 122 581.5 143 c 128,-1,47
 606 164 606 164 611 194 c 128,-1,48
 616 224 616 224 599 245 c 128,-1,49
 582 266 582 266 552 266 c 128,-1,50
 522 266 522 266 497 245 c 128,-1,43
 472 224 472 224 467 194 c 128,-1,44
369.5 1602 m 128,-1,52
 362 1562 362 1562 385.5 1534 c 128,-1,53
 409 1506 409 1506 449 1506 c 128,-1,54
 489 1506 489 1506 521.5 1534 c 128,-1,55
 554 1562 554 1562 561.5 1602 c 128,-1,56
 569 1642 569 1642 545.5 1670 c 128,-1,57
 522 1698 522 1698 482 1698 c 128,-1,58
 442 1698 442 1698 409.5 1670 c 128,-1,51
 377 1642 377 1642 369.5 1602 c 128,-1,52
EndSplineSet
EndChar
StartChar: uni0E44
Encoding: 3652 3652 187
Width: 910
Flags: W
HStem: -10 132<581 659.42>
VStem: 207 708<1854 1905>
Fore
687 1654 m 17,0,1
 640 1649 640 1649 591.5 1571.5 c 128,-1,2
 543 1494 543 1494 485 1356 c 1,3,-1
 377 1356 l 1,4,5
 374 1468 374 1468 320 1626.5 c 128,-1,6
 266 1785 266 1785 207 1854 c 1,7,-1
 277 1996 l 1,8,9
 341 1926 341 1926 401.5 1813 c 128,-1,10
 462 1700 462 1700 475 1606 c 1,11,12
 541 1741 541 1741 618.5 1823 c 128,-1,13
 696 1905 696 1905 755 1905 c 2,14,-1
 915 1905 l 9,15,-1
 649 397 l 17,16,17
 659 398 659 398 669 398 c 0,18,19
 753 398 753 398 802.5 338 c 128,-1,20
 852 278 852 278 837 194 c 128,-1,21
 822 110 822 110 751.5 50 c 128,-1,22
 681 -10 681 -10 597 -10 c 128,-1,23
 513 -10 513 -10 463.5 50 c 128,-1,24
 414 110 414 110 429 194 c 2,25,-1
 687 1654 l 17,0,1
560 194 m 128,-1,27
 555 164 555 164 572.5 143 c 128,-1,28
 590 122 590 122 620 122 c 128,-1,29
 650 122 650 122 674.5 143 c 128,-1,30
 699 164 699 164 704 194 c 128,-1,31
 709 224 709 224 692 245 c 128,-1,32
 675 266 675 266 645 266 c 128,-1,33
 615 266 615 266 590 245 c 128,-1,26
 565 224 565 224 560 194 c 128,-1,27
EndSplineSet
EndChar
StartChar: uni0E45
Encoding: 3653 3653 188
Width: 970
Flags: W
HStem: 1066 156<374.921 656.3>
VStem: 82 818<714 974>
Fore
516 -410 m 1,0,-1
 702 -410 l 25,1,-1
 900 714 l 2,2,3
 945 970 945 970 847 1096 c 128,-1,4
 749 1222 749 1222 506 1222 c 4,5,6
 416 1222 416 1222 318 1202.5 c 128,-1,7
 220 1183 220 1183 112 1144 c 1,8,-1
 82 974 l 1,9,10
 174 1020 174 1020 269 1043 c 128,-1,11
 364 1066 364 1066 460 1066 c 4,12,13
 611 1066 611 1066 681 996.5 c 128,-1,14
 751 927 751 927 728 796 c 2,15,-1
 516 -410 l 1,0,-1
EndSplineSet
EndChar
StartChar: uni0E46
Encoding: 3654 3654 189
Width: 1200
Flags: W
HStem: 586 121<401.1 487.747> 860 114<435.294 516.6>
VStem: 249 858<825 870.158 825 863>
Fore
1107 863 m 2,0,-1
 883 -408 l 5,1,-1
 700 -408 l 5,2,-1
 921 847 l 2,3,4
 933 913 933 913 926.5 973 c 128,-1,5
 920 1033 920 1033 872 1044 c 1,6,-1
 697 946 l 1,7,-1
 549 1057 l 1,8,9
 519 1045 519 1045 493.5 1027 c 128,-1,10
 468 1009 468 1009 448 968 c 1,11,12
 460 974 460 974 492 974 c 0,13,14
 584 975 584 975 628 930 c 128,-1,15
 672 885 672 885 663 801 c 0,16,17
 653 704 653 704 579 642 c 0,18,19
 512 586 512 586 426 586 c 0,20,21
 331 586 331 586 281 652 c 128,-1,22
 231 718 231 718 249 825 c 0,23,24
 275 972 275 972 360 1067.5 c 128,-1,25
 445 1163 445 1163 592 1224 c 1,26,27
 591 1220 591 1220 728 1116 c 1,28,-1
 904 1224 l 1,29,30
 1000 1207 1000 1207 1069 1123 c 128,-1,31
 1138 1039 1138 1039 1107 863 c 2,0,-1
444 707 m 152,-1,33
 477 707 477 707 505 728 c 128,-1,34
 533 749 533 749 539 781 c 0,35,36
 544 813 544 813 525.5 836.5 c 128,-1,37
 507 860 507 860 475 860 c 0,38,39
 441 860 441 860 412.5 838 c 128,-1,40
 384 816 384 816 378 784 c 0,41,42
 373 752 373 752 392 729.5 c 128,-1,32
 411 707 411 707 444 707 c 152,-1,33
EndSplineSet
EndChar
StartChar: uni0E47
Encoding: 3655 3655 190
Width: 0
Flags: W
HStem: 1584 65<-176.844 -113.824> 1698 98<-381.014 -120.396> 1698 94.2426<-293 -93.8095>
AnchorPoint: "AboveMark" -360.782 1351 mark 0
AnchorPoint: "AboveBase" 12.2178 1351 mark 0
Fore
-202.5 1534 m 132,-1,1
 -206 1513 -206 1513 -194 1498.5 c 132,-1,2
 -182 1484 -182 1484 -161 1484 c 132,-1,3
 -140 1484 -140 1484 -123 1498.5 c 132,-1,4
 -106 1513 -106 1513 -102.5 1534 c 132,-1,5
 -99 1555 -99 1555 -111 1569.5 c 132,-1,6
 -123 1584 -123 1584 -144 1584 c 132,-1,7
 -165 1584 -165 1584 -182 1569.5 c 132,-1,0
 -199 1555 -199 1555 -202.5 1534 c 132,-1,1
104 1816 m 5,8,9
 71 1777 71 1777 8.5 1748.5 c 132,-1,10
 -54 1720 -54 1720 -110.5 1710.5 c 132,-1,11
 -167 1701 -167 1701 -222.5 1699.5 c 132,-1,12
 -278 1698 -278 1698 -293 1698 c 4,13,14
 -393 1697 -393 1697 -466 1663 c 132,-1,15
 -539 1629 -539 1629 -551 1558 c 4,16,17
 -563 1494 -563 1494 -511 1470 c 5,18,-1
 -504 1496 l 6,19,20
 -496 1523 -496 1523 -466.5 1549.5 c 132,-1,21
 -437 1576 -437 1576 -392 1576 c 4,22,23
 -367 1576 -367 1576 -331 1534 c 4,24,25
 -293 1487 -293 1487 -271 1478 c 5,26,27
 -278 1505 -278 1505 -275 1532 c 4,28,29
 -268 1586 -268 1586 -226 1618 c 132,-1,30
 -184 1650 -184 1650 -128 1649 c 4,31,32
 -81 1649 -81 1649 -53 1616.5 c 132,-1,33
 -25 1584 -25 1584 -33 1537 c 4,34,35
 -44 1475 -44 1475 -98.5 1420.5 c 132,-1,36
 -153 1366 -153 1366 -235 1366 c 4,37,38
 -267 1366 -267 1366 -302.5 1388 c 132,-1,39
 -338 1410 -338 1410 -366 1432.5 c 132,-1,40
 -394 1455 -394 1455 -410 1455 c 4,41,42
 -429 1455 -429 1455 -440.5 1436.5 c 132,-1,43
 -452 1418 -452 1418 -457.5 1394.5 c 132,-1,44
 -463 1371 -463 1371 -467 1367 c 5,45,46
 -512 1366 -512 1366 -557 1374.5 c 132,-1,47
 -602 1383 -602 1383 -630 1420 c 132,-1,48
 -658 1457 -658 1457 -662.5 1492 c 132,-1,49
 -667 1527 -667 1527 -657 1582 c 4,50,51
 -648 1634 -648 1634 -613.5 1674 c 132,-1,52
 -579 1714 -579 1714 -535.5 1736.5 c 132,-1,53
 -492 1759 -492 1759 -439 1773 c 132,-1,54
 -386 1787 -386 1787 -357 1790.5 c 132,-1,55
 -328 1794 -328 1794 -273 1796 c 4,56,57
 -250 1797 -250 1797 -208 1797 c 132,-1,58
 -166 1797 -166 1797 -102.5 1807 c 132,-1,59
 -39 1817 -39 1817 14 1846 c 132,-1,60
 67 1875 67 1875 94 1916 c 5,61,-1
 104 1816 l 5,8,9
EndSplineSet
EndChar
StartChar: uni0E48
Encoding: 3656 3656 191
Width: 0
Flags: W
VStem: -14 174<1866 2098>
AnchorPoint: "AboveMark" 39.8672 1746 mark 0
Fore
27 2098 m 25,0,-1
 160 2098 l 1,1,-1
 119 1866 l 1,2,-1
 -14 1866 l 1,3,-1
 27 2098 l 25,0,-1
EndSplineSet
Substitution2: "Single Substitution lookup 5" uni0E48.low
MultipleSubs2: "Multiple Substitution lookup 4" uni0E4D uni0E48
EndChar
StartChar: uni0E49
Encoding: 3657 3657 192
Width: 0
Flags: W
HStem: 1819 68<-250 -161.962> 1955 57<-167.696 -103.864> 2126 63<-149.92 -78.561>
VStem: -250 617<1819 2071>
AnchorPoint: "AboveMark" 31.751 1734 mark 0
Fore
-250 1819 m 1,0,-1
 -238 1887 l 1,1,2
 -208 1887 -208 1887 -182.5 1899 c 128,-1,3
 -157 1911 -157 1911 -145 1922.5 c 128,-1,4
 -133 1934 -133 1934 -109 1960 c 1,5,6
 -122 1955 -122 1955 -158 1955 c 0,7,8
 -204 1955 -204 1955 -230.5 1989 c 128,-1,9
 -257 2023 -257 2023 -248 2073 c 0,10,11
 -240 2121 -240 2121 -198 2155 c 128,-1,12
 -156 2189 -156 2189 -105 2189 c 0,13,14
 -36 2189 -36 2189 -7.5 2153 c 128,-1,15
 21 2117 21 2117 12 2066 c 0,16,17
 -3 1977 -3 1977 -50 1926 c 1,18,19
 -21 1931 -21 1931 -6 1934 c 128,-1,20
 9 1937 9 1937 40 1946 c 128,-1,21
 71 1955 71 1955 92 1965 c 128,-1,22
 113 1975 113 1975 146.5 1994.5 c 128,-1,23
 180 2014 180 2014 208.5 2038.5 c 128,-1,24
 237 2063 237 2063 273 2100 c 128,-1,25
 309 2137 309 2137 345 2183 c 1,26,-1
 367 2071 l 1,27,28
 318 2018 318 2018 265.5 1977 c 128,-1,29
 213 1936 213 1936 170 1910 c 128,-1,30
 127 1884 127 1884 74 1865.5 c 128,-1,31
 21 1847 21 1847 -13.5 1838 c 128,-1,32
 -48 1829 -48 1829 -100.5 1824.5 c 128,-1,33
 -153 1820 -153 1820 -177.5 1819.5 c 128,-1,34
 -202 1819 -202 1819 -250 1819 c 1,0,-1
-135 2012 m 24,35,36
 -110 2012 -110 2012 -88.5 2029 c 128,-1,37
 -67 2046 -67 2046 -63 2070 c 128,-1,38
 -59 2094 -59 2094 -73.5 2110 c 128,-1,39
 -88 2126 -88 2126 -112 2126 c 0,40,41
 -137 2126 -137 2126 -158.5 2110 c 128,-1,42
 -180 2094 -180 2094 -184 2070 c 128,-1,43
 -188 2046 -188 2046 -173.5 2029 c 128,-1,44
 -159 2012 -159 2012 -135 2012 c 24,35,36
EndSplineSet
Substitution2: "Single Substitution lookup 5" uni0E49.low
MultipleSubs2: "Multiple Substitution lookup 4" uni0E4D uni0E49
EndChar
